<?xml version="1.0" standalone="no"?>
<!DOCTYPE svg PUBLIC "-//W3C//DTD SVG 1.0//EN" "http://www.w3.org/TR/2001/REC-SVG-20010904/DTD/svg10.dtd">
<svg xmlns="http://www.w3.org/2000/svg" xmlns:xlink="http://www.w3.org/1999/xlink" id="body_1" width="800" height="800">

<g transform="matrix(0.053090017 0 0 0.053090017 390.47705 379.4924)">
	<g>
        <path d="M-7355.9795 -991.23206L7712.7676 -991.23206L7712.7676 1763.328L-7355.9795 1763.328z" stroke="none" fill="#D90429" fill-rule="nonzero" />
		<g>
			<g transform="matrix(1.024 0 -0 -1.024 0 0)">
                <path d="M203 367L172 267L369 267L338 367C 326 403.6667 314.6667 440 304 476C 293.33334 512.6667 282.6667 550 272 588L272 588L268 588C 258 550 247.66667 512.6667 237 476C 226.33334 440 215.00002 403.6667 203 367zM88 0L3 0L225 656L319 656L541 0L452 0L390 200L151 200L88 0zM776 -12C 746 -12 718.6667 -7.6666665 694 1C 670 10.333333 649 23 631 39C 613.6667 55 600 74 590 96C 580.6667 118.66667 576 143.33334 576 170C 576 192.00002 579.3334 212.00002 586 230C 593.3334 248.00002 603 264.6667 615 280C 627 295.33334 640.6667 309.33334 656 322C 672 335.33334 688.3334 347.6667 705 359C 691.6667 386.33337 681 412.6667 673 438C 665.6667 464 662 489 662 513C 662 535 665.6667 555.3334 673 574C 680.3334 592.6667 690.6667 609 704 623C 717.3334 637 733.3334 648 752 656C 770.6667 664 791.3334 668 814 668C 854.66675 668 886.3334 656 909 632C 931.6667 608 943 576.6667 943 538C 943 516.6667 938.6667 497 930 479C 921.3334 461 910.00006 444 896 428C 882.00006 412.6667 866.00006 398 848 384C 830.6667 370.6667 813 357.33334 795 344C 816.3334 310 841.3334 277.33334 870 246C 899.3334 214.66667 929.66675 186 961 160C 981 187.33334 998.6667 217 1014 249C 1030 281 1043 316 1053 354L1053 354L1130 354C 1116.6667 310.6667 1100.6667 269.33334 1082 230C 1063.3334 190.66667 1041 153.66667 1015 119C 1037.6667 103.66667 1059.3334 90.66667 1080 80C 1100.6667 69.333336 1120 61.333336 1138 56L1138 56L1116 -12C 1092.6667 -5.3333335 1068.3334 4 1043 16C 1017.6667 28.666668 991.6667 44.333336 965 63C 939.6667 40.333336 911.3334 22 880 8C 849.3334 -5.333333 814.6667 -12 776 -12zM733 514C 733 496.00003 735.6667 477.33337 741 458C 747 438.6667 754.6667 419 764 399C 778.6667 409 792.6667 419 806 429C 820.00006 439.6667 832.00006 450.33337 842 461C 852.6667 472.33337 861 484.00003 867 496C 873 508.6667 876 522.3334 876 537C 876 556.3334 871 573 861 587C 851.6667 601.6667 836 609 814 609C 789.3334 609 769.6667 600 755 582C 740.3334 564 733 541.3334 733 514zM785 54C 807.6667 54 829.3334 58.666668 850 68C 870.66675 77.333336 890.66675 90.333336 910 107C 878 135 847 165.33334 817 198C 787.66675 231.33334 761.3334 266 738 302C 714.6667 283.33334 695 263.6667 679 243C 663.6667 223 656 200.33334 656 175C 656 157 659.3334 140.33334 666 125C 672.6667 110.33334 681.6667 97.66667 693 87C 705 76.333336 718.6667 68 734 62C 750 56.666668 767 54 785 54zM1347 -12C 1306.3334 -12 1272.3334 0 1245 24C 1218.3334 48 1205 82 1205 126C 1205 179.33334 1228.6667 220.00002 1276 248C 1323.3334 276.6667 1399 296.6667 1503 308C 1503 323.33334 1501.3334 338.33334 1498 353C 1495.3334 367.6667 1490.3334 380.6667 1483 392C 1475.6667 403.33337 1465.3334 412.33337 1452 419C 1439.3334 426.33337 1423 430.00003 1403 430C 1375 430.00003 1348.6667 424.6667 1324 414C 1299.3334 403.33334 1277.3334 391.33334 1258 378L1258 378L1226 435C 1248.6667 449.6667 1276.3334 463.6667 1309 477C 1341.6667 491 1377.6667 498 1417 498C 1476.3334 498 1519.3334 479.6667 1546 443C 1572.6667 407 1586 358.6667 1586 298L1586 298L1586 0L1518 0L1511 58L1508 58C 1484.6667 38.666668 1459.6667 22 1433 8C 1406.3334 -5.333333 1377.6667 -12 1347 -12zM1371 54C 1394.3334 54 1416.3334 59.333336 1437 70C 1457.6667 81.333336 1479.6667 97.66667 1503 119L1503 119L1503 254C 1462.3334 248.66667 1428 242.33334 1400 235C 1372.6667 227.66669 1350.3334 219.00002 1333 209C 1316.3334 199.00002 1304 187.33334 1296 174C 1288.6667 161.33334 1285 147.33334 1285 132C 1285 104 1293.3334 84 1310 72C 1326.6667 60 1347 54 1371 54zM1821 0L1739 0L1739 486L1807 486L1814 416L1817 416C 1838.3335 439.33337 1861.3335 458.6667 1886 474C 1911.3335 490 1938.6667 498 1968 498C 2005.3334 498 2034.3334 489.6667 2055 473C 2076.3335 457 2092 434.33334 2102 405C 2127.3335 433 2152.6667 455.33334 2178 472C 2204 489.33334 2232 498 2262 498C 2312 498 2349 482 2373 450C 2397.6667 418 2410 370.6667 2410 308L2410 308L2410 0L2328 0L2328 297C 2328 343 2320.6667 376 2306 396C 2291.3335 416.6667 2268.6667 427.00003 2238 427C 2201.3335 427.00003 2160.6667 402.00003 2116 352L2116 352L2116 0L2034 0L2034 297C 2034 343 2026.6667 376 2012 396C 1997.3335 416.6667 1974.3335 427.00003 1943 427C 1906.3335 427.00003 1865.6667 402.00003 1821 352L1821 352L1821 0zM2650 -205L2568 -205L2568 486L2636 486L2643 430L2646 430C 2668 448.6667 2692 464.6667 2718 478C 2744.6667 491.33334 2772.3335 498 2801 498C 2832.3335 498 2860 492 2884 480C 2908 468.6667 2928 452.00003 2944 430C 2960 408.6667 2972 382.6667 2980 352C 2988.6667 322 2993 288 2993 250C 2993 208.66667 2987.3335 171.66667 2976 139C 2964.6667 107 2949.3335 79.66667 2930 57C 2910.6667 34.333336 2888.3335 17 2863 5C 2837.6667 -6.333333 2811 -12 2783 -12C 2760.3335 -12 2737.6667 -7 2715 3C 2693 13 2670.6667 26.666668 2648 44L2648 44L2650 -41L2650 -205zM2769 57C 2789 57 2807.3335 61.333336 2824 70C 2841.3335 79.333336 2856 92 2868 108C 2880.6667 124.66667 2890.3335 145 2897 169C 2904.3335 193 2908 220 2908 250C 2908 276.6667 2905.6667 301 2901 323C 2896.3335 345 2888.6667 363.6667 2878 379C 2868 395.00003 2854.6667 407.33337 2838 416C 2822 424.6667 2802.6667 429 2780 429C 2759.3335 429 2738.3335 423.33334 2717 412C 2696.3335 400.6667 2674 384.33334 2650 363L2650 363L2650 108C 2672 89.333336 2693.3335 76 2714 68C 2734.6667 60.666668 2753 57 2769 57zM3166 349C 3149.3335 349 3135 354.6667 3123 366C 3111.6667 378 3106 393 3106 411C 3106 430.33334 3111.6667 445.6667 3123 457C 3135 469.00003 3149.3335 475.00003 3166 475C 3182 475.00003 3195.6667 469.00003 3207 457C 3219 445.6667 3225 430.33334 3225 411C 3225 393 3219 378 3207 366C 3195.6667 354.6667 3182 349 3166 349zM3108 -170L3088 -122C 3116.667 -109.33334 3139.0002 -92.66667 3155 -72C 3171.0002 -50.666668 3178.667 -26.666668 3178 0C 3176 -0.6666667 3172.6667 -1 3168 -1C 3152 -1 3138 3.6666667 3126 13C 3114.6667 23.000002 3109 37.333336 3109 56C 3109 74 3115 88 3127 98C 3139 108.66667 3153.3335 114 3170 114C 3191.3335 114 3208 105.333336 3220 88C 3232.667 70.66667 3239.0002 47.000004 3239 17C 3239.0002 -26.333332 3227.3335 -64 3204 -96C 3180.6667 -128 3148.6667 -152.66667 3108 -170zM3463 0L3380 0L3380 656L3463 656L3463 327L3466 327L3739 656L3833 656L3628 406L3865 0L3772 0L3576 341L3463 208L3463 0z" stroke="none" fill="#FFFFFF" fill-rule="nonzero" />
			</g>
		</g>
		<g transform="matrix(1 0 0 1 -50.176 1246.208)">
			<g transform="matrix(1.024 0 -0 -1.024 0 0)">
                <path d="M338 -12C 296.6667 -12 258.6667 -4.333333 224 11C 189.33334 26.333334 159 48.333336 133 77C 107.66667 106.33334 87.66667 142 73 184C 59 226.66669 52 274.6667 52 328C 52 380.6667 59.333336 428 74 470C 88.66667 512 109 547.6667 135 577C 161 606.3334 191.66667 628.6667 227 644C 262.33334 660 301 668 343 668C 383.00003 668 418.00003 659.6667 448 643C 478.6667 627 503.6667 608.3334 523 587L523 587L478 533C 460.6667 551.6667 441 566.6667 419 578C 397 589.3334 372 595 344 595C 312.6667 595 284.33334 588.6667 259 576C 233.66669 564 212.00002 546.3334 194 523C 176 500.33334 162 472.6667 152 440C 142.66667 407.33337 138 370.6667 138 330C 138 288.6667 142.66667 251.33334 152 218C 162 185.33334 175.66667 157.33334 193 134C 210.33334 110.66667 231.33334 92.66667 256 80C 281.33334 67.333336 309.6667 61 341 61C 373 61 401 67.333336 425 80C 449 93.33334 471.6667 111.66667 493 135L493 135L539 83C 513 53 483.6667 29.666668 451 13C 418.33334 -3.6666665 380.6667 -12 338 -12zM842 -12C 812.00006 -12 783.3334 -6.333333 756 5C 729.3334 16.333334 705.6667 32.666668 685 54C 664.3334 76 647.6667 102.66667 635 134C 623 166 617 202 617 242C 617 282.6667 623 318.6667 635 350C 647.6667 382 664.3334 409 685 431C 705.6667 453 729.3334 469.6667 756 481C 783.3334 492.33334 812.00006 498 842 498C 872.00006 498 900.3334 492.33334 927 481C 954.3334 469.6667 978.3334 453 999 431C 1019.6667 409 1036 382 1048 350C 1060.6667 318.6667 1067 282.6667 1067 242C 1067 202 1060.6667 166 1048 134C 1036 102.66667 1019.6667 76 999 54C 978.3334 32.666668 954.3334 16.333334 927 5C 900.3334 -6.333333 872.00006 -12 842 -12zM842 56C 862.6667 56.000004 881.6667 60.333336 899 69C 916.3334 78.333336 931 91 943 107C 955.66675 123.66667 965.3334 143.33334 972 166C 978.6667 188.66669 982 214.00002 982 242C 982 270 978.6667 295.33334 972 318C 965.3334 341.33334 955.66675 361.33334 943 378C 931 394.6667 916.3334 407.33337 899 416C 881.6667 425.33337 862.6667 430.00003 842 430C 821.3334 430.00003 802.3334 425.33337 785 416C 767.6667 407.33337 752.6667 394.6667 740 378C 728 361.33334 718.6667 341.33334 712 318C 705.3334 295.33334 702 270 702 242C 702 214.00002 705.3334 188.66669 712 166C 718.6667 143.33334 728 123.66667 740 107C 752.6667 91 767.6667 78.333336 785 69C 802.3334 60.333336 821.3334 56.000004 842 56zM1277 0L1195 0L1195 486L1263 486L1270 416L1273 416C 1294.3334 439.33337 1317.3334 458.6667 1342 474C 1367.3334 490 1394.6667 498 1424 498C 1461.3334 498 1490.3334 489.6667 1511 473C 1532.3335 457 1548.0001 434.33334 1558 405C 1583.3334 433 1608.6667 455.33334 1634 472C 1660 489.33334 1688 498 1718 498C 1768 498 1805 482 1829 450C 1853.6667 418 1866 370.6667 1866 308L1866 308L1866 0L1784 0L1784 297C 1784 343 1776.6667 376 1762 396C 1747.3334 416.6667 1724.6667 427.00003 1694 427C 1657.3335 427.00003 1616.6667 402.00003 1572 352L1572 352L1572 0L1490 0L1490 297C 1490 343 1482.6667 376 1468 396C 1453.3334 416.6667 1430.3334 427.00003 1399 427C 1362.3334 427.00003 1321.6667 402.00003 1277 352L1277 352L1277 0zM2106 -205L2024 -205L2024 486L2092 486L2099 430L2102 430C 2124 448.6667 2148 464.6667 2174 478C 2200.6667 491.33334 2228.3335 498 2257 498C 2288.3335 498 2316 492 2340 480C 2364 468.6667 2384 452.00003 2400 430C 2416 408.6667 2428 382.6667 2436 352C 2444.6667 322 2449 288 2449 250C 2449 208.66667 2443.3335 171.66667 2432 139C 2420.6667 107 2405.3335 79.66667 2386 57C 2366.6667 34.333336 2344.3335 17 2319 5C 2293.6667 -6.333333 2267 -12 2239 -12C 2216.3335 -12 2193.6667 -7 2171 3C 2149 13 2126.6667 26.666668 2104 44L2104 44L2106 -41L2106 -205zM2225 57C 2245 57 2263.3335 61.333336 2280 70C 2297.3335 79.333336 2312 92 2324 108C 2336.6667 124.66667 2346.3335 145 2353 169C 2360.3335 193 2364 220 2364 250C 2364 276.6667 2361.6667 301 2357 323C 2352.3335 345 2344.6667 363.6667 2334 379C 2324 395.00003 2310.6667 407.33337 2294 416C 2278 424.6667 2258.6667 429 2236 429C 2215.3335 429 2194.3335 423.33334 2173 412C 2152.3335 400.6667 2130 384.33334 2106 363L2106 363L2106 108C 2128 89.333336 2149.3335 76 2170 68C 2190.6667 60.666668 2209 57 2225 57zM2721 -12C 2669 -12 2631 4 2607 36C 2583.6667 68 2572 115.333336 2572 178L2572 178L2572 486L2655 486L2655 189C 2655 143 2662 109.66667 2676 89C 2690.6667 69 2714 59.000004 2746 59C 2771.3335 59.000004 2793.6667 65.333336 2813 78C 2832.3335 91.333336 2853.6667 112.333336 2877 141L2877 141L2877 486L2959 486L2959 0L2891 0L2884 76L2881 76C 2858.3335 49.333336 2834.3335 28 2809 12C 2784.3335 -4 2755 -12 2721 -12zM3276 -12C 3250 -12 3228 -8 3210 0C 3192.6667 8 3178.3335 19 3167 33C 3156.3335 47 3148.6667 64 3144 84C 3139.3335 104 3137.0002 126 3137 150L3137 150L3137 419L3065 419L3065 481L3141 486L3151 622L3220 622L3220 486L3351 486L3351 419L3220 419L3220 149C 3220 119 3225.3335 95.66667 3236 79C 3247.3335 63 3267 55 3295 55C 3303.667 55 3313.0002 56.333336 3323 59C 3333.0002 61.666668 3342.0002 64.66667 3350 68L3350 68L3366 6C 3352.6667 1.3333333 3338 -3.0000002 3322 -7C 3306.667 -10.333334 3291.3335 -12 3276 -12zM3658 -12C 3625.3335 -12 3594.6667 -6.333333 3566 5C 3538.0002 17 3513.3335 33.666668 3492 55C 3471.3335 77 3455.0002 103.66667 3443 135C 3431.0002 166.33334 3425.0002 202 3425 242C 3425.0002 282 3431.0002 317.6667 3443 349C 3455.6667 381.00003 3472 408.00003 3492 430C 3512.6667 452.00003 3536 468.6667 3562 480C 3588 492 3615 498 3643 498C 3673.667 498 3701.0002 492.6667 3725 482C 3749.6667 471.33337 3770 456.00003 3786 436C 3802.6667 416.00003 3815.3335 392.00003 3824 364C 3832.6667 336 3837 304.6667 3837 270C 3837 261.33334 3836.6667 252.66669 3836 244C 3836.0002 236 3835.3335 229 3834 223L3834 223L3506 223C 3509.3335 171 3525.3335 129.66667 3554 99C 3583.3335 69 3621.3335 54 3668 54C 3691.3335 54 3712.6667 57.333336 3732 64C 3752 71.333336 3771 80.66667 3789 92L3789 92L3818 38C 3796.6667 24.666668 3773 13 3747 3C 3721 -7 3691.3335 -12 3658 -12zM3505 282L3765 282C 3765 331.33334 3754.3335 368.6667 3733 394C 3712.3335 420.00003 3683 433.00003 3645 433C 3627.6667 433.00003 3611 429.6667 3595 423C 3579.667 416.33334 3565.667 406.33334 3553 393C 3540.3335 380.33334 3529.6667 364.6667 3521 346C 3513.0002 327.33334 3507.667 306 3505 282zM4039 0L3957 0L3957 486L4025 486L4032 398L4035 398C 4051.6667 428.6667 4071.6667 453 4095 471C 4119 489 4145 498 4173 498C 4192.3335 498 4209.667 494.6667 4225 488L4225 488L4209 416C 4201 418.6667 4193.667 420.6667 4187 422C 4180.3335 423.33337 4172 424.00003 4162 424C 4141.3335 424.00003 4119.667 415.6667 4097 399C 4075.0002 382.33334 4055.667 353.33334 4039 312L4039 312L4039 0zM4760 -12C 4718.667 -12 4680.667 -4.333333 4646 11C 4611.3335 26.333334 4581 48.333336 4555 77C 4529.667 106.33334 4509.667 142 4495 184C 4481 226.66669 4474 274.6667 4474 328C 4474 380.6667 4481.3335 428 4496 470C 4510.667 512 4531 547.6667 4557 577C 4583 606.3334 4613.667 628.6667 4649 644C 4684.3335 660 4723 668 4765 668C 4805 668 4840 659.6667 4870 643C 4900.667 627 4925.667 608.3334 4945 587L4945 587L4900 533C 4882.667 551.6667 4863 566.6667 4841 578C 4819 589.3334 4794 595 4766 595C 4734.667 595 4706.3335 588.6667 4681 576C 4655.667 564 4634 546.3334 4616 523C 4598 500.33334 4584 472.6667 4574 440C 4564.667 407.33337 4560 370.6667 4560 330C 4560 288.6667 4564.667 251.33334 4574 218C 4584 185.33334 4597.667 157.33334 4615 134C 4632.3335 110.66667 4653.3335 92.66667 4678 80C 4703.3335 67.333336 4731.667 61 4763 61C 4795 61 4823 67.333336 4847 80C 4871 93.33334 4893.667 111.66667 4915 135L4915 135L4961 83C 4935 53 4905.667 29.666668 4873 13C 4840.3335 -3.6666665 4802.667 -12 4760 -12zM5264 -12C 5234 -12 5205.3335 -6.333333 5178 5C 5151.3335 16.333334 5127.667 32.666668 5107 54C 5086.3335 76 5069.667 102.66667 5057 134C 5045 166 5039 202 5039 242C 5039 282.6667 5045 318.6667 5057 350C 5069.667 382 5086.3335 409 5107 431C 5127.667 453 5151.3335 469.6667 5178 481C 5205.3335 492.33334 5234 498 5264 498C 5294 498 5322.3335 492.33334 5349 481C 5376.3335 469.6667 5400.3335 453 5421 431C 5441.667 409 5458 382 5470 350C 5482.667 318.6667 5489 282.6667 5489 242C 5489 202 5482.667 166 5470 134C 5458 102.66667 5441.667 76 5421 54C 5400.3335 32.666668 5376.3335 16.333334 5349 5C 5322.3335 -6.333333 5294 -12 5264 -12zM5264 56C 5284.667 56.000004 5303.667 60.333336 5321 69C 5338.3335 78.333336 5353 91 5365 107C 5377.667 123.66667 5387.3335 143.33334 5394 166C 5400.667 188.66669 5404 214.00002 5404 242C 5404 270 5400.667 295.33334 5394 318C 5387.3335 341.33334 5377.667 361.33334 5365 378C 5353 394.6667 5338.3335 407.33337 5321 416C 5303.667 425.33337 5284.667 430.00003 5264 430C 5243.3335 430.00003 5224.3335 425.33337 5207 416C 5189.667 407.33337 5174.667 394.6667 5162 378C 5150 361.33334 5140.667 341.33334 5134 318C 5127.3335 295.33334 5124 270 5124 242C 5124 214.00002 5127.3335 188.66669 5134 166C 5140.667 143.33334 5150 123.66667 5162 107C 5174.667 91 5189.667 78.333336 5207 69C 5224.3335 60.333336 5243.3335 56.000004 5264 56zM5602 -170L5582 -122C 5610.667 -109.33334 5633 -92.66667 5649 -72C 5665 -50.666668 5672.667 -26.666668 5672 0C 5670 -0.6666667 5666.667 -1 5662 -1C 5646 -1 5632 3.6666667 5620 13C 5608.667 23.000002 5603 37.333336 5603 56C 5603 74 5609 88 5621 98C 5633 108.66667 5647.3335 114 5664 114C 5685.3335 114 5702 105.333336 5714 88C 5726.667 70.66667 5733 47.000004 5733 17C 5733 -26.333332 5721.3335 -64 5698 -96C 5674.667 -128 5642.667 -152.66667 5602 -170zM6444 0L6074 0L6074 656L6157 656L6157 71L6444 71L6444 0zM6705 -12C 6679 -12 6657 -8 6639 0C 6621.667 8 6607.334 19 6596 33C 6585.334 47 6577.667 64 6573 84C 6568.3335 104 6566 126 6566 150L6566 150L6566 419L6494 419L6494 481L6570 486L6580 622L6649 622L6649 486L6780 486L6780 419L6649 419L6649 149C 6649.0005 119 6654.334 95.66667 6665 79C 6676.334 63 6696.0005 55 6724 55C 6732.667 55 6742 56.333336 6752 59C 6762 61.666668 6771 64.66667 6779 68L6779 68L6795 6C 6781.667 1.3333333 6767.0005 -3.0000002 6751 -7C 6735.667 -10.333334 6720.3335 -12 6705 -12zM7056 -12C 6994.667 -12 6945.667 10 6909 54C 6873 98 6855 160.66667 6855 242C 6855 281.33334 6860.667 316.6667 6872 348C 6884 380 6899.667 407 6919 429C 6938.3335 451 6960.667 468 6986 480C 7011.334 492 7038.0005 498 7066 498C 7094.0005 498 7118.334 493 7139 483C 7159.667 473 7180.667 459.33334 7202 442L7202 442L7198 525L7198 712L7281 712L7281 0L7213 0L7206 57L7203 57C 7183.667 38.333336 7161.334 22 7136 8C 7111.334 -5.333333 7084.667 -12 7056 -12zM7074 57C 7096.667 57 7118.0005 62.333336 7138 73C 7158.0005 84.333336 7178.0005 101.333336 7198 124L7198 124L7198 378C 7177.3335 396.6667 7157.3335 409.6667 7138 417C 7119.3335 425 7100 429 7080 429C 7060.667 429 7042.334 424.33334 7025 415C 7008.334 406.33334 6993.667 393.6667 6981 377C 6968.3335 361 6958.3335 341.6667 6951 319C 6943.667 296.33334 6940.0005 271 6940 243C 6940.0005 184.33334 6951.667 138.66667 6975 106C 6998.3335 73.333336 7031.3335 57 7074 57z" stroke="none" fill="#FFFFFF" fill-rule="nonzero" />
			</g>
		</g>
		<g transform="matrix(3.0735 0 0 3.0735 -7058.221 1418.3604)">
			<g transform="matrix(1.024 0 -0 -1.024 0 0)">
                <path d="M203 367L172 267L369 267L338 367C 326 403.6667 314.6667 440 304 476C 293.33334 512.6667 282.6667 550 272 588L272 588L268 588C 258 550 247.66667 512.6667 237 476C 226.33334 440 215.00002 403.6667 203 367zM88 0L3 0L225 656L319 656L541 0L452 0L390 200L151 200L88 0zM882 -12C 840.6667 -12 802.6667 -4.333333 768 11C 733.3334 26.333334 703 48.333336 677 77C 651.6667 106.33334 631.6667 142 617 184C 603 226.66669 596 274.6667 596 328C 596 380.6667 603.3334 428 618 470C 632.6667 512 653 547.6667 679 577C 705 606.3334 735.6667 628.6667 771 644C 806.3334 660 845.00006 668 887 668C 927.00006 668 962.00006 659.6667 992 643C 1022.6667 627 1047.6667 608.3334 1067 587L1067 587L1022 533C 1004.6667 551.6667 985 566.6667 963 578C 941 589.3334 916 595 888 595C 856.6667 595 828.3334 588.6667 803 576C 777.6667 564 756 546.3334 738 523C 720 500.33334 706 472.6667 696 440C 686.6667 407.33337 682 370.6667 682 330C 682 288.6667 686.6667 251.33334 696 218C 706 185.33334 719.6667 157.33334 737 134C 754.3334 110.66667 775.3334 92.66667 800 80C 825.3334 67.333336 853.6667 61 885 61C 917 61 945 67.333336 969 80C 993 93.33334 1015.6667 111.66667 1037 135L1037 135L1083 83C 1057 53 1027.6667 29.666668 995 13C 962.3334 -3.6666665 924.6667 -12 882 -12zM1453 -12C 1411.6667 -12 1373.6667 -4.333333 1339 11C 1304.3334 26.333334 1274 48.333336 1248 77C 1222.6667 106.33334 1202.6667 142 1188 184C 1174 226.66669 1167 274.6667 1167 328C 1167 380.6667 1174.3334 428 1189 470C 1203.6667 512 1224 547.6667 1250 577C 1276 606.3334 1306.6667 628.6667 1342 644C 1377.3334 660 1416 668 1458 668C 1498 668 1533 659.6667 1563 643C 1593.6667 627 1618.6667 608.3334 1638 587L1638 587L1593 533C 1575.6667 551.6667 1556.0001 566.6667 1534 578C 1512 589.3334 1487 595 1459 595C 1427.6667 595 1399.3334 588.6667 1374 576C 1348.6667 564 1327 546.3334 1309 523C 1291 500.33334 1277 472.6667 1267 440C 1257.6667 407.33337 1253 370.6667 1253 330C 1253 288.6667 1257.6667 251.33334 1267 218C 1277 185.33334 1290.6667 157.33334 1308 134C 1325.3334 110.66667 1346.3334 92.66667 1371 80C 1396.3334 67.333336 1424.6667 61 1456 61C 1488 61 1516 67.333336 1540 80C 1564.0001 93.33334 1586.6667 111.66667 1608 135L1608 135L1654 83C 1628.0001 53 1598.6667 29.666668 1566 13C 1533.3334 -3.6666665 1495.6667 -12 1453 -12zM2146 0L1776 0L1776 656L1859 656L1859 71L2146 71L2146 0z" stroke="none" fill="#FFFFFF" fill-rule="nonzero" />
			</g>
		</g>
	</g>
</g>
</svg>