<?xml version="1.0" standalone="no"?>
<!DOCTYPE svg PUBLIC "-//W3C//DTD SVG 1.0//EN" "http://www.w3.org/TR/2001/REC-SVG-20010904/DTD/svg10.dtd">
<svg xmlns="http://www.w3.org/2000/svg" xmlns:xlink="http://www.w3.org/1999/xlink" id="body_1" width="1024" height="768">

<g transform="matrix(0.14903677 0 0 0.14903677 45.754288 438.36505)">
	<g>
		<g transform="matrix(16.9805 0 0 16.9805 4699.906 -1214.0801)">
			<g>
                <path d="M41.665 64.579C 41.665 61.124 38.870003 58.329002 35.415 58.329002C 31.969002 58.329002 29.173 61.124 29.173 64.579L29.173 64.579L29.173 87.492004L41.665 87.492004L41.665 64.579z" stroke="none" fill="#F4B41A" fill-rule="nonzero" />
                <path d="M62.5 39.539C 62.5 36.089 59.705 33.289 56.25 33.289C 52.798 33.289 50 36.089 50 39.539L50 39.539L50 87.492004L62.5 87.492004L62.5 39.539z" stroke="none" fill="#F4B41A" fill-rule="nonzero" />
                <path d="M83.327 14.583C 83.327 11.128 80.532005 8.333 77.077 8.333C 73.631004 8.333 70.83501 11.128 70.83501 14.583L70.83501 14.583L70.83501 87.492L83.327 87.492L83.327 14.583z" stroke="none" fill="#F4B41A" fill-rule="nonzero" />
                <path d="M20.835 87.5L20.835 0L8.337 0L8.337 99.992L8.337 99.992L8.337 100L91.663 100L91.663 87.5L20.835 87.5" stroke="none" fill="#F4B41A" fill-rule="nonzero" />
			</g>
		</g>
		<g>
			<g transform="matrix(1.024 0 -0 -1.024 0 0)">
                <path d="M923 625C 924.3334 625 925 623 925 619C 925 615 924.3334 613 923 613C 899.00006 613 877.00006 604 857 586C 837.00006 568 820.3334 542 807 508L807 508L613 1C 612.3334 -1.6666666 608.6667 -3 602 -3C 595.3334 -3 591.6667 -1.6666666 591 1L591 1L462 277L357 1C 356.33334 -1.6666666 352.6667 -3 346 -3C 339.33334 -3 335.6667 -1.6666666 335 1L335 1L82 542C 68 571.3334 56 590.3334 46 599C 36.666668 608.3334 22.333334 613 3 613C 1 613 0 615 0 619C 0 623 1 625 3 625L3 625L29 624C 43.666668 622.6667 60.333336 622 79 622C 116.333336 622 150.33334 622.6667 181 624C 190.33334 624.6667 202 625 216 625C 218 625 219 623 219 619C 219 615 218 613 216 613C 198 613 185 611 177 607C 169.66667 603.6667 166 597 166 587C 166 575.6667 172 557 184 531L184 531L375 124L447 310L338 542C 326 566.6667 314.6667 584.6667 304 596C 294 607.3334 282 613 268 613C 266 613 265 615 265 619C 265 623 266 625 268 625L268 625L292 624C 306.6667 622.6667 321.33334 622 336 622C 367.33334 622 395 622.6667 419 624C 425.6667 624.6667 434.33334 625 445 625C 447.00003 625 448.00003 623 448 619C 448.00003 615 447.00003 613 445 613C 434.33334 613 426.6667 611.6667 422 609C 418 607 416 603 416 597C 416 586.3334 424 564.3334 440 531L440 531L494 417L530 512C 542 543.3334 548 567 548 583C 548 603 538 613 518 613C 516 613 515 615 515 619C 515 623 516 625 518 625C 524 625 531 624.3334 539 623C 547 622.3334 561.6667 622 583 622C 595 622 609 622.6667 625 624L625 624L664 625C 665.3334 625 666 623 666 619C 666 615 665.3334 613 664 613C 641.3334 613 621.3334 604.6667 604 588C 586.6667 571.3334 571 544.6667 557 508L557 508L509 384L632 124L778 505C 784.66675 522.3334 788.00006 538.6667 788 554C 788.00006 572.6667 782.3334 587 771 597C 760.3334 607.6667 745 613 725 613C 723 613 722 615 722 619C 722 623 723 625 725 625L725 625L769 624C 793 622.6667 814.6667 622 834 622C 847.3334 622 862.66675 622.6667 880 624L880 624L923 625zM962 0C 960.00006 0 959.00006 2 959 6C 959.00006 10 960.00006 12 962 12C 984.6667 12 999.6667 16.666668 1007 26C 1014.3334 35.333336 1018 53.666668 1018 81L1018 81L1018 263C 1018 285.6667 1015.6667 302 1011 312C 1006.3334 322.6667 998.3334 328 987 328C 977 328 964 324 948 316L948 316L947 316C 944.3334 316 942.3334 317.6667 941 321C 939.6667 324.33334 940 326.6667 942 328L942 328L1086 395L1089 396C 1091.6667 396 1094.3334 394.33334 1097 391C 1100.3334 388.33334 1102 386 1102 384L1102 384L1102 363C 1100.6667 335 1100 302 1100 264L1100 264L1100 81C 1100 53.666668 1103.6667 35.333336 1111 26C 1119 16.666668 1134.3334 12 1157 12C 1159 12 1160 10 1160 6C 1160 2 1159 0 1157 0C 1140.3334 0 1127 0.33333334 1117 1L1117 1L1059 2L1001 1C 991.6667 0.33333334 978.6667 0 962 0zM1054 501C 1036.6667 501 1023.00006 505.6667 1013 515C 1003.6667 524.3334 999 537.6667 999 555C 999 571.6667 1003.6667 584.3334 1013 593C 1023.00006 602.3334 1036.6667 607 1054 607C 1070.6667 607 1083.6667 602.3334 1093 593C 1102.3334 584.3334 1107 571.6667 1107 555C 1107 537.6667 1102.3334 524.3334 1093 515C 1084.3334 505.6667 1071.3334 501 1054 501zM1688 12C 1690 12 1691 10 1691 6C 1691 2 1690 0 1688 0C 1671.3335 0 1658.3335 0.33333334 1649 1L1649 1L1591 2L1534 1C 1524 0.33333334 1510.6667 0 1494 0C 1492 0 1491 2 1491 6C 1491 10 1492 12 1494 12C 1516.6667 12 1531.6667 16.666668 1539 26C 1546.3334 35.333336 1550 53.666668 1550 81L1550 81L1550 231C 1550 268.33334 1543 295.6667 1529 313C 1515.6667 331 1494.3334 340 1465 340C 1447.6667 340 1430 336 1412 328C 1394 320 1377.6667 309.33334 1363 296L1363 296L1363 81C 1363 53.666668 1366.6667 35.333336 1374 26C 1381.3334 16.666668 1396.3334 12 1419 12C 1421 12 1422 10 1422 6C 1422 2 1421 0 1419 0C 1402.3334 0 1389.3334 0.33333334 1380 1L1380 1L1322 2L1264 1C 1254.6667 0.33333334 1241.6667 0 1225 0C 1223 0 1222 2 1222 6C 1222 10 1223 12 1225 12C 1247.6667 12 1262.6667 16.666668 1270 26C 1277.3334 35.333336 1281 53.666668 1281 81L1281 81L1281 272C 1281 293.33334 1278.3334 309 1273 319C 1268.3334 329 1260.3334 334 1249 334C 1239 334 1222.3334 329 1199 319L1199 319L1198 319C 1195.3334 319 1193.3334 320.6667 1192 324C 1190.6667 327.33334 1191 329.33334 1193 330L1193 330L1324 394C 1328 395.33334 1330.3334 396 1331 396C 1337.6667 396 1344.3334 388.33334 1351 373C 1358.3334 358.33334 1362.3334 339 1363 315C 1409.6667 370.33334 1460.3334 398 1515 398C 1551.6667 398 1580.3335 386.6667 1601 364C 1621.6667 342 1632 312 1632 274L1632 274L1632 81C 1632 53.666668 1635.6667 35.333336 1643 26C 1650.3335 16.666668 1665.3335 12 1688 12zM2199 12C 2201 12 2202 10 2202 6C 2202 2 2201 0 2199 0C 2182.3335 0 2169 0.33333334 2159 1L2159 1L2102 2L2027 1C 2015.6667 0.33333334 2000.3334 0 1981 0C 1979.6667 0 1979 2 1979 6C 1979 10 1979.6667 12 1981 12C 2008.3334 12 2022 19 2022 33C 2022 39 2019.3334 45.666668 2014 53L2014 53L1897 207L1867 181L1867 81C 1867.0001 53.666668 1870.6667 35.333336 1878 26C 1886 16.666668 1901.3334 12 1924 12C 1926.6667 12 1928 10 1928 6C 1928 2 1926.6667 0 1924 0C 1907.3334 0 1894 0.33333334 1884 1L1884 1L1827 2L1770 1C 1760 0.33333334 1746.6667 0 1730 0C 1728 0 1727 2 1727 6C 1727 10 1728 12 1730 12C 1752 12 1767 16.666668 1775 26C 1783 36 1787 54.333336 1787 81L1787 81L1787 592C 1787 615.3334 1784.6667 632 1780 642C 1775.3334 652.6667 1767.6667 658 1757 658C 1747 658 1733.3334 654 1716 646L1716 646L1715 646C 1713 646 1711 647.6667 1709 651C 1707.6667 655 1708 657.3334 1710 658L1710 658L1849 724L1854 725C 1856.6667 725 1859.3335 723.6667 1862 721C 1865.3335 718.3334 1867.0001 716 1867 714L1867 714L1867 202L1974 298C 1992.6667 314 2002.0001 329.6667 2002 345C 2002.0001 353.6667 1998.0001 360.6667 1990 366C 1982.6667 371.33334 1972 374 1958 374C 1956 374 1955 376 1955 380C 1955 384 1956 386 1958 386C 1976.6667 386 1991.3334 385.6667 2002 385L2002 385L2078 384L2149 385C 2158.3335 385.6667 2171 386 2187 386C 2189 386 2190 384 2190 380C 2190 376 2189 374 2187 374C 2159.6667 374 2128.6667 367 2094 353C 2059.3335 339.6667 2027.3334 320 1998 294L1998 294L1955 257L2088 81C 2106.6667 56.333336 2125 38.666668 2143 28C 2161 17.333334 2179.6667 12 2199 12zM2235 0C 2233 0 2232 2 2232 6C 2232 10 2233 12 2235 12C 2257 12 2272 16.666668 2280 26C 2288 36 2292 54.333336 2292 81L2292 81L2292 592C 2292 615.3334 2289.6667 632 2285 642C 2281 652.6667 2273.3335 658 2262 658C 2252 658 2238.6667 654 2222 646L2222 646L2221 646C 2218.3335 646 2216.3335 647.6667 2215 651C 2213.6667 654.3334 2213.6667 656.6667 2215 658L2215 658L2356 724L2360 725C 2362.6667 725 2365.6667 723.6667 2369 721C 2373 718.3334 2375 716 2375 714L2375 714L2375 81C 2375 53.666668 2378.6667 35.333336 2386 26C 2393.3335 16.666668 2408.3335 12 2431 12C 2433 12 2434 10 2434 6C 2434 2 2433 0 2431 0C 2415 0 2402 0.33333334 2392 1L2392 1L2333 2L2275 1C 2265 0.33333334 2251.6667 0 2235 0zM2841 62L2843 63C 2844.3335 63 2845.6667 61.666668 2847 59C 2849 56.333336 2849.3335 54.333336 2848 53C 2824 30.333336 2799.6667 13.666667 2775 3C 2750.3335 -7 2723.3335 -12 2694 -12C 2652.6667 -12 2617 -3.333333 2587 14C 2557.6667 32 2535 55.666668 2519 85C 2503.6667 115.00001 2496 147 2496 181C 2496 220.33334 2505.6667 256.33334 2525 289C 2545 321.6667 2572 347.33334 2606 366C 2640.6667 385.33334 2678.6667 395 2720 395C 2759.3335 395 2789.6667 386 2811 368C 2832.3335 350.6667 2843 326.6667 2843 296C 2843 278 2839.3335 269 2832 269L2832 269L2777 269L2589 267C 2587 253 2586 238 2586 222C 2586 164 2599.3335 117.66667 2626 83C 2653.3335 49 2691 32 2739 32C 2756.3335 32 2774 34.333336 2792 39C 2810 44.333336 2826.3335 52 2841 62zM2684 375C 2662 375 2643 367 2627 351C 2611 335 2599.6667 313 2593 285L2593 285L2749 288C 2747.6667 315.33334 2741.6667 336.6667 2731 352C 2720.3335 367.33334 2704.6667 375 2684 375zM3169 396C 3184.3335 396 3199 391 3213 381C 3227 371 3234 359 3234 345C 3234 332.33334 3230 322 3222 314C 3214.6667 306 3204.3335 302 3191 302C 3182.3335 302 3175 303.6667 3169 307C 3163.667 311 3158.0002 316.33334 3152 323C 3146.0002 329 3140.667 333.33334 3136 336C 3131.3335 339.33334 3125.6667 341 3119 341C 3111.6667 341 3103.6667 338 3095 332C 3087.0002 326.6667 3074.3335 315 3057 297L3057 297L3057 81C 3057 62.333336 3059.6667 48.000004 3065 38C 3070.3335 28.666668 3079.3335 22 3092 18C 3104.6667 14 3123.3335 12 3148 12C 3150.667 12 3152.0002 10 3152 6C 3152.0002 2 3150.667 0 3148 0C 3126 0 3108.3335 0.33333334 3095 1L3095 1L3016 2L2958 1C 2948.6667 0.33333334 2935.6667 0 2919 0C 2917 0 2916 2 2916 6C 2916 10 2917 12 2919 12C 2941.6667 12 2956.6667 16.666668 2964 26C 2971.3335 35.333336 2975 53.666668 2975 81L2975 81L2975 272C 2975 293.33334 2972.3335 309 2967 319C 2962.3335 329 2954.3335 334 2943 334C 2933 334 2916.3335 329 2893 319L2893 319L2892 319C 2889.3335 319 2887.3335 320.6667 2886 324C 2884.6667 327.33334 2885 329.33334 2887 330L2887 330L3018 394C 3022 395.33334 3024.3335 396 3025 396C 3031.6667 396 3038.3335 388.6667 3045 374C 3051.6667 360 3055.6667 341.33334 3057 318C 3083 347.33334 3104.6667 367.6667 3122 379C 3139.3335 390.33334 3155 396 3169 396zM3704 81C 3704.0002 60.333336 3705.667 45.333336 3709 36C 3712.3335 26.666668 3719 20.333334 3729 17C 3739.6667 13.666667 3756.3335 12 3779 12C 3781.0002 12 3782.0002 10 3782 6C 3782.0002 2 3781.0002 0 3779 0C 3757.6667 0 3740.6667 0.33333334 3728 1L3728 1L3654 2L3582 1C 3569.3335 0.33333334 3552.0002 0 3530 0C 3528.0002 0 3527.0002 2 3527 6C 3527.0002 10 3528.0002 12 3530 12C 3552.6667 12 3569 13.666667 3579 17C 3589.6667 20.333334 3597 26.666668 3601 36C 3605 46 3607 61 3607 81L3607 81L3607 544C 3607 564 3605 578.6667 3601 588C 3597 597.3334 3589.6667 603.6667 3579 607C 3569 611 3552.6667 613 3530 613C 3528.0002 613 3527.0002 615 3527 619C 3527.0002 623 3528.0002 625 3530 625L3530 625L3582 624C 3611.3335 622.6667 3635.3335 622 3654 622C 3674.6667 622 3699.6667 622.6667 3729 624L3729 624L3779 625C 3781.0002 625 3782.0002 623 3782 619C 3782.0002 615 3781.0002 613 3779 613C 3757.0002 613 3740.667 611 3730 607C 3720 603 3713 596 3709 586C 3705.667 576.6667 3704.0002 562 3704 542L3704 542L3704 81zM4036 604C 3995.3335 604 3961.6667 591.3334 3935 566C 3909.0002 541.3334 3889.0002 503.6667 3875 453C 3875.0002 451.6667 3873.0002 451.00003 3869 451C 3865.6667 451.00003 3864 452.00003 3864 454C 3866.6667 480.00003 3869.6667 513.3334 3873 554C 3876.3335 595.3334 3878.0002 626.3334 3878 647C 3878.0002 650.3334 3879.667 652 3883 652C 3887 652 3889 650.3334 3889 647C 3889 632.3334 3907.6667 625 3945 625C 4002.3335 623 4069.3335 622 4146 622C 4185.3335 622 4227 622.6667 4271 624L4271 624L4339 625C 4364.3335 625 4382.667 626.6667 4394 630C 4406 633.3334 4413.667 640 4417 650C 4417.667 652.6667 4419.667 654 4423 654C 4426.3335 654 4428 652.6667 4428 650C 4426 629.3334 4424 598 4422 556C 4420 514 4419 480.00003 4419 454C 4419 452.00003 4417 451.00003 4413 451C 4409.667 451.00003 4407.667 452.00003 4407 454C 4400.3335 505.33334 4384.667 543 4360 567C 4335.3335 591.6667 4302 604 4260 604C 4241.3335 604 4227.3335 602.3334 4218 599C 4209.3335 595.6667 4203.3335 589.6667 4200 581C 4197.3335 573 4196 560 4196 542L4196 542L4196 81C 4196 60.333336 4198 45.333336 4202 36C 4206 26.666668 4214 20.333334 4226 17C 4238 13.666667 4257 12 4283 12C 4285 12 4286 10 4286 6C 4286 2 4285 0 4283 0C 4259.667 0 4241.3335 0.33333334 4228 1L4228 1L4146 2L4068 1C 4054 0.33333334 4034.6667 0 4010 0C 4008.6667 0 4008 2 4008 6C 4008 10 4008.6667 12 4010 12C 4036.0002 12 4055.0002 13.666667 4067 17C 4079.6667 20.333334 4088 26.666668 4092 36C 4096.667 46 4099 61 4099 81L4099 81L4099 544C 4099 561.3334 4097.3335 574 4094 582C 4090.6667 590 4084.6667 595.6667 4076 599C 4067.3335 602.3334 4054 604 4036 604z" stroke="none" fill="#143D59" fill-rule="nonzero" />
			</g>
		</g>
	</g>
</g>
</svg>