<?xml version="1.0" standalone="no"?>
<!DOCTYPE svg PUBLIC "-//W3C//DTD SVG 1.0//EN" "http://www.w3.org/TR/2001/REC-SVG-20010904/DTD/svg10.dtd">
<svg xmlns="http://www.w3.org/2000/svg" xmlns:xlink="http://www.w3.org/1999/xlink" id="body_1" width="1024" height="768">

<g transform="matrix(0.14785247 0 0 0.14785247 34.301773 346.14032)">
	<g>
        <path d="M-232.448 -1048.576L6693.375 -1048.576L6693.375 1559.5521L-232.448 1559.5521z" stroke="none" fill="#FE938C" fill-rule="nonzero" />
		<g>
			<g transform="matrix(1.024 0 -0 -1.024 0 0)">
                <path d="M176 674L176 91L452 91L452 0L73 0L73 674L176 674zM761 -9C 686.3334 -9 627.6667 15.333334 585 64C 542.3334 112.66667 521 174.33334 521 249C 521 325 543 388 587 438C 631 488.6667 689 514 761 514C 838.3334 514 898 489.33337 940 440C 982 391.33334 1003 329 1003 253C 1003 177 981.3334 114.33334 938 65C 895.3334 15.666668 836.3334 -9 761 -9zM760 431C 716.6667 431 683 413.6667 659 379C 635 345 623 302.6667 623 252C 623 202 635.3334 159.66667 660 125C 684.6667 91 718.3334 74 761 74C 806.3334 74 840.6667 90.66667 864 124C 888 157.33334 900 199.66667 900 251C 900 303.6667 888.6667 346.6667 866 380C 843.3334 414 808 431 760 431zM1313 98C 1347.6667 98 1377.6667 111.333336 1403 138C 1429 165.33334 1442 203.33334 1442 252C 1442 312 1429.6667 356.33334 1405 385C 1381 413.6667 1351.6667 428 1317 428C 1277.6667 428 1246.6667 412.33334 1224 381C 1201.3334 350.33334 1190 309.6667 1190 259C 1190 206.33334 1202 166.33334 1226 139C 1250.6667 111.66667 1279.6667 98 1313 98zM1442 428L1442 507L1540 507L1540 43C 1540.0001 -35 1517.6667 -94 1473 -134C 1429 -173.33334 1372.3334 -193 1303 -193C 1237.6667 -193 1182.6667 -182 1138 -160L1138 -160L1138 -61C 1180.6667 -89.00001 1232.3334 -103.00001 1293 -103C 1392.3334 -103.00001 1442 -54.000004 1442 44L1442 44L1442 96C 1409.3334 41.333336 1360.3334 14.000001 1295 14C 1237.6667 14.000001 1188.6667 35 1148 77C 1107.3334 119.66667 1087 179.66667 1087 257C 1087 331.6667 1106 393 1144 441C 1182 489.6667 1232.3334 514 1295 514C 1362.3334 514 1411.3334 485.33337 1442 428zM1775 0L1676 0L1676 507L1775 507L1775 0zM1681 618C 1669.6667 630 1664 644.6667 1664 662C 1664 679.3334 1669.6667 694 1681 706C 1693.0001 718 1707.6667 724 1725 724C 1742.3334 724 1757 718 1769 706C 1781 694 1787 679.3334 1787 662C 1787 645.3334 1781 631 1769 619C 1757 607 1742.3334 601 1725 601C 1707.6667 601 1693.0001 606.6667 1681 618zM1990 251C 1991.3334 199.66667 2007 157.33334 2037 124C 2067 91.333336 2109 75 2163 75C 2203 75 2240.3335 86 2275 108L2275 108L2275 20C 2242.3335 0 2200.6667 -10 2150 -10C 2070.6667 -10 2007.3334 15.000001 1960 65C 1912.6667 115 1889 177.33334 1889 252C 1889 324.6667 1912.6667 386.6667 1960 438C 2008.0001 490 2072.6667 516 2154 516C 2198 516 2238.3335 506.6667 2275 488L2275 488L2275 398C 2242.3335 418.6667 2205.3335 429 2164 429C 2111.3335 429 2069 412.33334 2037 379C 2005.6667 345.6667 1990.0001 303 1990 251zM2655 169L2655 226L2579 226C 2541.6667 226 2513.3335 218.66667 2494 204C 2475.3335 189.33334 2466 170.66667 2466 148C 2466 124.66667 2473.3335 106.333336 2488 93C 2502.6667 79.66667 2524 73 2552 73C 2584 73 2609 81.66667 2627 99C 2645.6667 117 2655 140.33334 2655 169zM2400 386L2400 481C 2439.3335 503.6667 2491.3335 515 2556 515C 2688.6667 515 2755 450.6667 2755 322L2755 322L2755 0L2658 0L2658 60C 2632 17.333334 2586.3335 -4 2521 -4C 2473 -4 2434.3335 9.666667 2405 37C 2376.3335 65 2362 100.333336 2362 143C 2362 191.66667 2380.3335 229.33334 2417 256C 2453.6667 283.33334 2505 297 2571 297L2571 297L2655 297L2655 326C 2655 360.6667 2646.6667 386.6667 2630 404C 2613.3335 422 2585.6667 431 2547 431C 2493 431 2444 416 2400 386zM2990 0L2891 0L2891 707L2990 707L2990 0z" stroke="none" fill="#292929" fill-rule="nonzero" />
			</g>
		</g>
		<g transform="matrix(1 0 0 1 171.008 1246.2081)">
			<g transform="matrix(1.024 0 -0 -1.024 0 0)">
                <path d="M503 674L613 674L380 0L258 0L31 674L141 674L227 406C 245.66667 348.6667 262.6667 293.6667 278 241C 293.33334 189 304 151.33334 310 128L310 128L320 92C 341.33334 172.00002 373.33334 276.6667 416 406L416 406L503 674zM815 0L716 0L716 507L815 507L815 0zM721 618C 709.6667 630 704 644.6667 704 662C 704 679.3334 709.6667 694 721 706C 733 718 747.6667 724 765 724C 782.3334 724 797.00006 718 809 706C 821.00006 694 827.00006 679.3334 827 662C 827.00006 645.3334 821.00006 631 809 619C 797.00006 607 782.3334 601 765 601C 747.6667 601 733 606.6667 721 618zM957 507L1055 507L1055 418C 1079.6667 480.6667 1124 512 1188 512C 1197.3334 512 1207.6667 511 1219 509L1219 509L1219 413C 1205 419 1189.3334 422 1172 422C 1138 422 1110 407 1088 377C 1066 347 1055 311.33334 1055 270L1055 270L1055 0L957 0L957 507zM1556 431L1423 431L1423 152C 1423 103.333336 1446.3334 79 1493 79C 1520.3334 79 1543.3334 86.333336 1562 101L1562 101L1562 13C 1540 1 1513 -5 1481 -5C 1376.3334 -5 1324 48.000004 1324 154L1324 154L1324 431L1245 431L1245 507L1324 507L1324 631L1423 631L1423 507L1556 507L1556 431zM1985 231L1985 507L2083 507L2083 0L1985 0L1985 87C 1958.3335 25 1905.6667 -6 1827 -6C 1777 -6 1737.3334 8.666667 1708 38C 1678.6667 68 1664 109 1664 161L1664 161L1664 507L1763 507L1763 185C 1763 150.33334 1771.3334 123.66667 1788 105C 1805.3334 87 1829 78 1859 78C 1897 78 1927.3334 91.333336 1950 118C 1973.3334 144.66667 1985 182.33334 1985 231zM2488 169L2488 226L2412 226C 2374.6667 226 2346.3335 218.66667 2327 204C 2308.3335 189.33334 2299 170.66667 2299 148C 2299 124.66667 2306.3335 106.333336 2321 93C 2335.6667 79.66667 2357 73 2385 73C 2417 73 2442 81.66667 2460 99C 2478.6667 117 2488 140.33334 2488 169zM2233 386L2233 481C 2272.3335 503.6667 2324.3335 515 2389 515C 2521.6667 515 2588 450.6667 2588 322L2588 322L2588 0L2491 0L2491 60C 2465 17.333334 2419.3335 -4 2354 -4C 2306 -4 2267.3335 9.666667 2238 37C 2209.3335 65 2195 100.333336 2195 143C 2195 191.66667 2213.3335 229.33334 2250 256C 2286.6667 283.33334 2338 297 2404 297L2404 297L2488 297L2488 326C 2488 360.6667 2479.6667 386.6667 2463 404C 2446.3335 422 2418.6667 431 2380 431C 2326 431 2277 416 2233 386zM2823 0L2724 0L2724 707L2823 707L2823 0z" stroke="none" fill="#292929" fill-rule="nonzero" />
			</g>
		</g>
		<g transform="matrix(2.8887 0 0 2.8887 3153.0225 1252.352)">
			<g transform="matrix(1.024 0 -0 -1.024 0 0)">
                <path d="M176 674L176 91L452 91L452 0L73 0L73 674L176 674zM983 674L1093 674L860 0L738 0L511 674L621 674L707 406C 725.6667 348.6667 742.6667 293.6667 758 241C 773.3334 189 784 151.33334 790 128L790 128L800 92C 821.3334 172.00002 853.3334 276.6667 896 406L896 406L983 674z" stroke="none" fill="#292929" fill-rule="nonzero" />
			</g>
		</g>
	</g>
</g>
</svg>