<?xml version="1.0" standalone="no"?>
<!DOCTYPE svg PUBLIC "-//W3C//DTD SVG 1.0//EN" "http://www.w3.org/TR/2001/REC-SVG-20010904/DTD/svg10.dtd">
<svg xmlns="http://www.w3.org/2000/svg" xmlns:xlink="http://www.w3.org/1999/xlink" id="body_1" width="800" height="800">

<g transform="matrix(0.072806135 0 0 0.072806135 164.9787 418.6363)">
	<g>
        <path d="M-2266.9062 -5750.541L8721.179 -5750.541L8721.179 5237.5166L-2266.9062 5237.5166z" stroke="none" fill="#165A3F" fill-rule="nonzero" />
		<g transform="matrix(26.1119 0 0 26.1119 -1995.2502 -5478.8984)">
			<g>
                <path d="M398.6388 200.00052L361.85794 132.95624L340.45865 59.540825L267.04272 38.141212L200.50656 1.63915L200 1.36172L132.95656 38.14173L59.54134 59.54083L38.14186 132.9552L1.63864 199.49394L1.3612101 200.00052L38.14193 267.04504L59.54135 340.45917L132.95624 361.85852L199.49344 398.36084L200 398.63828L267.04172 361.85904L340.45865 340.45917L361.8573 267.04608L398.36136 200.50708L398.6388 200.00052zM365.49286 247.05289L356.78244 217.16983L365.92365 200.50708L366.20108 200.00052L356.78238 182.83171L365.49304 152.94789L379.20798 200L365.49286 247.05289zM380.30396 203.76021L385.11703 220.27242L367.20407 252.92361L366.5889 250.8131L380.30396 203.76021zM345.23193 316.56244L330.1538 324.83447L353.72598 281.86752L355.65308 280.8102L345.23193 316.56244zM326.71875 326.71893L283.75174 350.291L298.72272 323.00165L317.5224 317.52188L323.002 298.72266L350.29117 283.75198L326.71875 326.71893zM324.8343 330.15393L316.56198 345.2325L280.80975 355.6536L281.86758 353.72546L324.8343 330.15393zM200 379.20844L152.9475 365.49338L182.83063 356.78284L199.49344 365.92416L200 366.2016L216.9945 356.8784L246.99733 365.50955L200 379.20844zM250.78233 366.59845L252.91077 367.2106L220.27081 385.11716L203.76013 380.30453L250.78233 366.59845zM196.23987 380.30453L179.72905 385.11716L147.07755 367.20444L149.1873 366.58948L196.23987 380.30453zM73.28035 326.71893L49.707993 283.75146L76.99747 298.7224L82.524864 317.68527L82.68722 318.24115L101.65957 323.69907L116.248276 350.2915L73.28035 326.71893zM118.13261 353.72623L119.19005 355.6536L83.43678 345.232L75.16481 330.15393L118.13261 353.72623zM44.34647 280.8102L46.27352 281.86725L69.845505 324.83472L54.768154 316.5632L44.34647 280.8102zM20.79113 200L34.50625 152.9484L43.21671 182.83119L34.07533 199.49394L33.797897 200.00052L43.21665 217.16905L34.50618 247.0516L20.79113 200zM33.41014 250.8118L32.79485 252.92233L14.88225 220.2714L19.69514 203.76021L33.41014 250.8118zM19.69515 196.23979L14.88245 179.72913L32.795113 147.07793L33.410213 149.1882L19.69515 196.23979zM54.76814 83.43679L69.84549 75.16527L46.27358 118.13275L44.34647 119.18981L54.76814 83.43679zM73.28048 73.28106L116.248474 49.70851L101.277214 76.99836L82.4776 82.47812L76.99779 101.277336L49.708317 116.24853L73.28048 73.28106zM75.16482 69.84606L83.43679 54.768L119.190125 44.3464L118.132675 46.27402L75.16482 69.84606zM247.05199 34.50637L217.16905 43.2169L200.50656 34.07584L200 33.79842L182.83119 43.21716L152.94801 34.50663L200.00052 20.791569L247.05199 34.50637zM326.71863 73.28106L350.29086 116.24802L323.00195 101.27708L317.5224 82.47812L298.72247 76.99811L283.75165 49.70902L326.71863 73.28106zM281.86737 46.27402L280.80975 44.3464L316.56198 54.76749L324.83414 69.84581L281.86737 46.27402zM355.65308 119.1898L353.72534 118.131966L330.15356 75.16525L345.23193 83.437546L355.65308 119.1898zM307.3237 307.32376L320.39258 300.15427L315.82495 315.82443L300.15433 320.39224L307.3237 307.32376zM297.29614 321.2253L264.62378 330.7491L303.88882 309.20822L297.29614 321.2253zM309.20792 303.88928L330.74927 264.6232L321.22565 297.2962L309.20792 303.88928zM305.77304 305.7735L255.28683 333.47052L199.63068 349.69373L146.34062 334.36343L94.22631 305.77325L66.52782 255.28485L50.413185 200.00026L66.52846 144.71465L94.2267 94.2265L144.71355 66.529236L199.99974 50.413635L255.28671 66.529236L305.77338 94.2265L333.47095 144.71439L349.58585 200.00052L333.47116 255.28561L305.77304 305.7735zM199.63536 351.88467L214.12427 356.0528L200 363.8013L185.6884 355.95004L199.63536 351.88467zM183.07909 354.51843L154.73128 338.9667L195.85043 350.79575L183.07909 354.51843zM203.4156 350.78265L246.76094 338.14804L216.74225 354.61633L203.4156 350.78265zM92.67604 307.32376L100.233444 321.09946L84.38264 316.53958L79.606415 300.15375L92.67604 307.32376zM78.77334 297.29572L69.24927 264.6214L90.79164 303.88904L78.77334 297.29572zM96.11072 309.20822L137.13907 331.71652L103.08442 321.91965L96.11072 309.20822zM48.22117 200L44.04945 214.31178L36.19819 200.00052L44.04971 185.68872L48.22117 200zM45.4811 183.0796L61.851067 153.24072L49.317146 196.24005L45.4811 183.0796zM49.31721 203.76021L61.85126 246.76056L45.480972 216.92117L49.31721 203.76021zM92.67611 92.67624L79.60736 99.84574L84.175064 84.17557L99.84555 79.607735L92.67611 92.67624zM102.70379 78.77468L135.37662 69.250885L96.11097 90.79177L102.70379 78.77468zM90.79183 96.11097L69.25037 135.37682L78.77425 102.70378L90.79183 96.11097zM199.99974 48.22169L185.68848 44.049973L200 36.1987L214.31134 44.04997L199.99974 48.22169zM216.9206 45.4813L246.76082 61.851982L203.75989 49.317543L216.9206 45.4813zM196.23961 49.31754L153.23958 61.85172L183.07915 45.48156L196.23961 49.31754zM307.32306 92.67572L300.154 79.60774L315.82495 84.175575L320.39246 99.84549L307.32306 92.67572zM321.2256 102.70379L330.7497 135.3786L309.2074 96.11046L321.2256 102.70379zM303.88904 90.79177L264.62473 69.25139L297.29648 78.77468L303.88904 90.79177zM350.6819 203.76071L354.518 216.92117L338.1484 246.75978L350.6819 203.76071zM351.77792 200.00052L355.94952 185.68898L363.80078 200.00052L355.94946 214.31178L351.77792 200.00052zM350.68195 196.24031L338.1483 153.24048L354.51807 183.0796L350.68195 196.24031zM335.42703 143.9047L323.83508 104.135376L352.17532 119.683014L359.90225 133.76746L364.397 149.18768L355.35086 180.22234L335.42703 143.9047zM295.86496 76.16531L256.09863 64.573875L219.77838 44.648506L250.81206 35.602486L266.23056 40.096596L280.31744 47.824814L295.86496 76.16531zM149.18794 35.60274L180.22188 44.64875L143.90283 64.573364L104.135376 76.165054L119.683525 47.824043L133.76785 40.097363L149.18794 35.60274zM76.16473 104.13538L64.57297 143.90291L44.64811 180.22183L35.602287 149.18822L40.097298 133.76747L47.82385 119.68354L76.16473 104.13538zM44.64811 219.77818L64.57272 256.09683L76.164345 295.86438L47.823463 280.31647L40.097614 266.23383L35.602226 250.81155L44.64811 219.77818zM104.51055 324.5193L145.52985 336.31955L180.2213 355.3515L149.18742 364.39752L133.7685 359.9029L119.683334 352.17596L104.51055 324.5193zM219.61263 355.4422L256.09756 335.4264L295.86456 323.83496L280.31668 352.17545L266.23056 359.9034L250.77777 364.40753L219.61263 355.4422zM323.83514 295.86462L335.42664 256.09735L355.35098 219.7792L364.39682 250.81284L359.9019 266.23383L352.17572 280.317L323.83514 295.86462zM366.58908 149.18768L367.2042 147.07716L385.11685 179.72809L380.30396 196.23979L366.58908 149.18768zM365.77274 144.46803L365.4931 145.42747L364.57938 142.29279L365.77274 144.46803zM355.6098 121.56722L356.4862 122.047844L357.1807 124.43066L355.6098 121.56722zM344.39874 80.57926L328.26907 71.730286L319.4203 55.600815L338.7612 61.238297L344.39874 80.57926zM277.95215 43.51334L278.4331 44.39007L275.5685 42.81848L277.95215 43.51334zM254.57227 34.50637L255.53107 34.22689L257.705 35.41932L254.57227 34.50637zM252.92188 32.7953L250.81226 33.41027L182.33832 13.451241L200 3.762L252.92188 32.7953zM179.72905 14.88283L196.24043 19.695469L142.29343 35.42009L179.72905 14.88283zM121.56773 44.38956L122.04842 43.51335L124.430725 42.819L121.56773 44.38956zM61.2388 61.23829L80.57849 55.60107L71.72989 71.730545L55.601257 80.57876L61.2388 61.23829zM43.51334 122.0481L44.38911 121.56773L42.819252 124.429115L43.51334 122.0481zM34.50618 145.428L34.22657 144.46855L35.41997 142.29329L34.50618 145.428zM13.45098 182.3385L18.59911 200L13.450789 217.66202L3.7614899 200.00052L13.45098 182.3385zM34.22631 255.53171L34.506123 254.57175L35.420353 257.70798L34.22631 255.53171zM44.38905 278.43225L43.51335 277.9519L42.81932 275.5709L44.38905 278.43225zM55.60126 319.42126L71.72989 328.26947L80.57849 344.39893L61.2388 338.76172L55.60126 319.42126zM122.04836 356.4869L121.56768 355.6107L124.43041 357.181L122.04836 356.4869zM145.42715 365.49362L144.46829 365.7731L142.29419 364.58017L145.42715 365.49362zM182.33832 386.54877L200 381.40063L217.66156 386.54877L200 396.238L182.33832 386.54877zM255.52882 365.77438L254.56276 365.49646L257.705 364.5807L255.52882 365.77438zM278.43253 355.60992L277.95145 356.4869L275.5676 357.18176L278.43253 355.60992zM338.7612 338.76172L319.4203 344.3992L328.26935 328.26947L344.39874 319.42075L338.7612 338.76172zM356.4862 277.95215L355.6105 278.43253L357.1801 275.5714L356.4862 277.95215zM365.49286 254.57329L365.77258 255.53273L364.579 257.7085L365.49286 254.57329zM386.5485 217.66304L381.4 200L386.5483 182.33748L396.23853 200.00052L386.5485 217.66304z" stroke="none" fill="#00E6CF" fill-rule="nonzero" />
			</g>
		</g>
		<g>
			<g transform="matrix(1.024 0 -0 -1.024 0 0)">
                <path d="M28 262C 28.000002 298.6667 34.333336 333.33334 47 366C 59.666668 398.6667 78 427.33337 102 452C 126 476.6667 155 496.33334 189 511C 223 525.6667 261.33334 533 304 533C 361.33334 533 410 520.6667 450 496C 490.6667 471.33334 521 439 541 399L541 399L410 359C 398.6667 378.33337 383.6667 393.00003 365 403C 346.33334 413.6667 325.6667 419 303 419C 283.6667 419 265.6667 415 249 407C 232.33334 399.6667 217.66669 389 205 375C 193 361.6667 183.33334 345.33334 176 326C 169.33334 306.6667 166 285.33334 166 262C 166 238.66669 169.66667 217.33334 177 198C 184.33334 178.66667 194 162 206 148C 218.66667 134 233.33334 123.00001 250 115C 266.6667 107.66667 284.33334 104 303 104C 327 104 349 110 369 122C 389.6667 134 404.00003 148.66667 412 166L412 166L543 126C 525 86 495.33334 53.333336 454 28C 412.6667 2.666667 363 -10 305 -10C 262.33334 -10 224 -2.666667 190 12C 156 26.666668 127.00001 46.333336 103 71C 79 96.33334 60.333336 125.33334 47 158C 34.333336 191.33334 28.000002 226 28 262zM937 530L937 408C 896.3334 407.33334 860 399.33334 828 384C 796 369.33334 773 347 759 317L759 317L759 0L625 0L625 524L748 524L748 412C 757.3334 430.00003 768.3334 446.00003 781 460C 793.66675 474.6667 807.3334 487.33334 822 498C 836.6667 508.6667 851.3334 516.6667 866 522C 881.3334 528 896 531 910 531C 917.3334 531 922.6667 531 926 531C 930.00006 531 933.66675 530.6667 937 530zM1023 -218L1023 -102C 1034.3334 -105.333336 1045.3334 -108 1056 -110C 1066.6667 -111.33334 1075.6667 -112.00001 1083 -112C 1091.6667 -112.00001 1099.6667 -110.33334 1107 -107C 1114.3334 -103.66667 1121 -98 1127 -90C 1133 -81.333336 1139 -69.66667 1145 -55C 1151 -40.333336 1157.3334 -22 1164 0L1164 0L957 524L1095 524L1237 116L1363 524L1489 524L1269 -104C 1256.3334 -140.66667 1234.6667 -170.66667 1204 -194C 1173.3334 -217.33334 1135.3334 -229 1090 -229C 1079.3334 -229 1068.3334 -228.33334 1057 -227C 1046.3334 -225.00002 1035 -222.00002 1023 -218zM1876 -10C 1834.6667 -10 1798.6667 -1 1768 17C 1737.3334 35.666668 1713.3334 60.666668 1696 92L1696 92L1696 -213L1562 -213L1562 524L1679 524L1679 434C 1698.3335 464.6667 1723.3335 488.6667 1754 506C 1784.6667 524 1820 533 1860 533C 1895.3334 533 1928 525.6667 1958 511C 1988 497.00003 2013.6667 477.6667 2035 453C 2057 429 2074 400.33334 2086 367C 2098.6667 334.33334 2105 299.6667 2105 263C 2105 225.00002 2099.3335 189.33334 2088 156C 2076.6667 122.66667 2060.6667 93.66667 2040 69C 2020 44.333336 1996 25 1968 11C 1940 -3.0000002 1909.3334 -10 1876 -10zM1831 104C 1851.0001 104 1869.3335 108.333336 1886 117C 1903.3335 125.66667 1918.0001 137.33334 1930 152C 1942.0001 166.66667 1951.3335 183.66667 1958 203C 1964.6667 222.33334 1968 242.33334 1968 263C 1968 285 1964.3334 305.33334 1957 324C 1949.6667 343.33334 1939.3334 360 1926 374C 1913.3334 388 1898 399 1880 407C 1862.6667 415 1843.6667 419 1823 419C 1810.3335 419 1797.3335 416.6667 1784 412C 1770.6667 408.00003 1758.3334 402.00003 1747 394C 1735.6667 386 1725.3334 376.6667 1716 366C 1707.3334 355.33334 1700.6667 343.6667 1696 331L1696 331L1696 208C 1708.0001 178 1726.3335 153 1751 133C 1775.6667 113.66667 1802.3334 104 1831 104zM2483 133L2510 27C 2492 19 2470 11 2444 3C 2418 -5 2390.6667 -9 2362 -9C 2343.3335 -9 2325.6667 -6.6666665 2309 -2C 2293 2.6666667 2278.6667 10 2266 20C 2254 30.666668 2244.3335 44 2237 60C 2229.6667 76.66667 2226 96.66667 2226 120L2226 120L2226 421L2157 421L2157 524L2226 524L2226 694L2360 694L2360 524L2470 524L2470 421L2360 421L2360 165C 2360 146.33334 2364.6667 133 2374 125C 2384 117.66667 2396 114 2410 114C 2424 114 2437.6667 116.333336 2451 121C 2464.3335 125.66667 2475 129.66667 2483 133zM2822 -10C 2779.3335 -10 2741 -2.666667 2707 12C 2673 26.666668 2644 46.333336 2620 71C 2596.6667 96.33334 2578.6667 125.33334 2566 158C 2553.3335 190.66667 2547 225 2547 261C 2547 297.6667 2553.3335 332.33334 2566 365C 2578.6667 397.6667 2596.6667 426.33334 2620 451C 2644 476.33334 2673 496.33334 2707 511C 2741 525.6667 2779.3335 533 2822 533C 2864.6667 533 2902.6667 525.6667 2936 511C 2970 496.33334 2998.6667 476.33334 3022 451C 3046 426.33334 3064.3335 397.6667 3077 365C 3089.6667 332.33334 3096 297.6667 3096 261C 3096 225 3089.6667 190.66667 3077 158C 3064.3335 125.33334 3046.3335 96.33334 3023 71C 2999.6667 46.333336 2971 26.666668 2937 12C 2903 -2.666667 2864.6667 -10 2822 -10zM2685 261C 2685 237.66667 2688.3335 216.33334 2695 197C 2702.3335 178.33334 2712 162 2724 148C 2736.6667 134 2751.3335 123.00001 2768 115C 2784.6667 107.66667 2802.6667 104 2822 104C 2841.3335 104 2859.3335 107.66667 2876 115C 2892.6667 123.00001 2907 134 2919 148C 2931.6667 162 2941.3335 178.66667 2948 198C 2955.3335 217.33334 2959 238.66669 2959 262C 2959 284.6667 2955.3335 305.6667 2948 325C 2941.3335 344.33334 2931.6667 361 2919 375C 2907 389 2892.6667 399.6667 2876 407C 2859.3335 415 2841.3335 419 2822 419C 2802.6667 419 2784.6667 415 2768 407C 2751.3335 399 2736.6667 388 2724 374C 2712 360 2702.3335 343.33334 2695 324C 2688.3335 304.6667 2685 283.6667 2685 261zM3484 -10C 3444 -10 3408.3335 -1 3377 17C 3345.6667 35 3321 59.666668 3303 91L3303 91L3303 0L3186 0L3186 730L3320 730L3320 432C 3338.6667 464 3363 488.6667 3393 506C 3423.6667 524 3459.3335 533 3500 533C 3534.0002 533 3565.0002 525.6667 3593 511C 3621.0002 496.33334 3645.0002 476.6667 3665 452C 3685.6667 427.33337 3701.3335 398.33337 3712 365C 3723.3335 331.6667 3729 296.6667 3729 260C 3729 222.00002 3722.6667 186.66669 3710 154C 3698.0002 121.333336 3681.0002 92.66667 3659 68C 3637.0002 44 3611.0002 25 3581 11C 3551.0002 -3.0000002 3518.667 -10 3484 -10zM3447 104C 3468.3335 104 3488.0002 108 3506 116C 3524.0002 124.66667 3539.3335 136 3552 150C 3564.6667 164 3574.3335 180.33334 3581 199C 3588.3335 217.66669 3592 237.66669 3592 259C 3592 280.33334 3588.6667 300.6667 3582 320C 3575.3335 339.33334 3565.667 356.33334 3553 371C 3541 385.6667 3526.6667 397.33334 3510 406C 3493.3335 414.6667 3475.0002 419 3455 419C 3425.0002 419 3398.0002 409 3374 389C 3350.6667 369.6667 3332.6667 345.6667 3320 317L3320 317L3320 192C 3324.6667 178.66667 3331.3335 166.66667 3340 156C 3349.3335 145.33334 3359.6667 136 3371 128C 3382.3335 120.66667 3394.6667 114.66667 3408 110C 3421.3335 106 3434.3335 104 3447 104zM3819 121L3819 730L3953 730L3953 168C 3953.0002 148.66667 3957.667 133.66667 3967 123C 3976.3335 112.333336 3989.6667 107 4007 107C 4015.0002 107 4023.667 108.333336 4033 111C 4043 113.66667 4052.3335 117.00001 4061 121L4061 121L4079 19C 4061.0002 10.333334 4040.0002 3.6666667 4016 -1C 3992.0002 -5.666667 3970.3335 -8 3951 -8C 3909 -8 3876.3335 3.0000005 3853 25C 3830.3335 47.66667 3819 79.66667 3819 121zM4379 -10C 4336.3335 -10 4298 -2.666667 4264 12C 4230 26.666668 4201 46.333336 4177 71C 4153.667 96.33334 4135.667 125.33334 4123 158C 4110.3335 190.66667 4104 225 4104 261C 4104 297.6667 4110.3335 332.33334 4123 365C 4135.667 397.6667 4153.667 426.33334 4177 451C 4201 476.33334 4230 496.33334 4264 511C 4298 525.6667 4336.3335 533 4379 533C 4421.667 533 4459.667 525.6667 4493 511C 4527 496.33334 4555.667 476.33334 4579 451C 4603 426.33334 4621.3335 397.6667 4634 365C 4646.667 332.33334 4653 297.6667 4653 261C 4653 225 4646.667 190.66667 4634 158C 4621.3335 125.33334 4603.3335 96.33334 4580 71C 4556.667 46.333336 4528 26.666668 4494 12C 4460 -2.666667 4421.667 -10 4379 -10zM4242 261C 4242 237.66667 4245.3335 216.33334 4252 197C 4259.3335 178.33334 4269 162 4281 148C 4293.667 134 4308.3335 123.00001 4325 115C 4341.667 107.66667 4359.667 104 4379 104C 4398.3335 104 4416.3335 107.66667 4433 115C 4449.667 123.00001 4464 134 4476 148C 4488.667 162 4498.3335 178.66667 4505 198C 4512.3335 217.33334 4516 238.66669 4516 262C 4516 284.6667 4512.3335 305.6667 4505 325C 4498.3335 344.33334 4488.667 361 4476 375C 4464 389 4449.667 399.6667 4433 407C 4416.3335 415 4398.3335 419 4379 419C 4359.667 419 4341.667 415 4325 407C 4308.3335 399 4293.667 388 4281 374C 4269 360 4259.3335 343.33334 4252 324C 4245.3335 304.6667 4242 283.6667 4242 261zM4710 262C 4710 298.6667 4716.3335 333.33334 4729 366C 4741.667 398.6667 4760 427.33337 4784 452C 4808 476.6667 4837 496.33334 4871 511C 4905 525.6667 4943.3335 533 4986 533C 5043.3335 533 5092 520.6667 5132 496C 5172.667 471.33334 5203 439 5223 399L5223 399L5092 359C 5080.667 378.33337 5065.667 393.00003 5047 403C 5028.3335 413.6667 5007.667 419 4985 419C 4965.667 419 4947.667 415 4931 407C 4914.3335 399.6667 4899.667 389 4887 375C 4875 361.6667 4865.3335 345.33334 4858 326C 4851.3335 306.6667 4848 285.33334 4848 262C 4848 238.66669 4851.667 217.33334 4859 198C 4866.3335 178.66667 4876 162 4888 148C 4900.667 134 4915.3335 123.00001 4932 115C 4948.667 107.66667 4966.3335 104 4985 104C 5009 104 5031 110 5051 122C 5071.667 134 5086 148.66667 5094 166L5094 166L5225 126C 5207 86 5177.3335 53.333336 5136 28C 5094.667 2.666667 5045 -10 4987 -10C 4944.3335 -10 4906 -2.666667 4872 12C 4838 26.666668 4809 46.333336 4785 71C 4761 96.33334 4742.3335 125.33334 4729 158C 4716.3335 191.33334 4710 226 4710 262zM5808 0L5665 0L5513 227L5441 156L5441 0L5307 0L5307 730L5441 730L5441 287L5651 523L5794 523L5599 301L5808 0zM6063 -10C 6019 -10 5976 -3.0000002 5934 11C 5892 25 5856 45 5826 71L5826 71L5876 155C 5908 132.33334 5939 115.00001 5969 103C 5999.667 91.66667 6030 86 6060 86C 6086.667 86 6107.667 91 6123 101C 6138.3335 111 6146 125.333336 6146 144C 6146 162.66667 6137 176.33334 6119 185C 6101 193.66667 6071.667 203.66667 6031 215C 5997 224.33334 5968 233.33334 5944 242C 5920 250.66667 5900.667 260.33334 5886 271C 5871.3335 282.33334 5860.667 295 5854 309C 5847.3335 323.6667 5844 341 5844 361C 5844 387.6667 5849 411.6667 5859 433C 5869.667 454.33334 5884.3335 472.33334 5903 487C 5921.667 502.33334 5943.3335 514 5968 522C 5993.3335 530 6020.667 534 6050 534C 6089.3335 534 6126 528.3334 6160 517C 6194.667 505.6667 6226.3335 487.33334 6255 462L6255 462L6201 381C 6174.3335 401 6148.3335 415.6667 6123 425C 6098.3335 434.33337 6073.667 439.00003 6049 439C 6026.3335 439.00003 6007.3335 434.33337 5992 425C 5976.667 415.6667 5969 400.6667 5969 380C 5969 370.6667 5970.667 363 5974 357C 5978 351 5984 345.6667 5992 341C 6000 336.33334 6010.3335 331.6667 6023 327C 6036.3335 323 6052.667 318.6667 6072 314C 6108 304.6667 6138.667 295.33334 6164 286C 6190 276.6667 6211 266 6227 254C 6243.667 242.00002 6255.667 228.00002 6263 212C 6271 196.66667 6275 178 6275 156C 6275 104.66667 6256 64 6218 34C 6180 4.666667 6128.3335 -10 6063 -10z" stroke="none" fill="#FFFFFF" fill-rule="nonzero" />
			</g>
		</g>
	</g>
</g>
</svg>