<?xml version="1.0" standalone="no"?>
<!DOCTYPE svg PUBLIC "-//W3C//DTD SVG 1.0//EN" "http://www.w3.org/TR/2001/REC-SVG-20010904/DTD/svg10.dtd">
<svg xmlns="http://www.w3.org/2000/svg" xmlns:xlink="http://www.w3.org/1999/xlink" id="body_1" width="800" height="800">

<g transform="matrix(0.118299514 0 0 0.118299514 192.59161 507.9497)">
	<g>
        <path d="M-1628.672 -3408.8962L5133.824 -3408.8962L5133.824 1582.0798L-1628.672 1582.0798z" stroke="none" fill="#606C38" fill-rule="nonzero" />
		<g transform="matrix(22.6328 0 0 22.6328 620.9365 -3214.86)">
			<g>
                <path d="M78.4 66.5C 72.9 71.3 68.5 81.7 68.5 81.7C 68.5 81.7 61.6 70.299995 55.6 66.399994C 46.1 60.299995 42 60.199993 42 60.199993L42 60.199993L42 65C 42 65 49.8 66.2 53.7 69.6C 61.9 76.7 68.5 88.1 68.5 88.1C 68.5 88.1 74.4 75 80.1 70.5C 88.1 64.3 95 65 95 65L95 65L95 60.2C 95 60.1 85.1 60.7 78.4 66.5z" stroke="none" fill="#FFFFFF" fill-rule="nonzero" />
                <path d="M42 80C 35.6 76.4 24.2 75.7 24.2 75.7C 24.2 75.7 32.9 65.6 34.7 58.699997C 37.5 47.9 36.2 44 36.2 44L36.2 44L31.6 45.6C 31.6 45.6 32.9 53.3 31 58C 26.9 67.9 18 77.8 18 77.8C 18 77.8 32.6 79.100006 38.7 82.9C 47.300003 88.3 48.9 94.9 48.9 94.9L48.9 94.9L53.5 93.3C 53.5 93.4 49.7 84.4 42 80z" stroke="none" fill="#FFFFFF" fill-rule="nonzero" />
                <path d="M35.3 36.8C 46.6 35.899998 49.9 33.399998 49.9 33.399998L49.9 33.399998L46.9 29.599998C 46.9 29.599998 40 33.3 34.800003 33C 23.900003 32.4 11.500004 27.4 11.500004 27.4C 11.500004 27.4 15.000004 41.4 13.300004 48.3C 10.9 58.2 5 61.8 5 61.8L5 61.8L8 65.6C 8 65.6 15.5 59.1 17.1 50.5C 18.4 43.4 15.400001 32.5 15.400001 32.5C 15.400001 32.5 28 37.4 35.3 36.8z" stroke="none" fill="#FFFFFF" fill-rule="nonzero" />
                <path d="M37.4 17.8C 44.7 16.699999 54.100002 10.4 54.100002 10.4C 54.100002 10.4 53.500004 23.599998 56.500004 30.199999C 61.100002 40.399998 64.5 42.699997 64.5 42.699997L64.5 42.699997L67.2 38.699997C 67.2 38.699997 61.299995 33.499996 59.899998 28.499996C 56.9 18.2 57.7 5 57.7 5C 57.7 5 45.4 12.8 38.2 13.5C 28 14.5 22.6 10.2 22.6 10.2L22.6 10.2L19.9 14.299999C 19.9 14.2 28.6 19.1 37.4 17.8z" stroke="none" fill="#FFFFFF" fill-rule="nonzero" />
                <path d="M65 60.5C 65 60.5 68.1 53.3 72.4 50.4C 81.4 44.300003 94.3 40.7 94.3 40.7C 94.3 40.7 82.8 31.800001 79.8 25.300001C 75.600006 16.2 77.9 9.700001 77.9 9.700001L77.9 9.700001L73.1 8.500001C 73.1 8.500001 71.2 18.100002 75.299995 25.900002C 78.7 32.300003 87.799995 39.100002 87.799995 39.100002C 87.799995 39.100002 75 42.9 69.6 47.8C 61.3 55.399998 60.199997 59.3 60.199997 59.3L60.199997 59.3L65 60.5z" stroke="none" fill="#FFFFFF" fill-rule="nonzero" />
			</g>
		</g>
		<g>
			<g transform="matrix(1.024 0 -0 -1.024 0 0)">
                <path d="M419 -5C 350.33334 -5 288.33334 10.333334 233 41C 177.66667 72.333336 134 115 102 169C 70.66667 223 55 283.33334 55 350C 55 416.6667 70.66667 477 102 531C 134 585 177.66667 627.3334 233 658C 288.33334 689.3334 350.33334 705 419 705C 487.6667 705 549.6667 689.6667 605 659C 660.3334 628.3334 703.6667 586 735 532C 767 478.00003 783 417.33337 783 350C 783 282.6667 767 222 735 168C 703.6667 114 660.3334 71.666664 605 41C 549.6667 10.333334 487.6667 -5 419 -5zM419 42C 477.6667 42 530.6667 55.333336 578 82C 625.3334 108.66667 662.6667 145.33334 690 192C 717.3334 239.33334 731 292 731 350C 731 408 717.3334 460.33334 690 507C 662.6667 554.3334 625.3334 591.3334 578 618C 530.6667 644.6667 477.6667 658 419 658C 360.33334 658 307 644.6667 259 618C 211.66667 591.3334 174.33334 554.3334 147 507C 119.66667 460.33334 106.00001 408 106 350C 106.00001 292 119.66667 239.33334 147 192C 174.33334 145.33334 211.66667 108.66667 259 82C 307 55.333336 360.33334 42 419 42zM1312 522L1363 522L1127 0L1076 0L841 522L894 522L1102 55L1312 522zM1648 526C 1712.6667 526 1762.3334 509.33337 1797 476C 1831.6667 443.33337 1849.0001 395.00003 1849 331L1849 331L1849 0L1801 0L1801 93C 1784.3334 62.333336 1760 38.333336 1728 21C 1696 4.333333 1657.6667 -4 1613 -4C 1555 -4 1509 9.666667 1475 37C 1441.6667 64.333336 1425 100.333336 1425 145C 1425 188.33334 1440.3334 223.33334 1471 250C 1502.3334 277.33334 1552 291 1620 291L1620 291L1799 291L1799 333C 1799 381.6667 1785.6667 418.6667 1759 444C 1733.0001 469.33334 1694.6667 482 1644 482C 1609.3334 482 1576 476 1544 464C 1512.6667 452 1486 436 1464 416L1464 416L1439 452C 1465 475.33337 1496.3334 493.33337 1533 506C 1569.6667 519.3334 1608.0001 526 1648 526zM1620 37C 1663.3334 37 1700 47 1730 67C 1760.6667 87.00001 1783.6667 116.00001 1799 154L1799 154L1799 252L1621 252C 1569.6667 252 1532.3334 242.66667 1509 224C 1486.3334 205.33334 1475 179.66667 1475 147C 1475 113 1487.6667 86 1513 66C 1538.3334 46.666668 1574 37 1620 37zM2469 742L2519 742L2519 0L2470 0L2470 123C 2449.3335 82.333336 2420.3335 51.000004 2383 29C 2345.6667 7 2303.3335 -4 2256 -4C 2207.3335 -4 2163.3335 7.333333 2124 30C 2084.6667 52.666668 2053.6667 84 2031 124C 2009 164 1998 209.66667 1998 261C 1998 312.33334 2009 358 2031 398C 2053.6667 438.6667 2084.6667 470 2124 492C 2163.3335 514.6667 2207.3335 526 2256 526C 2302.6667 526 2344.3335 515 2381 493C 2418.3335 471.00003 2447.6667 440.33337 2469 401L2469 401L2469 742zM2259 41C 2299 41 2334.6667 50.333336 2366 69C 2398 87.66667 2423 113.66667 2441 147C 2459.6667 180.33334 2469 218.33334 2469 261C 2469 303.6667 2459.6667 341.6667 2441 375C 2423 408.33334 2398 434.33334 2366 453C 2334.6667 471.6667 2299 481.00003 2259 481C 2219 481.00003 2183 471.6667 2151 453C 2119.6667 434.33334 2094.6667 408.33334 2076 375C 2058 341.6667 2049 303.6667 2049 261C 2049 218.33334 2058 180.33334 2076 147C 2094.6667 113.66667 2119.6667 87.66667 2151 69C 2183 50.333336 2219 41 2259 41zM2730 0L2730 522L2780 522L2780 0L2730 0zM2755 649C 2743.6667 649 2734 652.6667 2726 660C 2718 668 2714 677.6667 2714 689C 2714 700.3334 2718 710 2726 718C 2734 726 2743.6667 730 2755 730C 2766.3335 730 2776 726 2784 718C 2792 710.6667 2796 701.3334 2796 690C 2796 678.6667 2792 669 2784 661C 2776 653 2766.3335 649 2755 649zM3167 526C 3231.6667 526 3281.3335 509.33337 3316 476C 3350.667 443.33337 3368.0002 395.00003 3368 331L3368 331L3368 0L3320 0L3320 93C 3303.3335 62.333336 3279 38.333336 3247 21C 3215 4.333333 3176.6667 -4 3132 -4C 3074 -4 3028 9.666667 2994 37C 2960.6667 64.333336 2944 100.333336 2944 145C 2944 188.33334 2959.3335 223.33334 2990 250C 3021.3335 277.33334 3071 291 3139 291L3139 291L3318 291L3318 333C 3318 381.6667 3304.6667 418.6667 3278 444C 3252.0002 469.33334 3213.667 482 3163 482C 3128.3335 482 3095 476 3063 464C 3031.6667 452 3005 436 2983 416L2983 416L2958 452C 2984 475.33337 3015.3335 493.33337 3052 506C 3088.667 519.3334 3127.0002 526 3167 526zM3139 37C 3182.3335 37 3219 47 3249 67C 3279.6667 87.00001 3302.6667 116.00001 3318 154L3318 154L3318 252L3140 252C 3088.6667 252 3051.3335 242.66667 3028 224C 3005.3335 205.33334 2994 179.66667 2994 147C 2994 113 3006.6667 86 3032 66C 3057.3335 46.666668 3093 37 3139 37z" stroke="none" fill="#FFFFFF" fill-rule="nonzero" />
			</g>
		</g>
		<g transform="matrix(1 0 0 1 -1362.432 1072.128)">
			<g transform="matrix(1.024 0 -0 -1.024 0 0)">
                <path d="M1008 700L1058 700L821 0L767 0L550 628L332 0L278 0L40 700L94 700L307 70L526 700L575 700L793 69L1008 700zM1646 263L1645 249L1196 249C 1197.3334 208.33334 1207.6667 172 1227 140C 1246.3334 108.66667 1272.3334 84.333336 1305 67C 1338.3334 49.666668 1375.6667 41 1417 41C 1451 41 1482.3334 47 1511 59C 1540.3335 71.66667 1564.6667 90 1584 114L1584 114L1613 81C 1590.3335 53.666668 1561.6667 32.666668 1527 18C 1493 3.3333333 1456 -4 1416 -4C 1364 -4 1317.6667 7.333333 1277 30C 1236.3334 52.666668 1204.3334 84 1181 124C 1158.3334 164 1147 209.66667 1147 261C 1147 311.6667 1157.6667 357 1179 397C 1201 437.6667 1231 469.33334 1269 492C 1307 514.6667 1349.6667 526 1397 526C 1444.3334 526 1486.6667 514.6667 1524 492C 1562 470 1591.6667 439 1613 399C 1635 359 1646 313.6667 1646 263zM1397 482C 1360.3334 482 1327.3334 473.6667 1298 457C 1268.6667 441.00003 1245 418.00003 1227 388C 1209.6667 358.6667 1199.6667 325.33334 1197 288L1197 288L1597 288C 1595.0001 325.33334 1585.0001 358.6667 1567 388C 1549.0001 417.33334 1525.3335 440.33334 1496 457C 1466.6667 473.6667 1433.6667 482 1397 482zM2063 526C 2111.6667 526 2155.6667 514.6667 2195 492C 2234.3335 470 2265 438.6667 2287 398C 2309.6667 358 2321 312.33334 2321 261C 2321 209.66667 2309.6667 164 2287 124C 2265 84 2234.3335 52.666668 2195 30C 2155.6667 7.333333 2111.6667 -4 2063 -4C 2016.3335 -4 1974.0001 7 1936 29C 1898.6667 51.666668 1869.6667 83 1849 123L1849 123L1849 0L1801 0L1801 742L1851 742L1851 403C 1871.6667 441.6667 1900.6667 471.6667 1938 493C 1975.3334 515 2017 526 2063 526zM2060 41C 2100 41 2136 50.333336 2168 69C 2200 87.66667 2225 113.66667 2243 147C 2261.6667 180.33334 2271 218.33334 2271 261C 2271 303.6667 2261.6667 341.6667 2243 375C 2225 408.33334 2200 434.33334 2168 453C 2136 471.6667 2100 481.00003 2060 481C 2020 481.00003 1984 471.6667 1952 453C 1920.6667 434.33334 1895.6667 408.33334 1877 375C 1859 341.6667 1850 303.6667 1850 261C 1850 218.33334 1859 180.33334 1877 147C 1895.6667 113.66667 1920.6667 87.66667 1952 69C 1984 50.333336 2020 41 2060 41zM2749 0L2749 700L3026 700C 3098.6667 700 3163 685 3219 655C 3275.6667 625 3319.6667 583.3334 3351 530C 3382.3335 477.33337 3398.0002 417.33337 3398 350C 3398.0002 282.6667 3382.3335 222.33334 3351 169C 3319.6667 116.333336 3275.6667 75 3219 45C 3163 15 3098.6667 0 3026 0L3026 0L2749 0zM2800 46L3022 46C 3086.667 46 3143.667 58.666668 3193 84C 3242.3335 110 3280.3335 146 3307 192C 3333.667 238 3347.0002 290.6667 3347 350C 3347.0002 409.33337 3333.667 462.00003 3307 508C 3280.3335 554 3242.3335 589.6667 3193 615C 3143.667 641 3086.667 654 3022 654L3022 654L2800 654L2800 46zM4001 263L4000 249L3551 249C 3552.3335 208.33334 3562.6667 172 3582 140C 3601.3335 108.66667 3627.3335 84.333336 3660 67C 3693.3335 49.666668 3730.667 41 3772 41C 3806 41 3837.3335 47 3866 59C 3895.3335 71.66667 3919.6667 90 3939 114L3939 114L3968 81C 3945.3335 53.666668 3916.6667 32.666668 3882 18C 3848 3.3333333 3811 -4 3771 -4C 3719 -4 3672.6667 7.333333 3632 30C 3591.3335 52.666668 3559.3335 84 3536 124C 3513.3335 164 3502 209.66667 3502 261C 3502 311.6667 3512.6667 357 3534 397C 3556 437.6667 3586 469.33334 3624 492C 3662 514.6667 3704.6667 526 3752 526C 3799.3335 526 3841.6667 514.6667 3879 492C 3917 470 3946.6667 439 3968 399C 3990.0002 359 4001.0002 313.6667 4001 263zM3752 482C 3715.3335 482 3682.3335 473.6667 3653 457C 3623.6667 441.00003 3600 418.00003 3582 388C 3564.6667 358.6667 3554.6667 325.33334 3552 288L3552 288L3952 288C 3950 325.33334 3940 358.6667 3922 388C 3904 417.33334 3880.3335 440.33334 3851 457C 3821.6667 473.6667 3788.6667 482 3752 482zM4288 -4C 4246 -4 4206 2.3333333 4168 15C 4130 27.666668 4100.3335 43.666668 4079 63L4079 63L4102 103C 4123.3335 85 4150.667 70 4184 58C 4218 46 4253.3335 40 4290 40C 4342.667 40 4381.3335 48.666668 4406 66C 4431.3335 83.333336 4444 107.333336 4444 138C 4444 160 4437 177.33334 4423 190C 4409.667 202.66669 4393 212.00002 4373 218C 4353 224.00002 4325.3335 230.33334 4290 237C 4248.667 244.33334 4215.3335 252.33334 4190 261C 4164.667 269.6667 4143 283.6667 4125 303C 4107 322.33334 4098 349 4098 383C 4098 424.33337 4115 458.33337 4149 485C 4183.667 512.3334 4232.667 526 4296 526C 4329.3335 526 4362.3335 521.3334 4395 512C 4427.667 502.6667 4454.3335 490.33334 4475 475L4475 475L4452 435C 4430.667 450.33334 4406.3335 462 4379 470C 4351.667 478 4323.667 482 4295 482C 4246.3335 482 4209.667 473 4185 455C 4160.3335 437 4148 413.33334 4148 384C 4148 360.6667 4155 342.33334 4169 329C 4183 316.33334 4200 306.6667 4220 300C 4240.667 294 4269.3335 287.33334 4306 280C 4346.667 272.6667 4379.3335 264.6667 4404 256C 4429.3335 248 4450.667 234.66667 4468 216C 4485.3335 197.33334 4494 171.66667 4494 139C 4494 95.66667 4476 61.000004 4440 35C 4404 9 4353.3335 -4 4288 -4zM4634 0L4634 522L4684 522L4684 0L4634 0zM4659 649C 4647.667 649 4638 652.6667 4630 660C 4622 668 4618 677.6667 4618 689C 4618 700.3334 4622 710 4630 718C 4638 726 4647.667 730 4659 730C 4670.3335 730 4680 726 4688 718C 4696 710.6667 4700 701.3334 4700 690C 4700 678.6667 4696 669 4688 661C 4680 653 4670.3335 649 4659 649zM5317 522L5365 522L5365 56C 5365 -30.666668 5344 -94.66667 5302 -136C 5260 -177.33334 5196.667 -198 5112 -198C 5064 -198 5018.667 -190.66667 4976 -176C 4933.3335 -161.33334 4899 -141 4873 -115L4873 -115L4900 -77C 4926 -101 4957.3335 -119.66667 4994 -133C 5030.667 -146.33334 5069.667 -153 5111 -153C 5180.3335 -153 5231.667 -136.66667 5265 -104C 5298.3335 -70.66667 5315 -19.333332 5315 50L5315 50L5315 138C 5293.667 100 5264 70.66667 5226 50C 5188 29.333336 5145.3335 19 5098 19C 5049.3335 19 5005 29.666668 4965 51C 4925.667 73 4894.667 103.333336 4872 142C 4849.3335 180.66669 4838 224.33334 4838 273C 4838 321.6667 4849.3335 365.33334 4872 404C 4894.667 442.6667 4925.667 472.6667 4965 494C 5005 515.3334 5049.3335 526 5098 526C 5146 526 5189.3335 515.3334 5228 494C 5266.667 472.6667 5296.3335 442.6667 5317 404L5317 404L5317 522zM5102 64C 5142.667 64 5179.3335 72.66667 5212 90C 5244.667 108 5270 132.66667 5288 164C 5306.667 196.00002 5316 232.33334 5316 273C 5316 313.6667 5306.667 349.6667 5288 381C 5270 412.33334 5244.667 436.6667 5212 454C 5179.3335 472.00003 5142.667 481.00003 5102 481C 5061.3335 481.00003 5024.667 472.00003 4992 454C 4960 436.6667 4934.667 412.33334 4916 381C 4898 349.6667 4889 313.6667 4889 273C 4889 232.33334 4898 196.00002 4916 164C 4934.667 132.66667 4960 108 4992 90C 5024.667 72.66667 5061.3335 64 5102 64zM5832 526C 5897.3335 526 5949 507.00003 5987 469C 6025 431.00003 6044 376.33337 6044 305L6044 305L6044 0L5994 0L5994 301C 5994 359.6667 5979 404.33334 5949 435C 5919.667 465.6667 5878.3335 481.00003 5825 481C 5763.667 481.00003 5715.3335 462.6667 5680 426C 5644.667 389.33334 5627 340 5627 278L5627 278L5627 0L5577 0L5577 522L5625 522L5625 409C 5643 445.6667 5669.667 474.33334 5705 495C 5741 515.6667 5783.3335 526 5832 526z" stroke="none" fill="#FFFFFF" fill-rule="nonzero" />
			</g>
		</g>
	</g>
</g>
</svg>