<?xml version="1.0" standalone="no"?>
<!DOCTYPE svg PUBLIC "-//W3C//DTD SVG 1.0//EN" "http://www.w3.org/TR/2001/REC-SVG-20010904/DTD/svg10.dtd">
<svg xmlns="http://www.w3.org/2000/svg" xmlns:xlink="http://www.w3.org/1999/xlink" id="body_1" width="800" height="800">

<g transform="matrix(0.09661406 0 0 0.09661406 19.322813 437.82248)">
	<g>
        <path d="M-200.704 -1603.2001L8079.664 -1603.2001L8079.664 819.83997L-200.704 819.83997z" stroke="none" fill="#FDB833" fill-rule="nonzero" />
		<g transform="matrix(64.596 0 0 64.596 5899.18 -1360.6445)">
            <path d="M28.832 15.546C 28.937 15.386 29 15.198 29 15C 29 14.632 28.798 14.294 28.473999 14.12L28.473999 14.12L26.487999 13.05L15.468999 18.884C 15.321 18.961 15.161 19 15 19C 14.839 19 14.679 18.961 14.532 18.884L14.532 18.884L3.513 13.05L1.5270001 14.12C 1.202 14.294 1 14.632 1 15C 1 15.198 1.063 15.386 1.168 15.546L1.168 15.546L15 22.869L28.832 15.546z" stroke="none" fill="#292929" fill-rule="nonzero" />
            <path d="M28.474 20.12L26.488 19.050001L15.468 24.884C 15.321 24.962 15.161 25 15 25C 14.839 25 14.679 24.961 14.532 24.884L14.532 24.884L3.513 19.05L1.5270001 20.119999C 1.202 20.294 1 20.632 1 21C 1 21.368 1.202 21.706 1.526 21.88L1.526 21.88L14.526 28.88C 14.674 28.96 14.837 29 15 29C 15.163 29 15.326 28.96 15.474 28.88L15.474 28.88L28.473999 21.88C 28.798 21.706 29 21.368 29 21C 29 20.632 28.798 20.294 28.474 20.12z" stroke="none" fill="#292929" fill-rule="nonzero" />
            <path d="M15 16.869L28.832 9.546C 28.937 9.385 29 9.198 29 9C 29 8.632 28.798 8.294 28.473999 8.12L28.473999 8.12L15.473999 1.1199999C 15.178999 0.9609999 14.821999 0.9609999 14.5269985 1.1199999L14.5269985 1.1199999L1.5269985 8.12C 1.202 8.294 1 8.632 1 9C 1 9.198 1.063 9.385 1.168 9.546L1.168 9.546L15 16.869z" stroke="none" fill="#292929" fill-rule="nonzero" />
		</g>
		<g>
			<g transform="matrix(1.024 0 -0 -1.024 0 0)">
                <path d="M104 723L290 723C 362.6667 723 419.6667 708 461 678C 503 648.6667 524 602.6667 524 540C 524 502 515.3334 469 498 441C 480.6667 413 456.33337 391 425 375C 394.33334 359 358 350 316 348L316 348L302 398C 350.6667 396.6667 394.33334 388 433 372C 471.6667 356 502.33334 333.6667 525 305C 547.6667 276.33334 559 242.33334 559 203C 559 167 552.3334 136 539 110C 525.6667 84.66667 507.6667 63.666668 485 47C 462.33337 31 436.6667 19 408 11C 379.33334 3.6666667 349.6667 0 319 0L319 0L104 0L104 723zM201 406L310 406C 350 406.00003 379 417.00003 397 439C 415.00003 461.6667 424.00003 489 424 521C 424.00003 559 412.33337 586.6667 389 604C 365.6667 621.3334 334.33334 630 295 630L295 630L201 630L201 406zM201 90L314 90C 340.6667 90 365 94 387 102C 409.6667 110 427.33337 122.333336 440 139C 453.33337 155.66667 460.00003 176.66667 460 202C 460.00003 230 452.33337 252 437 268C 422.33337 284 403.33337 295.33334 380 302C 356.6667 309.33334 332.6667 313 308 313L308 313L201 313L201 90zM699 0L699 414L792 414L792 0L699 0zM692 564C 692 578.6667 697.6667 591 709 601C 721 611 734 616 748 616C 762 616 774.3334 611 785 601C 796.3334 591 802 578.6667 802 564C 802 548.6667 796.3334 536 785 526C 774.3334 516.6667 762 512 748 512C 734 512 721 517 709 527C 697.6667 537 692 549.3334 692 564zM953 0L953 774L1046 774L1046 0L953 0zM1207 0L1207 774L1300 774L1300 0L1207 0zM1461 0L1461 414L1554 414L1554 0L1461 0zM1454 564C 1454 578.6667 1459.6667 591 1471 601C 1483 611 1496 616 1510 616C 1524 616 1536.3334 611 1547 601C 1558.3335 591 1564.0001 578.6667 1564 564C 1564.0001 548.6667 1558.3335 536 1547 526C 1536.3334 516.6667 1524 512 1510 512C 1496 512 1483 517 1471 527C 1459.6667 537 1454 549.3334 1454 564zM1679 211C 1679 252.33334 1688.6667 289.6667 1708 323C 1728.0001 356.33334 1755.3335 382.6667 1790 402C 1824.6667 421.33334 1864 431 1908 431C 1953.3334 431 1993 421.33334 2027 402C 2061 382.6667 2087.3335 356.33334 2106 323C 2124.6667 289.6667 2134 252.33334 2134 211C 2134 169.66667 2124.6667 132 2106 98C 2087.3335 64.66667 2060.6667 38.333332 2026 19C 1992.0001 -0.3333335 1952.3335 -10 1907 -10C 1863 -10 1823.6667 -1 1789 17C 1755.0001 35.666668 1728.0001 61.333336 1708 94C 1688.6667 127.333336 1679 166.33334 1679 211zM1772 210C 1772 183.33334 1778 159 1790 137C 1802 115.66667 1818 98.66667 1838 86C 1858.6667 73.333336 1881.3334 67 1906 67C 1932.0001 67 1955.0001 73.333336 1975 86C 1995.6667 98.66667 2011.6667 115.66667 2023 137C 2034.3334 159 2040 183.33334 2040 210C 2040 236.66667 2034.3334 260.6667 2023 282C 2011.6667 304 1995.6667 321.33334 1975 334C 1955.0001 347.33334 1932.0001 354 1906 354C 1880.6667 354 1857.6667 347.33334 1837 334C 1817.0001 320.6667 1801.0001 303 1789 281C 1777.6667 259.6667 1772 236 1772 210zM2260 414L2343 414L2351 313L2347 329C 2360.3335 359.6667 2382 384 2412 402C 2442 420.6667 2476.6667 430.00003 2516 430C 2555.3335 430.00003 2587.3335 418.33337 2612 395C 2637.3335 372.33334 2650.3335 342.6667 2651 306L2651 306L2651 0L2557 0L2557 273C 2556.3335 295.6667 2549.6667 314 2537 328C 2525 342.6667 2506 350 2480 350C 2456 350 2434.3335 343.33334 2415 330C 2395.6667 316.6667 2380.3335 298.33334 2369 275C 2358.3335 251.66667 2353 224.66667 2353 194L2353 194L2353 0L2260 0L2260 414zM3402 354L3402 62C 3392 53.333336 3378 44.666668 3360 36C 3342 28 3322 20.666668 3300 14C 3278.6667 7.333334 3256.3335 2 3233 -2C 3210.3335 -6 3189 -8 3169 -8C 3111 -8 3058.6667 1 3012 19C 2966 37 2926.3335 62 2893 94C 2860.3335 126.00001 2835 163.66667 2817 207C 2799.6667 250.33334 2791 297.33334 2791 348C 2791 408 2800.6667 461.6667 2820 509C 2840 557 2867 597.3334 2901 630C 2935.6667 663.3334 2975.3335 688.3334 3020 705C 3064.6667 722.3334 3112 731 3162 731C 3204 731 3243 726 3279 716C 3315 706 3346.6667 693.3334 3374 678L3374 678L3341 589C 3327.6667 597 3311 604.3334 3291 611C 3271.6667 617.6667 3251.6667 623 3231 627C 3210.3335 631.6667 3191.0002 634 3173 634C 3130.3335 634 3091.6667 627.3334 3057 614C 3022.3335 601.3334 2992.6667 582.6667 2968 558C 2943.3335 534 2924.3335 504.6667 2911 470C 2897.6667 436 2891 397.6667 2891 355C 2891 315.6667 2897.6667 279.6667 2911 247C 2924.3335 214.33334 2943.3335 186 2968 162C 2992.6667 138.66667 3022 120.33334 3056 107C 3090.6667 94.333336 3128.6667 88 3170 88C 3194.6667 88 3219 90.333336 3243 95C 3267 100.33334 3287.6667 107.66667 3305 117L3305 117L3305 261L3161 261L3161 354L3402 354zM3564 414L3647 414L3656 294L3651 310C 3661.6667 335.33334 3677 356.6667 3697 374C 3717.667 392 3739.0002 405.6667 3761 415C 3783.6667 425.00003 3803.3335 430.00003 3820 430L3820 430L3815 338C 3783.6667 340 3756 334 3732 320C 3708.6667 306 3690 287.33334 3676 264C 3662.667 240.66667 3656.0002 215.66667 3656 189L3656 189L3656 0L3564 0L3564 414zM4112 -10C 4073.3335 -10 4038 -1.666667 4006 15C 3974.667 31.666668 3949.667 56 3931 88C 3913 120.66667 3904 160.33334 3904 207C 3904 253 3913.6667 292.6667 3933 326C 3952.3335 360 3978.0002 386 4010 404C 4042.6667 422 4078.3335 431 4117 431C 4155.667 431 4188.3335 422 4215 404C 4241.667 386.6667 4262 366 4276 342L4276 342L4270 326L4279 414L4365 414L4365 0L4272 0L4272 108L4282 84C 4279.3335 77.333336 4273.3335 68.66667 4264 58C 4255.3335 48 4243.3335 37.666668 4228 27C 4213.3335 16.333334 4196.3335 7.3333335 4177 0C 4157.667 -6.666667 4136 -10 4112 -10zM4137 67C 4160.3335 67 4181.3335 71.333336 4200 80C 4218.667 88.66667 4234 100.66667 4246 116C 4258.667 132 4267.3335 151 4272 173L4272 173L4272 254C 4266.667 274 4257.3335 291.33334 4244 306C 4230.667 321.33334 4214.667 333 4196 341C 4177.3335 349.6667 4156.667 354 4134 354C 4109.3335 354 4086.667 348 4066 336C 4045.3335 324 4028.6667 307.33334 4016 286C 4004.0002 264.6667 3998.0002 239.66669 3998 211C 3998.0002 184.33334 4004.3335 160 4017 138C 4029.6667 116 4046.6667 98.66667 4068 86C 4089.3335 73.333336 4112.3335 67 4137 67zM4653 0L4560 0L4560 331L4489 331L4489 414L4560 414L4560 589C 4560 649 4573.3335 695 4600 727C 4627.3335 759 4667.3335 775 4720 775C 4734 775 4749.3335 773 4766 769C 4783.3335 765 4798.3335 758.3334 4811 749L4811 749L4772 682C 4766 688 4759.3335 692 4752 694C 4744.667 696.6667 4737.3335 698 4730 698C 4705.3335 698 4686.3335 689.6667 4673 673C 4659.667 656.3334 4653 628 4653 588L4653 588L4653 414L4784 414L4784 331L4653 331L4653 0zM4905 0L4905 414L4998 414L4998 0L4905 0zM4898 564C 4898 578.6667 4903.667 591 4915 601C 4927 611 4940 616 4954 616C 4968 616 4980.3335 611 4991 601C 5002.3335 591 5008 578.6667 5008 564C 5008 548.6667 5002.3335 536 4991 526C 4980.3335 516.6667 4968 512 4954 512C 4940 512 4927 517 4915 527C 4903.667 537 4898 549.3334 4898 564zM5349 192L5315 260L5414 414L5508 414L5349 192zM5212 414L5524 0L5412 0L5097 414L5212 414zM5260 216L5305 154L5196 0L5102 0L5260 216z" stroke="none" fill="#292929" fill-rule="nonzero" />
			</g>
		</g>
	</g>
</g>
</svg>