<svg version="1.1" xmlns="http://www.w3.org/2000/svg" viewBox="-1628.6719886779786 -3408.8961425781245 6762.49619140625 4990.976196289062"><desc>Created with Snap</desc><defs></defs><g><rect x="-1628.6719886779786" y="-3408.8961425781245" width="6762.49619140625" height="4990.976196289062" fill="#606c38" style=""></rect><g transform="matrix(22.6328,0,0,22.6328,620.9365,-3214.8601)"><g><path d="M78.4,66.5c-5.5,4.8-9.9,15.2-9.9,15.2s-6.9-11.4-12.9-15.3c-9.5-6.1-13.6-6.2-13.6-6.2V65c0,0,7.8,1.2,11.7,4.6   c8.2,7.1,14.8,18.5,14.8,18.5S74.4,75,80.1,70.5C88.1,64.3,95,65,95,65v-4.8C95,60.1,85.1,60.7,78.4,66.5z" fill="#ffffff" style=""></path><path d="M42,80c-6.4-3.6-17.8-4.3-17.8-4.3s8.7-10.1,10.5-17C37.5,47.9,36.2,44,36.2,44l-4.6,1.6c0,0,1.3,7.7-0.6,12.4   c-4.1,9.9-13,19.8-13,19.8s14.6,1.3,20.7,5.1c8.6,5.4,10.2,12,10.2,12l4.6-1.6C53.5,93.4,49.7,84.4,42,80z" fill="#ffffff" style=""></path><path d="M35.3,36.8c11.3-0.9,14.6-3.4,14.6-3.4l-3-3.8c0,0-6.9,3.7-12.1,3.4c-10.9-0.6-23.3-5.6-23.3-5.6s3.5,14,1.8,20.9   C10.9,58.2,5,61.8,5,61.8l3,3.8c0,0,7.5-6.5,9.1-15.1c1.3-7.1-1.7-18-1.7-18S28,37.4,35.3,36.8z" fill="#ffffff" style=""></path><path d="M37.4,17.8c7.3-1.1,16.7-7.4,16.7-7.4s-0.6,13.2,2.4,19.8c4.6,10.2,8,12.5,8,12.5l2.7-4c0,0-5.9-5.2-7.3-10.2   C56.9,18.2,57.7,5,57.7,5s-12.3,7.8-19.5,8.5c-10.2,1-15.6-3.3-15.6-3.3l-2.7,4.1C19.9,14.2,28.6,19.1,37.4,17.8z" fill="#ffffff" style=""></path><path d="M65,60.5c0,0,3.1-7.2,7.4-10.1c9-6.1,21.9-9.7,21.9-9.7s-11.5-8.9-14.5-15.4c-4.2-9.1-1.9-15.6-1.9-15.6l-4.8-1.2   c0,0-1.9,9.6,2.2,17.4c3.4,6.4,12.5,13.2,12.5,13.2S75,42.9,69.6,47.8c-8.3,7.6-9.4,11.5-9.4,11.5L65,60.5z" fill="#ffffff" style=""></path></g><desc>Created with Snap</desc><defs></defs></g><g><g transform="matrix(1.024,0,0,-1.024,0,0)"><path d="M419 -5Q316 -5 233 41Q150 88 102 169Q55 250 55 350Q55 450 102 531Q150 612 233 658Q316 705 419 705Q522 705 605 659Q688 613 735 532Q783 451 783 350Q783 249 735 168Q688 87 605 41Q522 -5 419 -5ZM419 42Q507 42 578 82Q649 122 690 192Q731 263 731 350Q731 437 690 507Q649 578 578 618Q507 658 419 658Q331 658 259 618Q188 578 147 507Q106 437 106 350Q106 263 147 192Q188 122 259 82Q331 42 419 42ZM1312 522L1363 522L1127 0L1076 0L841 522L894 522L1102 55L1312 522ZM1648 526Q1745 526 1797 476Q1849 427 1849 331L1849 0L1801 0L1801 93Q1776 47 1728 21Q1680 -4 1613 -4Q1526 -4 1475 37Q1425 78 1425 145Q1425 210 1471 250Q1518 291 1620 291L1799 291L1799 333Q1799 406 1759 444Q1720 482 1644 482Q1592 482 1544 464Q1497 446 1464 416L1439 452Q1478 487 1533 506Q1588 526 1648 526ZM1620 37Q1685 37 1730 67Q1776 97 1799 154L1799 252L1621 252Q1544 252 1509 224Q1475 196 1475 147Q1475 96 1513 66Q1551 37 1620 37ZM2469 742L2519 742L2519 0L2470 0L2470 123Q2439 62 2383 29Q2327 -4 2256 -4Q2183 -4 2124 30Q2065 64 2031 124Q1998 184 1998 261Q1998 338 2031 398Q2065 459 2124 492Q2183 526 2256 526Q2326 526 2381 493Q2437 460 2469 401L2469 742ZM2259 41Q2319 41 2366 69Q2414 97 2441 147Q2469 197 2469 261Q2469 325 2441 375Q2414 425 2366 453Q2319 481 2259 481Q2199 481 2151 453Q2104 425 2076 375Q2049 325 2049 261Q2049 197 2076 147Q2104 97 2151 69Q2199 41 2259 41ZM2730 0L2730 522L2780 522L2780 0L2730 0ZM2755 649Q2738 649 2726 660Q2714 672 2714 689Q2714 706 2726 718Q2738 730 2755 730Q2772 730 2784 718Q2796 707 2796 690Q2796 673 2784 661Q2772 649 2755 649ZM3167 526Q3264 526 3316 476Q3368 427 3368 331L3368 0L3320 0L3320 93Q3295 47 3247 21Q3199 -4 3132 -4Q3045 -4 2994 37Q2944 78 2944 145Q2944 210 2990 250Q3037 291 3139 291L3318 291L3318 333Q3318 406 3278 444Q3239 482 3163 482Q3111 482 3063 464Q3016 446 2983 416L2958 452Q2997 487 3052 506Q3107 526 3167 526ZM3139 37Q3204 37 3249 67Q3295 97 3318 154L3318 252L3140 252Q3063 252 3028 224Q2994 196 2994 147Q2994 96 3032 66Q3070 37 3139 37Z" fill="#ffffff" style=""></path></g></g><g transform="matrix(1,0,0,1,-1362.432,1072.128)"><g transform="matrix(1.024,0,0,-1.024,0,0)"><path d="M1008 700L1058 700L821 0L767 0L550 628L332 0L278 0L40 700L94 700L307 70L526 700L575 700L793 69L1008 700ZM1646 263L1645 249L1196 249Q1198 188 1227 140Q1256 93 1305 67Q1355 41 1417 41Q1468 41 1511 59Q1555 78 1584 114L1613 81Q1579 40 1527 18Q1476 -4 1416 -4Q1338 -4 1277 30Q1216 64 1181 124Q1147 184 1147 261Q1147 337 1179 397Q1212 458 1269 492Q1326 526 1397 526Q1468 526 1524 492Q1581 459 1613 399Q1646 339 1646 263ZM1397 482Q1342 482 1298 457Q1254 433 1227 388Q1201 344 1197 288L1597 288Q1594 344 1567 388Q1540 432 1496 457Q1452 482 1397 482ZM2063 526Q2136 526 2195 492Q2254 459 2287 398Q2321 338 2321 261Q2321 184 2287 124Q2254 64 2195 30Q2136 -4 2063 -4Q1993 -4 1936 29Q1880 63 1849 123L1849 0L1801 0L1801 742L1851 742L1851 403Q1882 461 1938 493Q1994 526 2063 526ZM2060 41Q2120 41 2168 69Q2216 97 2243 147Q2271 197 2271 261Q2271 325 2243 375Q2216 425 2168 453Q2120 481 2060 481Q2000 481 1952 453Q1905 425 1877 375Q1850 325 1850 261Q1850 197 1877 147Q1905 97 1952 69Q2000 41 2060 41ZM2749 0L2749 700L3026 700Q3135 700 3219 655Q3304 610 3351 530Q3398 451 3398 350Q3398 249 3351 169Q3304 90 3219 45Q3135 0 3026 0L2749 0ZM2800 46L3022 46Q3119 46 3193 84Q3267 123 3307 192Q3347 261 3347 350Q3347 439 3307 508Q3267 577 3193 615Q3119 654 3022 654L2800 654L2800 46ZM4001 263L4000 249L3551 249Q3553 188 3582 140Q3611 93 3660 67Q3710 41 3772 41Q3823 41 3866 59Q3910 78 3939 114L3968 81Q3934 40 3882 18Q3831 -4 3771 -4Q3693 -4 3632 30Q3571 64 3536 124Q3502 184 3502 261Q3502 337 3534 397Q3567 458 3624 492Q3681 526 3752 526Q3823 526 3879 492Q3936 459 3968 399Q4001 339 4001 263ZM3752 482Q3697 482 3653 457Q3609 433 3582 388Q3556 344 3552 288L3952 288Q3949 344 3922 388Q3895 432 3851 457Q3807 482 3752 482ZM4288 -4Q4225 -4 4168 15Q4111 34 4079 63L4102 103Q4134 76 4184 58Q4235 40 4290 40Q4369 40 4406 66Q4444 92 4444 138Q4444 171 4423 190Q4403 209 4373 218Q4343 227 4290 237Q4228 248 4190 261Q4152 274 4125 303Q4098 332 4098 383Q4098 445 4149 485Q4201 526 4296 526Q4346 526 4395 512Q4444 498 4475 475L4452 435Q4420 458 4379 470Q4338 482 4295 482Q4222 482 4185 455Q4148 428 4148 384Q4148 349 4169 329Q4190 310 4220 300Q4251 291 4306 280Q4367 269 4404 256Q4442 244 4468 216Q4494 188 4494 139Q4494 74 4440 35Q4386 -4 4288 -4ZM4634 0L4634 522L4684 522L4684 0L4634 0ZM4659 649Q4642 649 4630 660Q4618 672 4618 689Q4618 706 4630 718Q4642 730 4659 730Q4676 730 4688 718Q4700 707 4700 690Q4700 673 4688 661Q4676 649 4659 649ZM5317 522L5365 522L5365 56Q5365 -74 5302 -136Q5239 -198 5112 -198Q5040 -198 4976 -176Q4912 -154 4873 -115L4900 -77Q4939 -113 4994 -133Q5049 -153 5111 -153Q5215 -153 5265 -104Q5315 -54 5315 50L5315 138Q5283 81 5226 50Q5169 19 5098 19Q5025 19 4965 51Q4906 84 4872 142Q4838 200 4838 273Q4838 346 4872 404Q4906 462 4965 494Q5025 526 5098 526Q5170 526 5228 494Q5286 462 5317 404L5317 522ZM5102 64Q5163 64 5212 90Q5261 117 5288 164Q5316 212 5316 273Q5316 334 5288 381Q5261 428 5212 454Q5163 481 5102 481Q5041 481 4992 454Q4944 428 4916 381Q4889 334 4889 273Q4889 212 4916 164Q4944 117 4992 90Q5041 64 5102 64ZM5832 526Q5930 526 5987 469Q6044 412 6044 305L6044 0L5994 0L5994 301Q5994 389 5949 435Q5905 481 5825 481Q5733 481 5680 426Q5627 371 5627 278L5627 0L5577 0L5577 522L5625 522L5625 409Q5652 464 5705 495Q5759 526 5832 526Z" fill="#ffffff" style=""></path></g></g></g></svg>