<svg version="1.1" xmlns="http://www.w3.org/2000/svg" viewBox="-2258.65 -1495.325 6978.849999999999 2299.65"><desc>Created with Snap</desc><defs></defs><g><rect x="-2258.65" y="-1495.325" width="6978.849999999999" height="2299.65" fill="#3c787e" style=""></rect><g transform="matrix(5.7714,0,0,5.7714,-2072.6495,-1309.3245)">
<g>
	<path fill-rule="evenodd" clip-rule="evenodd" d="M167,21l52,30v60l-43,25v21h22l24-43h61l30,53l-30,52h-61l-24-43h-22v22l43,24v61
		l-52,30l-53-30v-61l43-24v-22h-21l-25,43H51l-30-52l30-53h60l25,43h21v-21l-43-25V51L167,21z M219,157h14v19h-14l14,25h39l19-34
		l-19-34h-39L219,157z M115,176h-15v-19h15l-14-24H61l-19,34l19,34h40L115,176z M157,115v-15h19v15l25-14V61l-34-19l-34,19v40
		L157,115z M176,219v14h-19v-14l-24,14v39l34,19l34-19v-39L176,219z" fill="#ffffff" style=""></path>
</g>
<desc>Created with Snap</desc><defs></defs></g><g><g transform="matrix(1,0,0,-1,0,0)"><path d="M41 213Q41 253 49 302Q58 351 75 405Q92 459 126 495Q160 531 205 531Q301 531 359 444Q417 358 417 252Q417 207 407 162Q398 118 378 75Q358 32 320 3Q283 -25 233 -29Q141 -17 91 49Q41 116 41 213ZM211 479Q176 475 152 415Q128 355 121 298Q114 242 114 199Q114 143 148 95Q183 48 226 48Q257 48 282 72Q307 96 321 131Q336 167 343 203Q351 239 351 267Q351 349 314 410Q277 471 211 479ZM534 432L514 483Q540 509 580 524Q620 540 659 540Q828 540 828 248Q828 208 823 130Q819 52 819 13Q811 -18 788 -18Q770 -18 755 0Q740 18 740 40Q740 47 741 50Q679 -10 609 -10Q556 -10 516 28Q477 67 477 122Q477 215 549 290Q622 365 714 365Q718 365 722 364Q726 364 731 363Q737 362 740 362Q732 479 647 479Q597 479 534 432ZM743 119Q745 189 745 225Q745 255 743 309L735 309Q664 308 605 256Q547 204 547 130Q547 98 566 79Q586 60 614 60Q658 60 743 119ZM1217 482L1207 442Q1110 482 1056 482Q1008 482 988 467Q969 453 969 406Q969 368 996 343Q1024 318 1063 303Q1102 289 1141 272Q1181 256 1208 224Q1236 192 1236 145Q1236 81 1189 33Q1142 -15 1067 -16Q1012 -16 964 7Q916 30 888 65L917 95Q929 90 952 79Q976 68 986 64Q996 61 1015 57Q1035 53 1057 53Q1104 53 1134 74Q1164 95 1164 133Q1164 158 1150 175Q1136 193 1113 204Q1090 215 1062 225Q1035 235 1007 247Q980 260 957 277Q934 295 920 325Q906 355 906 396Q906 456 938 496Q971 537 1030 537Q1053 537 1082 530Q1111 523 1128 517Q1145 511 1178 497Q1212 484 1217 482ZM1319 514L1365 504Q1373 422 1379 246Q1385 71 1387 29Q1378 -2 1352 -2Q1334 -2 1317 12Q1301 27 1297 48Q1299 89 1305 261Q1311 434 1319 514ZM1333 693Q1360 693 1378 669Q1396 646 1396 616Q1396 594 1385 580Q1375 567 1357 567Q1329 567 1313 590Q1297 613 1297 644Q1297 666 1306 679Q1316 693 1333 693ZM1786 482L1776 442Q1679 482 1625 482Q1577 482 1557 467Q1538 453 1538 406Q1538 368 1565 343Q1593 318 1632 303Q1671 289 1710 272Q1750 256 1777 224Q1805 192 1805 145Q1805 81 1758 33Q1711 -15 1636 -16Q1581 -16 1533 7Q1485 30 1457 65L1486 95Q1498 90 1521 79Q1545 68 1555 64Q1565 61 1584 57Q1604 53 1626 53Q1673 53 1703 74Q1733 95 1733 133Q1733 158 1719 175Q1705 193 1682 204Q1659 215 1631 225Q1604 235 1576 247Q1549 260 1526 277Q1503 295 1489 325Q1475 355 1475 396Q1475 456 1507 496Q1540 537 1599 537Q1622 537 1651 530Q1680 523 1697 517Q1714 511 1747 497Q1781 484 1786 482ZM2157 720L2209 708Q2212 667 2213 577Q2215 487 2217 453Q2271 510 2347 510Q2415 510 2464 462Q2514 414 2514 334L2514 5Q2501 -1 2481 -1Q2459 -1 2441 3Q2441 11 2441 27Q2442 44 2442 52Q2442 91 2439 186Q2436 282 2436 346Q2421 438 2343 438Q2309 438 2276 419Q2243 401 2228 376Q2231 313 2232 186Q2233 59 2235 3Q2211 -1 2194 -1Q2169 -1 2152 5Q2154 54 2154 160Q2154 207 2153 332Q2152 458 2152 548Q2153 639 2157 720ZM2596 213Q2596 253 2604 302Q2613 351 2630 405Q2647 459 2681 495Q2715 531 2760 531Q2856 531 2914 444Q2972 358 2972 252Q2972 207 2962 162Q2953 118 2933 75Q2913 32 2875 3Q2838 -25 2788 -29Q2696 -17 2646 49Q2596 116 2596 213ZM2766 479Q2731 475 2707 415Q2683 355 2676 298Q2669 242 2669 199Q2669 143 2703 95Q2738 48 2781 48Q2812 48 2837 72Q2862 96 2876 131Q2891 167 2898 203Q2906 239 2906 267Q2906 349 2869 410Q2832 471 2766 479ZM3326 396Q3330 340 3332 263Q3334 187 3335 109Q3337 31 3338 3Q3316 -3 3297 -3Q3282 -3 3269 2Q3266 41 3265 91Q3264 141 3264 179Q3264 218 3262 260Q3261 302 3257 332Q3253 362 3245 387Q3237 413 3222 427Q3208 441 3187 442Q3166 442 3153 433Q3140 424 3125 400L3125 4Q3110 -4 3089 -4Q3073 -4 3053 1Q3056 64 3057 249Q3058 434 3065 523L3110 513L3113 462Q3143 509 3189 509Q3257 509 3304 449Q3333 509 3398 509Q3424 509 3443 503Q3552 472 3552 224Q3552 188 3549 127Q3547 67 3547 46Q3547 18 3550 0Q3498 -14 3487 -14Q3477 -14 3473 -12Q3469 1 3469 36Q3469 58 3472 126Q3475 195 3475 234Q3475 442 3393 444Q3374 443 3360 432Q3346 422 3326 396ZM4036 97L4046 53Q4002 37 3915 17Q3829 -2 3787 -2Q3744 -2 3712 26Q3680 55 3664 99Q3648 144 3640 187Q3633 231 3633 273Q3633 523 3859 523Q3913 523 3954 488Q3995 454 3995 399Q3995 369 3978 346Q3962 323 3938 309Q3915 296 3878 285Q3842 274 3814 269Q3786 264 3747 258Q3708 252 3693 249Q3694 220 3696 198Q3699 176 3706 150Q3714 125 3726 108Q3739 92 3761 81Q3783 70 3813 70Q3849 70 3901 76Q3953 83 3993 90Q4034 97 4036 97ZM3697 311Q3833 350 3920 393Q3913 426 3901 441Q3889 456 3865 456Q3804 456 3754 414Q3705 372 3697 311ZM4394 482L4384 442Q4287 482 4233 482Q4185 482 4165 467Q4146 453 4146 406Q4146 368 4173 343Q4201 318 4240 303Q4279 289 4318 272Q4358 256 4385 224Q4413 192 4413 145Q4413 81 4366 33Q4319 -15 4244 -16Q4189 -16 4141 7Q4093 30 4065 65L4094 95Q4106 90 4129 79Q4153 68 4163 64Q4173 61 4192 57Q4212 53 4234 53Q4281 53 4311 74Q4341 95 4341 133Q4341 158 4327 175Q4313 193 4290 204Q4267 215 4239 225Q4212 235 4184 247Q4157 260 4134 277Q4111 295 4097 325Q4083 355 4083 396Q4083 456 4115 496Q4148 537 4207 537Q4230 537 4259 530Q4288 523 4305 517Q4322 511 4355 497Q4389 484 4394 482Z" fill="#ffffff" style=""></path></g></g></g></svg>