<?xml version="1.0" standalone="no"?>
<!DOCTYPE svg PUBLIC "-//W3C//DTD SVG 1.0//EN" "http://www.w3.org/TR/2001/REC-SVG-20010904/DTD/svg10.dtd">
<svg xmlns="http://www.w3.org/2000/svg" xmlns:xlink="http://www.w3.org/1999/xlink" id="body_1" width="800" height="800">

<g transform="matrix(0.057534676 0 0 0.057534676 17.375473 420.80597)">
	<g>
        <path d="M-302.08 -1039.36L13602.578 -1039.36L13602.578 315.3921L-302.08 315.3921z" stroke="none" fill="#0A2463" fill-rule="nonzero" />
		<g>
			<g transform="matrix(1.024 0 -0 -1.024 0 0)">
				<g transform="matrix(1 0 0 1 0 0)">
                    <path d="M5 0L276 710L398 710L668 0L526 0L460 177L212 177L147 0L5 0zM235 274L435 274L337 553L235 274z" stroke="none" fill="#FFFFFF" fill-rule="nonzero" />
				</g>
				<g transform="matrix(1 0 0 1 672 0)">
                    <path d="M520 0L38 0C 38 30 40.333336 57 45 81C 49.666668 105.66667 57.666668 128.33334 69 149C 81 169.66667 97 189 117 207C 137.66667 225 163.66667 242.66667 195 260C 222.33334 274.6667 246.33334 287.33334 267 298C 288.33334 309.33334 306 319.6667 320 329C 334 338.33334 344.6667 347.6667 352 357C 359.33334 367 363 378.33334 363 391C 363 411.00003 355 428.00003 339 442C 323 456.6667 300 464 270 464C 254 464 239.33334 461.6667 226 457C 212.66669 453.00003 200.00002 447.33337 188 440C 176.66667 432.6667 166 424.33334 156 415C 146.66667 406.33334 138 397 130 387L130 387L44 486C 52.666668 495.33334 65 505.33334 81 516C 97 527.3334 115.66667 537.6667 137 547C 159 557 183 565 209 571C 235.66667 577.6667 264 581 294 581C 328 581 358.33334 576.6667 385 568C 411.6667 560 434 548.3334 452 533C 470.6667 518.3334 484.6667 500.33337 494 479C 504 458.33337 509 435.6667 509 411C 509 387.6667 504.6667 367 496 349C 487.33334 331 476.33334 315 463 301C 449.6667 287 435 274.6667 419 264C 403.6667 254 388.6667 245 374 237C 362 230.33334 348.33334 222.66669 333 214C 317.6667 205.33334 302.33334 195.66667 287 185C 272.33334 175 258.6667 164.33334 246 153C 233.33334 142.33334 223.66669 131.66667 217 121L217 121L520 121L520 0z" stroke="none" fill="#FFFFFF" fill-rule="nonzero" />
				</g>
				<g transform="matrix(1 0 0 1 1236 0)">
                    <path d="M30 0L30 104L431 589L41 589L41 710L590 710L590 606L202 121L593 121L593 0L30 0z" stroke="none" fill="#FFFFFF" fill-rule="nonzero" />
				</g>
				<g transform="matrix(1 0 0 1 1863 0)">
				</g>
				<g transform="matrix(1 0 0 1 2103 0)">
                    <path d="M558 636L497 524C 492.33337 528.6667 483.6667 535 471 543C 459 551 444 558.6667 426 566C 408.6667 574 389.6667 580.6667 369 586C 348.33334 591.3334 327.33334 594 306 594C 268 594 239.66667 587 221 573C 202.33334 559 193 539.3334 193 514C 193 499.33334 196.33334 487 203 477C 210.33334 467.6667 220.66667 459.33337 234 452C 247.33334 444.6667 264 438 284 432C 304.6667 426 328.33334 419.6667 355 413C 389.6667 403.6667 421 393.6667 449 383C 477.6667 372.33334 501.6667 359 521 343C 541 327 556.3334 307.6667 567 285C 577.6667 263 583 235.66667 583 203C 583 165 575.6667 132.33334 561 105C 547 78.333336 527.6667 56.66667 503 40C 479 23.333334 451 11 419 3C 387.6667 -4.3333335 354.6667 -8 320 -8C 266.6667 -8 214 0 162 16C 110 32 63.333332 54.666668 22 84L22 84L83 203C 89 197.00002 99.66667 189.00002 115 179C 131 169.66667 149.66667 160 171 150C 192.33334 140.66667 216.00002 132.66667 242 126C 268 119.333336 294.6667 116 322 116C 398.00003 116 436.00003 140.33334 436 189C 436.00003 204.33334 431.6667 217.33334 423 228C 414.33334 238.66667 402 248 386 256C 370 264 350.6667 271.33334 328 278C 305.33334 284.6667 280 292 252 300C 218 309.33334 188.33334 319.33334 163 330C 138.33334 341.33334 117.66667 354.33334 101 369C 84.333336 384.33334 71.66667 401.6667 63 421C 55 441.00003 51 464.6667 51 492C 51 528 57.666668 560 71 588C 84.333336 616 102.66667 639.3334 126 658C 150 676.6667 177.66667 690.6667 209 700C 240.33334 710 274 715 310 715C 360.00003 715 406.00003 707 448 691C 490.00003 675.6667 526.6667 657.3334 558 636z" stroke="none" fill="#FFFFFF" fill-rule="nonzero" />
				</g>
				<g transform="matrix(1 0 0 1 2716 0)">
                    <path d="M212 121L567 121L567 0L74 0L74 710L558 710L558 589L212 589L212 418L511 418L511 306L212 306L212 121z" stroke="none" fill="#FFFFFF" fill-rule="nonzero" />
				</g>
				<g transform="matrix(1 0 0 1 3317 0)">
                    <path d="M212 0L74 0L74 710L388 710C 420.6667 710 450.6667 703 478 689C 506.00003 675.6667 530 657.6667 550 635C 570 613 585.6667 587.6667 597 559C 608.3334 531 614 502.6667 614 474C 614 428 602.3334 386 579 348C 556.3334 310.6667 525.3334 283.6667 486 267L486 267L648 0L493 0L348 238L212 238L212 0zM212 589L212 359L385 359C 397.6667 359 409.33334 362 420 368C 431.33334 374 441 382 449 392C 457 402.6667 463.33334 415 468 429C 472.6667 443 475.00003 458 475 474C 475.00003 490.6667 472.33337 506.00003 467 520C 461.6667 534 454.33334 546 445 556C 436.33334 566.6667 426 574.6667 414 580C 402.6667 586 391.00003 589 379 589L379 589L212 589z" stroke="none" fill="#FFFFFF" fill-rule="nonzero" />
				</g>
				<g transform="matrix(1 0 0 1 3982 0)">
                    <path d="M2 710L147 710L339 173L529 710L674 710L397 0L281 0L2 710z" stroke="none" fill="#FFFFFF" fill-rule="nonzero" />
				</g>
				<g transform="matrix(1 0 0 1 4658 0)">
					<g transform="matrix(1.6685 0 0 1.6685 -186.2932 978.2021)">
						<g transform="matrix(1 0 -0 -1 0 0)">
							<g>
                                <path d="M556.19 168.86C 555.99 168.66 555.79 168.48 555.58 168.3C 550.59 163.5 543.84 160.76001 536.9 160.74C 536.89 160.74 536.89 160.74 536.88 160.74L536.88 160.74L183.1 160.74C 168.20001 160.78 156.04001 172.94 156 187.86L156 187.86L156 559.15C 156.01 566.28 158.76 573 163.75 578.08C 163.76 578.09 163.76 578.10004 163.77 578.10004C 163.78 578.11005 163.78 578.11005 163.79001 578.12006C 163.8 578.13007 163.8 578.13007 163.8 578.1401C 163.81 578.1501 163.82 578.1501 163.82 578.1601C 168.87001 583.3001 175.90001 586.2601 183.11002 586.2601L183.11002 586.2601L536.9 586.2601C 551.80005 586.2201 563.96 574.06006 564 559.1401L564 559.1401L564 187.85C 563.99 180.7 561.22 173.95 556.19 168.86zM501.79 515.27C 501.79 516.10004 501.54 516.87 501.11002 517.51C 500.89 517.83 500.63 518.12 500.34003 518.36C 500.04004 518.6 499.71002 518.81 499.35004 518.95996C 498.87003 519.16 498.35004 519.26996 497.79004 519.26996L497.79004 519.26996L222.21 519.26996C 220 519.26996 218.21 517.48 218.21 515.26996L218.21 515.26996L218.21 225.35C 218.21 223.14 220 221.35 222.21 221.35L222.21 221.35L497.78998 221.35C 498.33997 221.35 498.86996 221.46 499.34998 221.66C 499.70996 221.81 500.03998 222.01001 500.33997 222.26001C 500.63995 222.50002 500.89996 222.79001 501.10995 223.11002C 501.53995 223.75002 501.78995 224.52002 501.78995 225.35002L501.78995 225.35002L501.78995 515.27zM507.47 207.86C 504.6 206.26 501.3 205.35 497.79 205.35L497.79 205.35L222.21 205.35C 211.18001 205.35 202.21 214.32 202.21 225.35L202.21 225.35L202.21 515.27C 202.21 518.57 203.03001 521.69 204.45001 524.43L204.45001 524.43L172 558.34L172 187.88C 172.02 181.75 177.01 176.76001 183.12 176.74L183.12 176.74L536.86 176.74C 536.99 176.74 537.12 176.74 537.25 176.75L537.25 176.75L507.47 207.86z" stroke="none" fill="#FFFFFF" fill-rule="nonzero" />
                                <path d="M362.19 248.66C 331.62 248.07 302.64 259.43 280.6 280.64C 258.56 301.85 246.1 330.37003 245.52 360.95C 244.93001 391.53 256.29 420.5 277.5 442.54C 278.2 443.27002 278.9 443.98 279.62 444.68002C 301.81 466.57 330.9 477.59003 360.02 477.59003C 388.59998 477.59003 417.22998 466.98004 439.4 445.64C 444.37 440.85 444.53 432.94 439.74 427.97C 439.74 427.97 439.74 427.97 439.72998 427.96C 434.93997 423 427.02997 422.84 422.06998 427.63C 396.50998 452.23 359.99 458.58002 328.75998 447.01C 328.68997 446.98 328.62997 446.95 328.55997 446.93002C 327.26996 446.45 325.98996 445.94003 324.71997 445.40002C 324.28998 445.22003 323.86996 445.01 323.43997 444.82004C 322.53998 444.42004 321.63998 444.02005 320.74997 443.59003C 320.07996 443.26004 319.40997 442.90002 318.74997 442.55002C 318.11996 442.22003 317.47998 441.91 316.85995 441.57C 316.09995 441.15 315.35995 440.7 314.60995 440.26C 314.08997 439.95 313.55997 439.67 313.04996 439.35C 312.29996 438.89 311.56995 438.39 310.83997 437.91C 310.33997 437.58002 309.82996 437.27 309.32996 436.93C 308.52997 436.38 307.74997 435.78998 306.95996 435.22C 306.53995 434.91 306.11996 434.63 305.70996 434.31C 304.86996 433.66998 304.03995 432.98 303.21997 432.31C 302.87997 432.03 302.52997 431.77 302.19998 431.49C 301.34 430.75998 300.50998 430 299.66998 429.24C 299.37997 428.97998 299.08 428.72998 298.8 428.46C 297.90997 427.63 297.05 426.75 296.18 425.88C 295.96 425.66 295.74 425.46 295.53 425.23C 295.53 425.23 295.53 425.23 295.53 425.23C 295.22 424.90002 294.92 424.57 294.61 424.23C 285.12997 414.09 278.25998 402.15002 274.34998 389.21002C 272.99997 384.76 271.99997 380.19003 271.36996 375.54C 271.94995 375.62 272.54996 375.67 273.14996 375.67L273.14996 375.67L462 375.67C 468.9 375.67 474.5 370.07 474.5 363.17C 474.5 363.17 474.5 363.16 474.5 363.16C 474.5 333.4 463.14 305.21 442.5 283.77002C 421.29 261.7 392.77 249.24 362.19 248.66zM448.63 350.63L273.12 350.63C 272.52 350.63 271.93 350.67 271.35 350.75C 271.35 350.75 271.35 350.75 271.35 350.75C 274.08002 330.93 283.31 312.72 297.94 298.64C 314.74 282.47 336.7 273.63 359.96 273.63C 359.96 273.63 359.96 273.63 359.96 273.63C 360.53998 273.63 361.13 273.64 361.72 273.65C 385.62 274.11 407.91 283.85 424.49 301.07C 437.69998 314.79 446.05 332.06 448.63998 350.63L448.63998 350.63L448.63 350.63z" stroke="none" fill="#FFFFFF" fill-rule="nonzero" />
							</g>
						</g>
					</g>
				</g>
				<g transform="matrix(1 0 0 1 5446.767 0)">
                    <path d="M212 0L74 0L74 710L388 710C 420.6667 710 450.6667 703 478 689C 506.00003 675.6667 530 657.6667 550 635C 570 613 585.6667 587.6667 597 559C 608.3334 531 614 502.6667 614 474C 614 428 602.3334 386 579 348C 556.3334 310.6667 525.3334 283.6667 486 267L486 267L648 0L493 0L348 238L212 238L212 0zM212 589L212 359L385 359C 397.6667 359 409.33334 362 420 368C 431.33334 374 441 382 449 392C 457 402.6667 463.33334 415 468 429C 472.6667 443 475.00003 458 475 474C 475.00003 490.6667 472.33337 506.00003 467 520C 461.6667 534 454.33334 546 445 556C 436.33334 566.6667 426 574.6667 414 580C 402.6667 586 391.00003 589 379 589L379 589L212 589z" stroke="none" fill="#FFFFFF" fill-rule="nonzero" />
				</g>
				<g transform="matrix(1 0 0 1 6111.767 0)">
				</g>
				<g transform="matrix(1 0 0 1 6351.767 0)">
                    <path d="M534 710L671 710L671 0L534 0L534 303L212 303L212 0L74 0L74 710L212 710L212 423L534 423L534 710z" stroke="none" fill="#FFFFFF" fill-rule="nonzero" />
				</g>
				<g transform="matrix(1 0 0 1 7096.767 0)">
                    <path d="M377 -5C 325 -5 277.6667 5.0000005 235 25C 193 45.66667 156.66667 72.66667 126 106C 96 140 72.66667 178.66667 56 222C 39.333336 265.33334 31.000002 309.6667 31 355C 31.000002 402.33334 39.666668 447.6667 57 491C 75 534.3334 99.333336 572.6667 130 606C 161.33334 639.3334 198.33334 665.6667 241 685C 283.6667 705 330 715 380 715C 431.33337 715 478.00003 704.3334 520 683C 562.6667 662.3334 599 635 629 601C 659 567 682.3334 528.3334 699 485C 715.6667 441.6667 724 397.6667 724 353C 724 305.6667 715.3334 260.33334 698 217C 680.6667 174.33334 656.6667 136.33334 626 103C 595.3334 70.333336 558.6667 44 516 24C 473.33334 4.6666665 427 -5 377 -5zM171 355C 171 324.33334 175.66667 294.6667 185 266C 194.33334 237.33334 207.66667 212 225 190C 243 168 264.6667 150.33334 290 137C 316 123.66667 345.33334 117 378 117C 411.33334 117 440.6667 123.66667 466 137C 492.00003 151 513.6667 169.33334 531 192C 549 214.66667 562.3334 240 571 268C 580.3334 296.6667 585 325.6667 585 355C 585 385.6667 580 415.33334 570 444C 560.6667 472.6667 547 498.00003 529 520C 511.6667 542 490 559.3334 464 572C 438.6667 585.3334 410 592 378 592C 344.6667 592 315 585 289 571C 263 557.6667 241.33334 539.6667 224 517C 206.66667 495.00003 193.33334 469.6667 184 441C 175.33334 413 171 384.33334 171 355z" stroke="none" fill="#FFFFFF" fill-rule="nonzero" />
				</g>
				<g transform="matrix(1 0 0 1 7852.767 0)">
                    <path d="M558 636L497 524C 492.33337 528.6667 483.6667 535 471 543C 459 551 444 558.6667 426 566C 408.6667 574 389.6667 580.6667 369 586C 348.33334 591.3334 327.33334 594 306 594C 268 594 239.66667 587 221 573C 202.33334 559 193 539.3334 193 514C 193 499.33334 196.33334 487 203 477C 210.33334 467.6667 220.66667 459.33337 234 452C 247.33334 444.6667 264 438 284 432C 304.6667 426 328.33334 419.6667 355 413C 389.6667 403.6667 421 393.6667 449 383C 477.6667 372.33334 501.6667 359 521 343C 541 327 556.3334 307.6667 567 285C 577.6667 263 583 235.66667 583 203C 583 165 575.6667 132.33334 561 105C 547 78.333336 527.6667 56.66667 503 40C 479 23.333334 451 11 419 3C 387.6667 -4.3333335 354.6667 -8 320 -8C 266.6667 -8 214 0 162 16C 110 32 63.333332 54.666668 22 84L22 84L83 203C 89 197.00002 99.66667 189.00002 115 179C 131 169.66667 149.66667 160 171 150C 192.33334 140.66667 216.00002 132.66667 242 126C 268 119.333336 294.6667 116 322 116C 398.00003 116 436.00003 140.33334 436 189C 436.00003 204.33334 431.6667 217.33334 423 228C 414.33334 238.66667 402 248 386 256C 370 264 350.6667 271.33334 328 278C 305.33334 284.6667 280 292 252 300C 218 309.33334 188.33334 319.33334 163 330C 138.33334 341.33334 117.66667 354.33334 101 369C 84.333336 384.33334 71.66667 401.6667 63 421C 55 441.00003 51 464.6667 51 492C 51 528 57.666668 560 71 588C 84.333336 616 102.66667 639.3334 126 658C 150 676.6667 177.66667 690.6667 209 700C 240.33334 710 274 715 310 715C 360.00003 715 406.00003 707 448 691C 490.00003 675.6667 526.6667 657.3334 558 636z" stroke="none" fill="#FFFFFF" fill-rule="nonzero" />
				</g>
				<g transform="matrix(1 0 0 1 8465.767 0)">
                    <path d="M605 710L605 589L378 589L378 0L241 0L241 589L14 589L14 710L605 710z" stroke="none" fill="#FFFFFF" fill-rule="nonzero" />
				</g>
				<g transform="matrix(1 0 0 1 9084.767 0)">
                    <path d="M212 0L74 0L74 710L212 710L212 0z" stroke="none" fill="#FFFFFF" fill-rule="nonzero" />
				</g>
				<g transform="matrix(1 0 0 1 9370.767 0)">
                    <path d="M577 0L212 455L212 0L74 0L74 710L181 710L551 244L551 709L689 709L689 0L577 0z" stroke="none" fill="#FFFFFF" fill-rule="nonzero" />
				</g>
				<g transform="matrix(1 0 0 1 10133.767 0)">
                    <path d="M567 0L567 80C 510.33334 23.333334 444.33334 -5 369 -5C 322.33334 -5 278.33334 4.3333335 237 23C 196.33334 41.666668 160.66667 67.333336 130 100C 100 132.66667 76 171 58 215C 40.666668 259.6667 32 307.6667 32 359C 32 407.6667 40.666668 453.33334 58 496C 76 539.3334 100.333336 577 131 609C 162.33334 641.6667 199 667.3334 241 686C 283 705.3334 328.6667 715 378 715C 444.6667 715 501.6667 701 549 673C 597 645 633 607.3334 657 560L657 560L554 484C 536 519.3334 510.6667 546.3334 478 565C 446.00003 583.6667 411.00003 593 373 593C 343 593 315.33334 586.6667 290 574C 265.33334 561.3334 244 544 226 522C 208.66669 500 195.00002 474.6667 185 446C 175.66667 417.33337 171 387.00003 171 355C 171 321.6667 176.33334 290.33334 187 261C 197.66669 232.33334 212.33334 207.33334 231 186C 249.66667 164.66667 271.6667 147.66667 297 135C 323 123 351 117 381 117C 449.6667 117 511.6667 149.33334 567 214L567 214L567 264L424 264L424 365L681 365L681 0L567 0z" stroke="none" fill="#FFFFFF" fill-rule="nonzero" />
				</g>
				<g transform="matrix(1 0 0 1 10858.767 0)">
				</g>
				<g transform="matrix(1 0 0 1 11098.767 0)">
                    <path d="M574 0L74 0L74 710L212 710L212 121L574 121L574 0z" stroke="none" fill="#FFFFFF" fill-rule="nonzero" />
				</g>
				<g transform="matrix(1 0 0 1 11682.767 0)">
                    <path d="M605 710L605 589L378 589L378 0L241 0L241 589L14 589L14 710L605 710z" stroke="none" fill="#FFFFFF" fill-rule="nonzero" />
				</g>
				<g transform="matrix(1 0 0 1 12301.767 0)">
                    <path d="M332 0L74 0L74 710L332 710C 390 710 440.6667 700.6667 484 682C 528 663.3334 564.6667 638 594 606C 623.3334 574 645.3334 536.3334 660 493C 674.6667 450.33334 682 404.6667 682 356C 682 302 673.6667 253.00002 657 209C 641 165.66667 617.6667 128.33334 587 97C 556.3334 66.333336 519.3334 42.333336 476 25C 433.33337 8.333334 385.33337 0 332 0zM543 356C 543 390 538.3334 421.33334 529 450C 519.6667 478.6667 506 503.33337 488 524C 470 544.6667 447.6667 560.6667 421 572C 395 583.3334 365.33334 589 332 589L332 589L212 589L212 121L332 121C 366 121.00001 396 127.00001 422 139C 448.6667 151 470.6667 167.33334 488 188C 506 209.33334 519.6667 234.33334 529 263C 538.3334 291.6667 543 322.6667 543 356z" stroke="none" fill="#FFFFFF" fill-rule="nonzero" />
				</g>
			</g>
		</g>
	</g>
</g>
</svg>