<?xml version="1.0" standalone="no"?>
<!DOCTYPE svg PUBLIC "-//W3C//DTD SVG 1.0//EN" "http://www.w3.org/TR/2001/REC-SVG-20010904/DTD/svg10.dtd">
<svg xmlns="http://www.w3.org/2000/svg" xmlns:xlink="http://www.w3.org/1999/xlink" id="body_1" width="1024" height="768">

<g transform="matrix(0.16420361 0 0 0.16420361 31.855503 273.9245)">
	<g>
        <path d="M-194.56 -1105.92L6041.6 -1105.92L6041.6 2444.7998L-194.56 2444.7998z" stroke="none" fill="#F5E9B0" fill-rule="nonzero" />
		<g transform="matrix(23.9567 0 0 23.9567 1713.6997 17.6815)">
			<g>
                <path d="M74.265 60.41C 75.229 63.339 75.666 66.376 75.526 69.425C 78.11 68.436005 80.539 66.935005 82.621 64.853004C 82.865005 64.609 83.031006 64.326004 83.258 64.073006C 83.276 63.732006 83.36301 63.414005 83.36301 63.069004C 83.36301 60.145004 82.717 57.378006 81.59901 54.866005C 79.522 57.139 77.045 59.022 74.265 60.41z" stroke="none" fill="#292929" fill-rule="nonzero" />
                <path d="M54.863 81.605C 57.371998 82.717 60.139 83.364006 63.063 83.364006C 63.412 83.364006 63.727 83.27901 64.067 83.26101C 64.32 83.03401 64.608 82.86801 64.848 82.62401C 66.928 80.53901 68.433 78.10801 69.42 75.520004C 66.370995 75.66 63.334 75.228004 60.409996 74.263C 59.022 77.049 57.137 79.528 54.863 81.605z" stroke="none" fill="#292929" fill-rule="nonzero" />
                <path d="M40.588 74.265C 37.663002 75.229996 34.623 75.661 31.575 75.522C 32.563 78.11 34.065002 80.545006 36.148003 82.62601C 36.390003 82.87001 36.676003 83.03601 36.927002 83.26301C 37.266003 83.281006 37.588 83.366005 37.93 83.366005C 40.856 83.366005 43.621002 82.72 46.132 81.607C 43.861 79.528 41.976 77.049 40.588 74.265z" stroke="none" fill="#292929" fill-rule="nonzero" />
                <path d="M26.731 60.41C 23.95 59.022 21.471 57.139 19.394001 54.864998C 18.282001 57.377 17.636002 60.143997 17.636002 63.067997C 17.636002 63.413 17.721 63.730995 17.736002 64.072C 17.965002 64.325 18.131002 64.608 18.375002 64.852C 20.457003 66.934 22.890001 68.435 25.473001 69.423996C 25.333 66.376 25.767 63.339 26.731 60.41z" stroke="none" fill="#292929" fill-rule="nonzero" />
                <path d="M26.731 40.592C 25.767 37.663 25.333 34.626 25.472 31.576C 22.889 32.565 20.458 34.067 18.374 36.148C 18.130001 36.392998 17.964 36.676 17.735 36.928997C 17.720001 37.269997 17.635 37.587997 17.635 37.933C 17.635 40.857 18.281 43.622997 19.395 46.138C 21.471 43.863 23.95 41.979 26.731 40.592z" stroke="none" fill="#292929" fill-rule="nonzero" />
                <path d="M46.132 19.397C 43.621 18.282999 40.857 17.637 37.93 17.637C 37.588 17.637 37.266 17.720999 36.927002 17.738998C 36.676003 17.967 36.390003 18.131998 36.148003 18.376999C 34.065002 20.456999 32.563004 22.891998 31.575003 25.48C 34.623 25.34 37.663002 25.772999 40.588 26.737C 41.976 23.952 43.861 21.475 46.132 19.397z" stroke="none" fill="#292929" fill-rule="nonzero" />
                <path d="M60.41 26.736C 63.334 25.772 66.371 25.34 69.42 25.479C 68.43 22.891 66.928 20.462 64.848 18.376C 64.608 18.130999 64.32 17.966 64.067 17.737999C 63.727 17.72 63.408 17.636 63.063 17.636C 60.139 17.636 57.372 18.282 54.863 19.396C 57.137 21.475 59.022 23.952 60.41 26.736z" stroke="none" fill="#292929" fill-rule="nonzero" />
                <path d="M82.621 36.148C 80.539 34.066998 78.11 32.565 75.526 31.575998C 75.666 34.626 75.229004 37.663 74.265 40.592C 77.045 41.98 79.522 43.863 81.599 46.139C 82.715996 43.624 83.363 40.858 83.363 37.934C 83.363 37.588997 83.275 37.271 83.257996 36.929996C 83.031 36.677 82.865 36.394 82.621 36.148z" stroke="none" fill="#292929" fill-rule="nonzero" />
                <path d="M58.228 63.068C 58.228 62.902 58.18 62.749 58.176003 62.584C 57.115 62.374 56.086002 62.086 55.077003 61.75C 54.615 62.671 54.187004 63.601 53.608 64.469C 53.721 64.591 53.798 64.736 53.917 64.853004C 55.06 65.993004 56.321 66.922005 57.635 67.734C 57.993 66.228 58.228 64.683 58.228 63.068z" stroke="none" fill="#292929" fill-rule="nonzero" />
                <path d="M43.362 67.733C 44.675 66.921005 45.936 65.992004 47.077 64.852005C 47.197 64.73501 47.276 64.590004 47.389 64.468C 46.808 63.600002 46.381 62.670002 45.918 61.749C 44.91 62.085 43.879997 62.373 42.818 62.583C 42.816 62.748 42.77 62.901 42.77 63.067C 42.771 64.683 43.006 66.228 43.362 67.733z" stroke="none" fill="#292929" fill-rule="nonzero" />
                <path d="M36.148 53.922C 35.009 55.062 34.079998 56.322002 33.267998 57.639C 34.770996 57.994 36.318996 58.229 37.931 58.229C 38.097 58.229 38.249 58.185 38.415 58.181C 38.624 57.121 38.91 56.086998 39.248 55.079C 38.33 54.615997 37.4 54.192997 36.532 53.607998C 36.411 53.726 36.269 53.805 36.148 53.922z" stroke="none" fill="#292929" fill-rule="nonzero" />
                <path d="M38.415 42.821C 38.249 42.815 38.096 42.771 37.931 42.771C 36.319 42.771 34.772 43.007 33.267998 43.362C 34.079998 44.68 35.006996 45.94 36.148 47.079C 36.267998 47.197 36.41 47.274998 36.531998 47.392998C 37.399998 46.809998 38.329 46.385 39.247997 45.921997C 38.91 44.916 38.625 43.881 38.415 42.821z" stroke="none" fill="#292929" fill-rule="nonzero" />
                <path d="M42.771 37.934C 42.771 38.1 42.817 38.252 42.819 38.418C 43.881 38.628 44.911 38.916 45.919 39.252C 46.381 38.330997 46.809 37.400997 47.39 36.532997C 47.277 36.409996 47.197998 36.266 47.078 36.148C 45.937 35.009 44.676 34.082 43.363 33.268997C 43.006 34.774 42.771 36.319 42.771 37.934z" stroke="none" fill="#292929" fill-rule="nonzero" />
                <path d="M57.635 33.27C 56.321 34.082 55.059998 35.010002 53.917 36.149002C 53.799 36.267002 53.722 36.411003 53.608 36.534C 54.187 37.402 54.615 38.332 55.077003 39.253002C 56.085003 38.917004 57.115005 38.629 58.176003 38.419003C 58.180004 38.253002 58.228 38.101 58.228 37.935C 58.228 36.319 57.993 34.774 57.635 33.27z" stroke="none" fill="#292929" fill-rule="nonzero" />
                <path d="M63.063 42.771C 62.897 42.771 62.749 42.815 62.583 42.821C 62.374 43.881 62.085 44.916 61.745 45.923C 62.666 46.386 63.596 46.811 64.464 47.394C 64.586 47.276 64.729996 47.198 64.848 47.08C 65.987 45.941 66.915 44.682003 67.731 43.363003C 66.226 43.008 64.678 42.771 63.063 42.771z" stroke="none" fill="#292929" fill-rule="nonzero" />
                <path d="M48.074 49.493C 48.039 50.169 48.039 50.832 48.074 51.505C 48.526 52.007 48.995003 52.474003 49.494 52.928C 50.165 52.962 50.829 52.962 51.501 52.928C 52.001 52.474003 52.473 52.002003 52.924 51.505C 52.959 50.832 52.957 50.169003 52.924 49.497C 52.473 48.995003 52.003 48.528 51.504 48.074C 50.831 48.039 50.164 48.039 49.492 48.074C 48.995 48.528 48.524 48.995 48.074 49.493z" stroke="none" fill="#292929" fill-rule="nonzero" />
                <path d="M64.464 53.608C 63.595997 54.193 62.665997 54.616 61.744995 55.079002C 62.084995 56.087 62.372993 57.121002 62.582996 58.181004C 62.748997 58.185005 62.896996 58.229004 63.062996 58.229004C 64.67799 58.229004 66.226 57.995003 67.730995 57.639004C 66.91499 56.323006 65.98599 55.062004 64.84799 53.922005C 64.73 53.805 64.586 53.726 64.464 53.608z" stroke="none" fill="#292929" fill-rule="nonzero" />
                <path d="M72.271 55.926C 74.854004 54.599 77.09801 52.753 78.886 50.501C 77.098 48.249 74.855 46.403 72.271 45.076C 71.18 47.005 69.914 48.86 68.273 50.501C 69.914 52.142 71.179 53.996 72.271 55.926z" stroke="none" fill="#292929" fill-rule="nonzero" />
                <path d="M62.138 31.245C 62.723 33.378002 63.063 35.612 63.063 37.933002C 65.385 37.933002 67.618 38.274002 69.752 38.863003C 70.619995 36.118004 70.895 33.260002 70.572 30.427002C 67.74 30.104 64.879 30.375 62.138 31.245z" stroke="none" fill="#292929" fill-rule="nonzero" />
                <path d="M50.498 22.11C 48.245003 23.904001 46.399002 26.143002 45.074 28.726002C 47.001 29.822002 48.856003 31.087002 50.498 32.728C 52.142002 31.087 53.996002 29.822 55.924 28.726002C 54.597 26.144 52.752 23.904 50.498 22.11z" stroke="none" fill="#292929" fill-rule="nonzero" />
                <path d="M37.931 37.934C 37.931 35.613 38.271 33.378 38.857998 31.245998C 36.117996 30.375998 33.256996 30.104998 30.425999 30.428999C 30.102999 33.261997 30.376 36.119 31.242998 38.864998C 33.377 38.274 35.612 37.934 37.931 37.934z" stroke="none" fill="#292929" fill-rule="nonzero" />
                <path d="M22.108 50.501C 23.902 52.753 26.142 54.599 28.726 55.926C 29.817 53.996 31.082 52.142 32.725 50.501C 31.081999 48.86 29.816998 47.005 28.723999 45.076C 26.143 46.403 23.902 48.249 22.108 50.501z" stroke="none" fill="#292929" fill-rule="nonzero" />
                <path d="M38.858 69.757C 38.271 67.624 37.931004 65.39001 37.931004 63.069004C 35.612003 63.069004 33.378002 62.728004 31.243004 62.139004C 30.375004 64.884 30.103004 67.743004 30.426004 70.575005C 33.257 70.896 36.118 70.627 38.858 69.757z" stroke="none" fill="#292929" fill-rule="nonzero" />
                <path d="M50.498 78.891C 52.753002 77.098 54.598 74.859 55.924 72.275C 53.995 71.18 52.142 69.915 50.498 68.275C 48.856003 69.915 47.001 71.18 45.074 72.275C 46.401 74.858 48.245 77.098 50.498 78.891z" stroke="none" fill="#292929" fill-rule="nonzero" />
                <path d="M63.063 63.068C 63.063 65.389 62.723 67.624 62.138 69.756004C 64.879 70.62601 67.74 70.895004 70.573 70.573006C 70.895996 67.741005 70.620995 64.878006 69.753 62.137005C 67.618 62.728 65.385 63.068 63.063 63.068z" stroke="none" fill="#292929" fill-rule="nonzero" />
                <path d="M87.425 44.026C 86.854004 46.33 85.968 48.502 84.811005 50.501C 85.968 52.5 86.854004 54.678 87.425 56.975998C 88.844 52.771 88.844 48.231 87.425 44.026z" stroke="none" fill="#292929" fill-rule="nonzero" />
                <path d="M81.233 29.05C 79.252 25.008999 75.989 21.748999 71.947 19.768C 73.196 21.831 74.094 24.036 74.692 26.309C 76.966 26.907 79.165 27.802 81.233 29.05z" stroke="none" fill="#292929" fill-rule="nonzero" />
                <path d="M56.971 13.576C 52.767002 12.158 48.229 12.158 44.024002 13.576C 46.324 14.147 48.497 15.029 50.497 16.19C 52.5 15.029 54.671 14.147 56.971 13.576z" stroke="none" fill="#292929" fill-rule="nonzero" />
                <path d="M29.047 19.768C 25.005001 21.749 21.746 25.008999 19.763 29.05C 21.829 27.802 24.031 26.907 26.304 26.309C 26.904 24.035 27.798 21.831 29.047 19.768z" stroke="none" fill="#292929" fill-rule="nonzero" />
                <path d="M13.571 56.973C 14.145 54.673 15.029 52.5 16.187 50.501C 15.028 48.502 14.147 46.329998 13.571 44.029C 12.158 48.231 12.158 52.771 13.571 56.973z" stroke="none" fill="#292929" fill-rule="nonzero" />
                <path d="M19.765 71.952C 21.745998 75.993004 25.005 79.249 29.043999 81.234C 27.796 79.166 26.902998 76.965004 26.303 74.692C 24.031 74.095 21.829 73.2 19.765 71.952z" stroke="none" fill="#292929" fill-rule="nonzero" />
                <path d="M44.024 87.426C 48.228996 88.844 52.769997 88.844 56.970997 87.426C 54.670998 86.854004 52.498997 85.973 50.496998 84.812004C 48.498 85.973 46.324 86.854 44.024 87.426z" stroke="none" fill="#292929" fill-rule="nonzero" />
                <path d="M71.952 81.234C 75.989006 79.249 79.25201 75.993004 81.233 71.952C 79.165 73.200005 76.966 74.095 74.692 74.692C 74.095 76.966 73.2 79.166 71.952 81.234z" stroke="none" fill="#292929" fill-rule="nonzero" />
			</g>
		</g>
		<g>
			<g transform="matrix(1.024 0 -0 -1.024 0 0)">
                <path d="M248 142L586 546C 624 591.3334 652 625.6667 670 649C 688.6667 673 698 691.6667 698 705C 698 715 692.3334 721.6667 681 725C 669.6667 728.3334 652.3334 730 629 730L629 730L639 770L898 770L888 730C 872 730 856 727 840 721C 824.6667 715 807.3334 704.6667 788 690C 769.3334 675.3334 748.3334 655.6667 725 631C 701.6667 606.3334 675 575.6667 645 539L645 539L194 -10L110 -10L249 604C 257 638.6667 261 664.3334 261 681C 261 700.3334 254.66667 713.3334 242 720C 229.33334 726.6667 204.66667 730 168 730L168 730L178 770L474 770L464 730C 444.6667 730 428.6667 728.3334 416 725C 403.33337 722.3334 392.6667 716.3334 384 707C 375.33334 698.3334 368 685.6667 362 669C 356.6667 652.3334 351 630.3334 345 603L345 603L244 142L248 142zM1081 566L976 168C 968 138.66667 964 115.33334 964 98C 964 75.333336 971 60 985 52C 999.66675 44 1023.00006 40 1055 40L1055 40L1043 0L724 0L735 40C 755 40 772 41.333336 786 44C 800 47.333336 812 53.333336 822 62C 832.6667 70.66667 841.6667 82.66667 849 98C 856.3334 113.33334 863.3334 133.33334 870 158L870 158L987 600C 997 636.6667 1002 664 1002 682C 1002 702.6667 994.3334 715.6667 979 721C 964.3334 727 939 730 903 730L903 730L914 770L1239 770L1228 730C 1206 730 1187.6667 727.6667 1173 723C 1158.3334 719 1145.6667 711 1135 699C 1124.3334 687 1114.6667 670.3334 1106 649C 1098 627.6667 1089.6667 600 1081 566zM1452 375L1405 207C 1398.3334 183.66667 1393 163 1389 145C 1385.6667 127.00001 1384 113.66667 1384 105C 1384 65 1422 45 1498 45L1498 45L1487 0L1155 0L1166 40C 1198 40 1224 49.333336 1244 68C 1264 87.33334 1279.6667 117.66667 1291 159L1291 159L1409 600C 1417.6667 632 1422 657 1422 675C 1422 685 1420.3334 693.3334 1417 700C 1413.6667 706.6667 1408 712 1400 716C 1392 720.6667 1381.3334 724 1368 726C 1354.6667 728 1338 729.3334 1318 730L1318 730L1329 770L1607 770C 1687 770.00006 1750 754.66675 1796 724C 1842 694 1865 652 1865 598C 1865 570.6667 1859.6667 545.6667 1849 523C 1839.0001 500.33334 1824.3335 480 1805 462C 1785.6667 444 1762.3334 428.6667 1735 416C 1708.3334 403.33337 1678.6667 393.6667 1646 387L1646 387L1720 204C 1734.0001 170 1746.3335 142.33334 1757 121C 1768.3335 99.66667 1780.0001 83 1792 71C 1804.0001 59.000004 1817.3335 50.66667 1832 46C 1847.3335 42 1866.0001 40 1888 40L1888 40L1877 0L1687 0L1540 375L1452 375zM1523 645L1465 426L1514 426C 1548.6667 426 1580.6667 430 1610 438C 1640 446 1665.3334 457.33334 1686 472C 1707.3334 487.33334 1724 506 1736 528C 1748 550 1754 575.3334 1754 604C 1754 644 1741.6667 674 1717 694C 1692.3334 714.6667 1656.3334 725 1609 725C 1595.6667 725 1584.3334 723.6667 1575 721C 1566.3334 719 1558.6667 715 1552 709C 1546.0001 703 1540.6667 694.6667 1536 684C 1531.3334 674 1527 661 1523 645zM1909 0L1920 40C 1942 40 1960 41.666668 1974 45C 1988.6667 48.333336 2000.6667 54.333336 2010 63C 2020 72.333336 2028.3334 84.333336 2035 99C 2041.6667 114.333336 2048 134 2054 158L2054 158L2170 599C 2174.6667 616.3334 2178 631.3334 2180 644C 2182.6667 656.6667 2184 667.6667 2184 677C 2184 699 2176.3335 713.3334 2161 720C 2145.6667 726.6667 2120 730 2084 730L2084 730L2095 770L2641 770L2641 568L2603 568C 2594.3335 600 2584.6667 626 2574 646C 2563.3335 666.6667 2551 682.6667 2537 694C 2523.6667 706 2508.3335 714.3334 2491 719C 2474.3335 723.6667 2455.6667 726 2435 726L2435 726L2305 726L2227 429L2290 429C 2308 429 2323.3335 430.6667 2336 434C 2348.6667 437.33337 2360 443.00003 2370 451C 2380.6667 459.6667 2390.3335 471.33334 2399 486C 2408.3335 500.6667 2418.3335 519.6667 2429 543L2429 543L2466 543L2406 247L2366 247C 2368 267 2369 284.33334 2369 299C 2369 329 2363.3335 350.6667 2352 364C 2340.6667 378.00003 2319.6667 385.00003 2289 385L2289 385L2214 385L2157 170C 2151 148 2148 129.33334 2148 114C 2148 90 2158.6667 72 2180 60C 2201.3335 48.666668 2238 43 2290 43C 2328 43 2361 46 2389 52C 2417.6667 58 2442.3335 67.333336 2463 80C 2484.3335 93.33334 2502.6667 110.66667 2518 132C 2534 153.33334 2549 179.66667 2563 211L2563 211L2610 211L2532 0L1909 0zM3213 713L3233 755L3263 755L3221 558L3187 558C 3185 618.6667 3174 662.3334 3154 689C 3134 715.6667 3102.6667 729 3060 729C 3039.3335 729 3020.3335 726 3003 720C 2985.6667 714.6667 2970.6667 706.6667 2958 696C 2946 685.3334 2936.3335 672.6667 2929 658C 2922.3335 644 2919 628.6667 2919 612C 2919 588 2925.6667 566.6667 2939 548C 2952.3335 529.3334 2969 511.6667 2989 495C 3009.6667 479 3031.6667 462.6667 3055 446C 3079 429.33337 3101 411.00003 3121 391C 3141.667 371 3158.667 348.33334 3172 323C 3185.3335 297.6667 3192 268 3192 234C 3192 200 3185.3335 168 3172 138C 3158.667 108.66667 3140.3335 83 3117 61C 3094.3335 39 3067.667 21.666668 3037 9C 3006.3335 -3.666667 2973.3335 -10 2938 -10C 2865.3335 -10 2801.6667 18.666668 2747 76L2747 76L2726 0L2691 0L2733 254L2766 254C 2770.6667 185.33334 2787.6667 133 2817 97C 2846.3335 61.000004 2887 43 2939 43C 2963 43 2985 46.333336 3005 53C 3025 60.333336 3042 70 3056 82C 3070.6667 94.66667 3082 109.333336 3090 126C 3098.6667 143.33334 3103 162 3103 182C 3103 210.00002 3096 234.66669 3082 256C 3068 277.33334 3050.6667 297.33334 3030 316C 3009.3335 334.6667 2986.6667 352.6667 2962 370C 2937.3335 387.33334 2914.6667 405.6667 2894 425C 2873.3335 445 2856 466.6667 2842 490C 2828 514 2821 541.3334 2821 572C 2821 600.6667 2827 627.6667 2839 653C 2851.6667 678.3334 2868.6667 700.3334 2890 719C 2911.3335 737.6667 2936.3335 752.3334 2965 763C 2993.6667 774.3334 3024.3335 780 3057 780C 3088.3335 780 3116.3335 774.6667 3141 764C 3165.6667 753.3334 3189.6667 736.3334 3213 713zM3798 610L3680 168C 3676.0002 152.66667 3672.3335 139.33334 3669 128C 3665.6667 117.33334 3664 107.33334 3664 98C 3664 76.66667 3672.6667 61.666668 3690 53C 3707.3335 44.333336 3737.0002 40 3779 40L3779 40L3767 0L3419 0L3430 40C 3450 40 3467.3335 41.333336 3482 44C 3496.6667 46.666668 3509.6667 52 3521 60C 3533.0002 68 3543.0002 79.66667 3551 95C 3559.6667 111 3567.6667 132 3575 158L3575 158L3697 614C 3703 638 3706 658 3706 674C 3706 693.3334 3701.6667 707 3693 715C 3684.3335 723.6667 3670.3335 728 3651 728C 3592.3335 728 3541.3335 713 3498 683C 3455.3335 653 3419.667 611 3391 557L3391 557L3351 557L3446 770L4114 770L4094 557L4056 557C 4056 621 4044 665.3334 4020 690C 3996.6667 715.3334 3961.6667 728 3915 728C 3898.3335 728 3884.0002 726.3334 3872 723C 3860.6667 719.6667 3850.3335 713.6667 3841 705C 3832.3335 696.3334 3824.3335 684.3334 3817 669C 3810.3335 653.6667 3804 634 3798 610zM4333 375L4286 207C 4279.3335 183.66667 4274 163 4270 145C 4266.667 127.00001 4265 113.66667 4265 105C 4265 65 4303 45 4379 45L4379 45L4368 0L4036 0L4047 40C 4079 40 4105 49.333336 4125 68C 4145 87.33334 4160.667 117.66667 4172 159L4172 159L4290 600C 4298.667 632 4303 657 4303 675C 4303 685 4301.3335 693.3334 4298 700C 4294.667 706.6667 4289 712 4281 716C 4273 720.6667 4262.3335 724 4249 726C 4235.667 728 4219 729.3334 4199 730L4199 730L4210 770L4488 770C 4568 770.00006 4631 754.66675 4677 724C 4723 694 4746 652 4746 598C 4746 570.6667 4740.667 545.6667 4730 523C 4720 500.33334 4705.3335 480 4686 462C 4666.667 444 4643.3335 428.6667 4616 416C 4589.3335 403.33337 4559.667 393.6667 4527 387L4527 387L4601 204C 4615 170 4627.3335 142.33334 4638 121C 4649.3335 99.66667 4661 83 4673 71C 4685 59.000004 4698.3335 50.66667 4713 46C 4728.3335 42 4747 40 4769 40L4769 40L4758 0L4568 0L4421 375L4333 375zM4404 645L4346 426L4395 426C 4429.667 426 4461.667 430 4491 438C 4521 446 4546.3335 457.33334 4567 472C 4588.3335 487.33334 4605 506 4617 528C 4629 550 4635 575.3334 4635 604C 4635 644 4622.667 674 4598 694C 4573.3335 714.6667 4537.3335 725 4490 725C 4476.667 725 4465.3335 723.6667 4456 721C 4447.3335 719 4439.667 715 4433 709C 4427 703 4421.667 694.6667 4417 684C 4412.3335 674 4408 661 4404 645zM5321 780C 5363.667 780 5402 772.6667 5436 758C 5470.667 743.3334 5500 722.3334 5524 695C 5548.667 668.3334 5567.3335 635.6667 5580 597C 5593.3335 559 5600 516.3334 5600 469C 5600 405 5588.3335 344 5565 286C 5542.3335 228 5511.3335 177 5472 133C 5432.667 89 5387 54 5335 28C 5283.667 2.666667 5229.3335 -10 5172 -10C 5129.3335 -10 5090.667 -2.666667 5056 12C 5021.3335 27.333334 4991.667 48.666668 4967 76C 4942.3335 103.333336 4923.3335 136 4910 174C 4896.667 212.66667 4890 255.66667 4890 303C 4890 367 4901.667 427.6667 4925 485C 4948.3335 543 4979.667 593.6667 5019 637C 5058.3335 681 5104 715.6667 5156 741C 5208.667 767 5263.667 780 5321 780zM5321 728C 5277.667 728 5237 717 5199 695C 5161.667 673 5129 642.6667 5101 604C 5073 565.3334 5051 520 5035 468C 5019 416 5011 360 5011 300C 5011 214.66667 5025.667 150.66667 5055 108C 5085 65.333336 5128.667 44 5186 44C 5228 44 5266.667 55.333336 5302 78C 5338 100.66667 5369 132 5395 172C 5421.667 212 5442.3335 259.6667 5457 315C 5471.667 370.33334 5479 430.6667 5479 496C 5479 576 5466 634.6667 5440 672C 5414.667 709.3334 5375 728 5321 728z" stroke="none" fill="#292929" fill-rule="nonzero" />
			</g>
		</g>
	</g>
</g>
</svg>