<svg version="1.1" xmlns="http://www.w3.org/2000/svg" viewBox="-2326.4073082655873 -1546.2400314331055 9360.263728019616 2347.0080780029293"><desc>Created with Snap</desc><defs></defs><g><rect x="-2326.4073082655873" y="-1546.2400314331055" width="9360.263728019616" height="2347.0080780029293" fill="#421e86" style=""></rect><g transform="matrix(19.2726,0,0,19.2726,-2115.5704,-1335.4031)"><g><path d="M78.4,66.5c-5.5,4.8-9.9,15.2-9.9,15.2s-6.9-11.4-12.9-15.3c-9.5-6.1-13.6-6.2-13.6-6.2V65c0,0,7.8,1.2,11.7,4.6   c8.2,7.1,14.8,18.5,14.8,18.5S74.4,75,80.1,70.5C88.1,64.3,95,65,95,65v-4.8C95,60.1,85.1,60.7,78.4,66.5z" fill="#ffffff" style=""></path><path d="M42,80c-6.4-3.6-17.8-4.3-17.8-4.3s8.7-10.1,10.5-17C37.5,47.9,36.2,44,36.2,44l-4.6,1.6c0,0,1.3,7.7-0.6,12.4   c-4.1,9.9-13,19.8-13,19.8s14.6,1.3,20.7,5.1c8.6,5.4,10.2,12,10.2,12l4.6-1.6C53.5,93.4,49.7,84.4,42,80z" fill="#ffffff" style=""></path><path d="M35.3,36.8c11.3-0.9,14.6-3.4,14.6-3.4l-3-3.8c0,0-6.9,3.7-12.1,3.4c-10.9-0.6-23.3-5.6-23.3-5.6s3.5,14,1.8,20.9   C10.9,58.2,5,61.8,5,61.8l3,3.8c0,0,7.5-6.5,9.1-15.1c1.3-7.1-1.7-18-1.7-18S28,37.4,35.3,36.8z" fill="#ffffff" style=""></path><path d="M37.4,17.8c7.3-1.1,16.7-7.4,16.7-7.4s-0.6,13.2,2.4,19.8c4.6,10.2,8,12.5,8,12.5l2.7-4c0,0-5.9-5.2-7.3-10.2   C56.9,18.2,57.7,5,57.7,5s-12.3,7.8-19.5,8.5c-10.2,1-15.6-3.3-15.6-3.3l-2.7,4.1C19.9,14.2,28.6,19.1,37.4,17.8z" fill="#ffffff" style=""></path><path d="M65,60.5c0,0,3.1-7.2,7.4-10.1c9-6.1,21.9-9.7,21.9-9.7s-11.5-8.9-14.5-15.4c-4.2-9.1-1.9-15.6-1.9-15.6l-4.8-1.2   c0,0-1.9,9.6,2.2,17.4c3.4,6.4,12.5,13.2,12.5,13.2S75,42.9,69.6,47.8c-8.3,7.6-9.4,11.5-9.4,11.5L65,60.5z" fill="#ffffff" style=""></path></g><desc>Created with Snap</desc><defs></defs></g><g><g transform="matrix(1.024,0,0,-1.024,0,0)"><path d="M550 624L328 624L328 0L244 0L244 624L22 624L22 698L550 698L550 624ZM851 -12Q798 -12 755 7Q713 26 682 61Q652 97 635 146Q619 196 619 258Q619 319 635 369Q652 419 682 454Q713 490 755 509Q798 528 851 528Q903 528 944 509Q985 490 1014 456Q1043 423 1058 377Q1074 331 1074 276L1074 238L703 238L703 214Q703 181 713 152Q724 124 743 103Q763 82 791 70Q820 58 856 58Q905 58 941 81Q978 104 998 147L1055 106Q1030 53 977 20Q924 -12 851 -12ZM851 461Q818 461 791 449Q764 438 744 417Q725 396 714 367Q703 339 703 305L703 298L988 298L988 309Q988 378 950 419Q913 461 851 461ZM1398 -12Q1344 -12 1301 7Q1258 26 1228 61Q1199 96 1183 146Q1168 196 1168 258Q1168 320 1183 370Q1199 420 1228 455Q1258 490 1301 509Q1344 528 1398 528Q1475 528 1521 494Q1568 461 1591 407L1524 373Q1510 413 1478 435Q1446 457 1398 457Q1362 457 1335 445Q1308 434 1290 413Q1272 393 1263 364Q1254 336 1254 302L1254 214Q1254 146 1290 102Q1327 59 1398 59Q1495 59 1538 149L1596 110Q1571 54 1521 21Q1472 -12 1398 -12ZM1709 0L1709 740L1789 740L1789 432L1793 432Q1812 476 1846 502Q1881 528 1939 528Q2019 528 2065 476Q2112 425 2112 331L2112 0L2032 0L2032 317Q2032 456 1915 456Q1891 456 1868 450Q1846 444 1828 432Q1810 420 1799 401Q1789 383 1789 358L1789 0L1709 0ZM2717 -12Q2632 -12 2572 20Q2512 53 2470 110L2532 162Q2569 113 2614 87Q2659 62 2720 62Q2795 62 2834 98Q2874 134 2874 194Q2874 244 2844 271Q2814 298 2745 314L2688 327Q2592 349 2541 393Q2491 438 2491 519Q2491 565 2508 601Q2525 637 2555 661Q2586 685 2628 697Q2671 710 2722 710Q2801 710 2857 681Q2914 652 2953 596L2890 550Q2861 590 2820 613Q2779 636 2718 636Q2651 636 2612 607Q2574 579 2574 522Q2574 472 2606 446Q2639 421 2705 406L2762 393Q2865 370 2911 323Q2957 276 2957 198Q2957 150 2940 111Q2924 72 2893 45Q2862 18 2817 3Q2773 -12 2717 -12ZM3289 -12Q3237 -12 3194 7Q3151 26 3120 61Q3090 97 3073 146Q3056 196 3056 258Q3056 319 3073 369Q3090 419 3120 454Q3151 490 3194 509Q3237 528 3289 528Q3341 528 3383 509Q3426 490 3457 454Q3488 419 3505 369Q3522 319 3522 258Q3522 196 3505 146Q3488 97 3457 61Q3426 26 3383 7Q3341 -12 3289 -12ZM3289 59Q3354 59 3395 99Q3436 139 3436 221L3436 295Q3436 377 3395 417Q3354 457 3289 457Q3224 457 3183 417Q3142 377 3142 295L3142 221Q3142 139 3183 99Q3224 59 3289 59ZM3810 0L3739 0Q3697 0 3675 23Q3654 47 3654 83L3654 740L3734 740L3734 70L3810 70L3810 0ZM4244 0L4244 84L4240 84Q4232 66 4220 48Q4209 31 4192 17Q4175 4 4151 -4Q4127 -12 4095 -12Q4015 -12 3968 39Q3921 91 3921 185L3921 516L4001 516L4001 199Q4001 60 4119 60Q4143 60 4165 66Q4188 72 4205 84Q4223 96 4233 114Q4244 133 4244 159L4244 516L4324 516L4324 0L4244 0ZM4708 0L4608 0Q4566 0 4544 23Q4523 47 4523 85L4523 446L4438 446L4438 516L4486 516Q4512 516 4521 526Q4531 537 4531 563L4531 659L4603 659L4603 516L4716 516L4716 446L4603 446L4603 70L4708 70L4708 0ZM4885 637Q4859 637 4847 649Q4836 662 4836 682L4836 695Q4836 715 4847 727Q4859 740 4885 740Q4911 740 4922 727Q4934 715 4934 695L4934 682Q4934 662 4922 649Q4911 637 4885 637ZM4845 0L4845 516L4925 516L4925 0L4845 0ZM5290 -12Q5238 -12 5195 7Q5152 26 5121 61Q5091 97 5074 146Q5057 196 5057 258Q5057 319 5074 369Q5091 419 5121 454Q5152 490 5195 509Q5238 528 5290 528Q5342 528 5384 509Q5427 490 5458 454Q5489 419 5506 369Q5523 319 5523 258Q5523 196 5506 146Q5489 97 5458 61Q5427 26 5384 7Q5342 -12 5290 -12ZM5290 59Q5355 59 5396 99Q5437 139 5437 221L5437 295Q5437 377 5396 417Q5355 457 5290 457Q5225 457 5184 417Q5143 377 5143 295L5143 221Q5143 139 5184 99Q5225 59 5290 59ZM5735 0L5655 0L5655 516L5735 516L5735 432L5739 432Q5758 476 5792 502Q5827 528 5885 528Q5965 528 6011 476Q6058 425 6058 331L6058 0L5978 0L5978 317Q5978 456 5861 456Q5837 456 5814 450Q5792 444 5774 432Q5756 420 5745 401Q5735 383 5735 358L5735 0ZM6378 -12Q6306 -12 6257 15Q6209 43 6174 89L6231 135Q6261 97 6298 76Q6335 56 6384 56Q6435 56 6463 78Q6492 100 6492 140Q6492 170 6472 191Q6453 213 6402 221L6361 227Q6325 232 6295 242Q6265 253 6242 270Q6220 288 6207 314Q6195 340 6195 376Q6195 414 6209 442Q6223 471 6247 490Q6272 509 6306 518Q6340 528 6379 528Q6442 528 6484 506Q6527 484 6559 445L6506 397Q6489 421 6456 440Q6423 460 6373 460Q6323 460 6297 438Q6272 417 6272 380Q6272 342 6297 325Q6323 308 6371 300L6411 294Q6497 281 6533 244Q6569 208 6569 149Q6569 74 6518 31Q6467 -12 6378 -12Z" fill="#ffffff" style=""></path></g></g></g></svg>