<?xml version="1.0" standalone="no"?>
<!DOCTYPE svg PUBLIC "-//W3C//DTD SVG 1.0//EN" "http://www.w3.org/TR/2001/REC-SVG-20010904/DTD/svg10.dtd">
<svg xmlns="http://www.w3.org/2000/svg" xmlns:xlink="http://www.w3.org/1999/xlink" id="body_1" width="1024" height="768">

<g transform="matrix(0.18656717 0 0 0.18656717 69.61343 668.65674)">
	<g>
        <path d="M-261.12 -3584L5003.264 -3584L5003.264 532.48L-261.12 532.48z" stroke="none" fill="#000000" fill-rule="nonzero" />
		<g transform="matrix(24.5335 0 0 24.5335 1144.3984 -3397.554)">
			<g>
                <path d="M50 4.922C 25.144 4.922 4.922 25.144 4.922 50C 4.922 74.856 25.144 95.078 50 95.078C 74.856 95.078 95.078 74.856 95.078 50C 95.078 25.143997 74.856 4.922 50 4.922zM11.362 50C 11.362 28.695 28.695 11.3619995 50 11.3619995C 61.19 11.3619995 71.283005 16.145 78.345 23.772999C 78.307 24.173998 78.285 24.598 78.285 25.051998C 78.285 54.771996 54.316 78.891 24.655003 79.14C 16.515 72.051 11.362 61.616 11.362 50z" stroke="none" fill="#FFFFFF" fill-rule="nonzero" />
			</g>
		</g>
		<g>
			<g transform="matrix(1.024 0 -0 -1.024 0 0)">
                <path d="M439 501L412 425C 392.6667 434.33337 374.6667 441.00003 358 445C 341.33334 449.6667 322.6667 452 302 452C 278.6667 452 256.6667 447.6667 236 439C 216.00002 430.33334 198.66669 417.6667 184 401C 169.33334 385 157.66667 365.33334 149 342C 141 318.6667 137 292 137 262C 137 234.66669 140.66667 209.33334 148 186C 156 162.66667 167 142 181 124C 195 106.66667 211.66667 93 231 83C 250.33334 73 272 68 296 68C 321.33334 68 343 70.66667 361 76C 379.00003 81.333336 398.33337 89.66667 419 101L419 101L447 25C 425.6667 13.666668 402.33337 4.666667 377 -2C 351.6667 -8.666667 322.6667 -12 290 -12C 252.66667 -12 219 -5.333333 189 8C 159 21.333334 133.33334 40 112 64C 90.66667 88.00001 74 116.66667 62 150C 50.666668 183.33334 45 220.00002 45 260C 45 297.33334 50.666668 332.33334 62 365C 74 398.33337 91 427.33337 113 452C 135 476.6667 161.33334 496 192 510C 223.33334 524.6667 258.33334 532 297 532C 327 532 353 529.3334 375 524C 397 518.6667 418.33334 511 439 501zM861 526L834 433C 821.3334 438.33334 806.3334 441 789 441C 770.3334 441 752 437 734 429C 716.6667 421 701 409 687 393C 673.6667 377 662.6667 356.33334 654 331C 646 306.33334 642 277 642 243L642 243L642 0L552 0L552 520L639 520L639 407C 645 423 653 438.6667 663 454C 673 469.33334 684.6667 482.6667 698 494C 712 505.33337 728 514.3334 746 521C 764.00006 528.3334 784.00006 532 806 532C 816.00006 532 825.66675 531.3334 835 530C 845 529.3334 853.6667 528 861 526zM911 450L930 520C 991.3334 520 1029.6667 495.6667 1045 447C 1049.6667 454.33334 1056.6667 463 1066 473C 1076 483 1088 492.33334 1102 501C 1116 509.6667 1132 517 1150 523C 1168 529 1188 532 1210 532C 1240 532 1268.6667 526 1296 514C 1324 502.00003 1348.3334 484.6667 1369 462C 1390.3334 439.33334 1407.3334 411.33334 1420 378C 1432.6667 344.6667 1439 307 1439 265C 1439 223.66669 1432.6667 186.00002 1420 152C 1408 118 1391.3334 88.66667 1370 64C 1349.3334 40 1325.3334 21.333334 1298 8C 1270.6667 -5.333333 1242 -12 1212 -12C 1180.6667 -12 1151.6667 -6 1125 6C 1099 18.666668 1077.3334 33 1060 49L1060 49L1060 -220L970 -220L970 387C 970 409.6667 964.3334 425.6667 953 435C 942.3334 445 928.3334 450 911 450zM1347 262C 1347 292 1342.6667 318.6667 1334 342C 1326 366 1314.6667 386.33334 1300 403C 1286 419.6667 1269.3334 432.33334 1250 441C 1231.3334 449.6667 1211.3334 454.00003 1190 454C 1161.3334 454.00003 1135.3334 446.6667 1112 432C 1089.3334 418 1072 402.6667 1060 386L1060 386L1060 130C 1077.3334 112.00001 1097 97.00001 1119 85C 1141.6667 73.66667 1166.6667 68 1194 68C 1216.6667 68 1237.3334 72.66667 1256 82C 1274.6667 91.333336 1290.6667 104.333336 1304 121C 1318 138.33334 1328.6667 158.66667 1336 182C 1343.3334 206.00002 1347 232.66669 1347 262zM1586 501L1605 665L1674 665L1674 501L1818 501L1818 423L1674 423L1674 172C 1674 152.66667 1676 136.33334 1680 123C 1684.6667 109.66667 1690.6667 99.00001 1698 91C 1705.3334 83 1714 77 1724 73C 1734.6667 69.66667 1745.6667 68 1757 68C 1773.6667 68 1789.3334 70.66667 1804 76C 1818.6667 81.333336 1832.6667 87.66667 1846 95L1846 95L1871 23C 1857.6667 15 1839.6667 7 1817 -1C 1794.3335 -8.333333 1770.6667 -12 1746 -12C 1696 -12 1656.3334 4.333334 1627 37C 1598.3334 69.66667 1584 117 1584 179L1584 179L1584 423L1494 423L1494 501L1586 501zM2347 260C 2347 286 2342.6667 310.6667 2334 334C 2326 357.33334 2314.3335 377.6667 2299 395C 2284.3335 412.33337 2266.6667 426.00003 2246 436C 2226 446.6667 2204 452 2180 452C 2127.3335 452 2086.3335 434.6667 2057 400C 2027.6667 365.33334 2013 319.33334 2013 262C 2013 236 2017 211 2025 187C 2033.6667 163.66667 2045.3335 143 2060 125C 2075.3335 107.66667 2093 93.66667 2113 83C 2133.6667 73 2156 68 2180 68C 2206 68 2229.3335 72.66667 2250 82C 2270.6667 91.333336 2288 104.333336 2302 121C 2316.6667 138.33334 2327.6667 158.66667 2335 182C 2343 205.33334 2347 231.33334 2347 260zM1921 260C 1921.0001 302 1927.6667 339.6667 1941 373C 1954.3334 407.00003 1972.3334 435.6667 1995 459C 2018.3334 482.33334 2045.6667 500.33334 2077 513C 2109 525.6667 2143.3335 532 2180 532C 2216 532 2249.6667 525.6667 2281 513C 2313 500.33334 2340.6667 482.33334 2364 459C 2387.3335 435.6667 2405.6667 407.33337 2419 374C 2432.3335 340.6667 2439 303.33334 2439 262C 2439 220.66669 2432.3335 183.00002 2419 149C 2406.3335 115.66667 2388.3335 87 2365 63C 2341.6667 39 2314 20.333334 2282 7C 2250.6667 -5.6666665 2216.6667 -12 2180 -12C 2142.6667 -12 2108 -5.333333 2076 8C 2044.6667 21.333334 2017.3335 40 1994 64C 1971.3335 88.00001 1953.3335 116.66667 1940 150C 1927.3335 183.33334 1921.0001 220.00002 1921 260zM2581 501L2600 665L2669 665L2669 501L2813 501L2813 423L2669 423L2669 172C 2669 152.66667 2671 136.33334 2675 123C 2679.6667 109.66667 2685.6667 99.00001 2693 91C 2700.3335 83 2709 77 2719 73C 2729.6667 69.66667 2740.6667 68 2752 68C 2768.6667 68 2784.3335 70.66667 2799 76C 2813.6667 81.333336 2827.6667 87.66667 2841 95L2841 95L2866 23C 2852.6667 15 2834.6667 7 2812 -1C 2789.3335 -8.333333 2765.6667 -12 2741 -12C 2691 -12 2651.3335 4.333334 2622 37C 2593.3335 69.66667 2579 117 2579 179L2579 179L2579 423L2489 423L2489 501L2581 501zM2921 257C 2921 295.6667 2927 331.6667 2939 365C 2951 399 2967.6667 428.33334 2989 453C 3011 477.6667 3037 497.00003 3067 511C 3097.667 525 3131.0002 532 3167 532C 3197.0002 532 3224.0002 526.6667 3248 516C 3272.6667 506 3294 493.33334 3312 478L3312 478L3312 520L3394 520L3394 126C 3394 100.66667 3400 84 3412 76C 3424.667 68.66667 3438.3335 65 3453 65L3453 65L3434 -5C 3370.0002 -5 3331.3335 21 3318 73C 3310 62.333336 3300.6667 51.666668 3290 41C 3280.0002 31 3268.3335 22 3255 14C 3241.6667 6.0000005 3226.6667 -0.33333337 3210 -5C 3193.3335 -9.666667 3175.0002 -12 3155 -12C 3122.3335 -12 3091.6667 -5.6666665 3063 7C 3035 19.666668 3010.3335 37.666668 2989 61C 2968.3335 84.333336 2951.6667 112.333336 2939 145C 2927 178.33334 2921 215.66667 2921 257zM3175 68C 3200.3335 68 3224.3335 74 3247 86C 3269.667 98 3288.667 113.66667 3304 133L3304 133L3304 412C 3286 424.6667 3266 434.6667 3244 442C 3222.667 450.00003 3200.0002 454.00003 3176 454C 3152.0002 454.00003 3130.0002 449.33337 3110 440C 3090.0002 430.6667 3072.667 417.33334 3058 400C 3044 383.33334 3033 363 3025 339C 3017 315 3013 288.6667 3013 260C 3013 232.00002 3017 206.00002 3025 182C 3033 158.66667 3044.3335 138.33334 3059 121C 3073.6667 104.333336 3090.6667 91.333336 3110 82C 3130.0002 72.66667 3151.667 68 3175 68zM3660 520L3660 433C 3678.6667 461.00003 3702.3335 484.33337 3731 503C 3760.3335 522.3334 3795 532 3835 532C 3893.667 532 3937.3335 514.3334 3966 479C 3995.3335 443.6667 4010.0002 397 4010 339L4010 339L4010 0L3920 0L3920 329C 3920.0002 367 3911.3335 397 3894 419C 3876.6667 441.6667 3852 453 3820 453C 3804.667 453 3789.667 450 3775 444C 3760.3335 438.6667 3746 431.00003 3732 421C 3718.6667 411.00003 3706 399.33337 3694 386C 3682.667 372.6667 3672.3335 358.6667 3663 344L3663 344L3663 0L3573 0L3573 520L3660 520zM4165 0L4165 740L4255 740L4255 317L4490 530L4542 473L4341 295L4586 50L4524 -10L4255 267L4255 0L4165 0z" stroke="none" fill="#FFFFFF" fill-rule="nonzero" />
			</g>
		</g>
	</g>
</g>
</svg>