<?xml version="1.0" standalone="no"?>
<!DOCTYPE svg PUBLIC "-//W3C//DTD SVG 1.0//EN" "http://www.w3.org/TR/2001/REC-SVG-20010904/DTD/svg10.dtd">
<svg xmlns="http://www.w3.org/2000/svg" xmlns:xlink="http://www.w3.org/1999/xlink" id="body_1" width="800" height="800">

<g transform="matrix(0.073789045 0 0 0.073789045 182.03757 491.805)">
	<g>
		<g transform="matrix(25.7435 0 0 25.7435 -2195.485 -6392.8613)">
			<g>
                <path d="M398.6388 200.00052L361.85794 132.95624L340.45865 59.540825L267.04272 38.141212L200.50656 1.63915L200 1.36172L132.95656 38.14173L59.54134 59.54083L38.14186 132.9552L1.63864 199.49394L1.3612101 200.00052L38.14193 267.04504L59.54135 340.45917L132.95624 361.85852L199.49344 398.36084L200 398.63828L267.04172 361.85904L340.45865 340.45917L361.8573 267.04608L398.36136 200.50708L398.6388 200.00052zM365.49286 247.05289L356.78244 217.16983L365.92365 200.50708L366.20108 200.00052L356.78238 182.83171L365.49304 152.94789L379.20798 200L365.49286 247.05289zM380.30396 203.76021L385.11703 220.27242L367.20407 252.92361L366.5889 250.8131L380.30396 203.76021zM345.23193 316.56244L330.1538 324.83447L353.72598 281.86752L355.65308 280.8102L345.23193 316.56244zM326.71875 326.71893L283.75174 350.291L298.72272 323.00165L317.5224 317.52188L323.002 298.72266L350.29117 283.75198L326.71875 326.71893zM324.8343 330.15393L316.56198 345.2325L280.80975 355.6536L281.86758 353.72546L324.8343 330.15393zM200 379.20844L152.9475 365.49338L182.83063 356.78284L199.49344 365.92416L200 366.2016L216.9945 356.8784L246.99733 365.50955L200 379.20844zM250.78233 366.59845L252.91077 367.2106L220.27081 385.11716L203.76013 380.30453L250.78233 366.59845zM196.23987 380.30453L179.72905 385.11716L147.07755 367.20444L149.1873 366.58948L196.23987 380.30453zM73.28035 326.71893L49.707993 283.75146L76.99747 298.7224L82.524864 317.68527L82.68722 318.24115L101.65957 323.69907L116.248276 350.2915L73.28035 326.71893zM118.13261 353.72623L119.19005 355.6536L83.43678 345.232L75.16481 330.15393L118.13261 353.72623zM44.34647 280.8102L46.27352 281.86725L69.845505 324.83472L54.768154 316.5632L44.34647 280.8102zM20.79113 200L34.50625 152.9484L43.21671 182.83119L34.07533 199.49394L33.797897 200.00052L43.21665 217.16905L34.50618 247.0516L20.79113 200zM33.41014 250.8118L32.79485 252.92233L14.88225 220.2714L19.69514 203.76021L33.41014 250.8118zM19.69515 196.23979L14.88245 179.72913L32.795113 147.07793L33.410213 149.1882L19.69515 196.23979zM54.76814 83.43679L69.84549 75.16527L46.27358 118.13275L44.34647 119.18981L54.76814 83.43679zM73.28048 73.28106L116.248474 49.70851L101.277214 76.99836L82.4776 82.47812L76.99779 101.277336L49.708317 116.24853L73.28048 73.28106zM75.16482 69.84606L83.43679 54.768L119.190125 44.3464L118.132675 46.27402L75.16482 69.84606zM247.05199 34.50637L217.16905 43.2169L200.50656 34.07584L200 33.79842L182.83119 43.21716L152.94801 34.50663L200.00052 20.791569L247.05199 34.50637zM326.71863 73.28106L350.29086 116.24802L323.00195 101.27708L317.5224 82.47812L298.72247 76.99811L283.75165 49.70902L326.71863 73.28106zM281.86737 46.27402L280.80975 44.3464L316.56198 54.76749L324.83414 69.84581L281.86737 46.27402zM355.65308 119.1898L353.72534 118.131966L330.15356 75.16525L345.23193 83.437546L355.65308 119.1898zM307.3237 307.32376L320.39258 300.15427L315.82495 315.82443L300.15433 320.39224L307.3237 307.32376zM297.29614 321.2253L264.62378 330.7491L303.88882 309.20822L297.29614 321.2253zM309.20792 303.88928L330.74927 264.6232L321.22565 297.2962L309.20792 303.88928zM305.77304 305.7735L255.28683 333.47052L199.63068 349.69373L146.34062 334.36343L94.22631 305.77325L66.52782 255.28485L50.413185 200.00026L66.52846 144.71465L94.2267 94.2265L144.71355 66.529236L199.99974 50.413635L255.28671 66.529236L305.77338 94.2265L333.47095 144.71439L349.58585 200.00052L333.47116 255.28561L305.77304 305.7735zM199.63536 351.88467L214.12427 356.0528L200 363.8013L185.6884 355.95004L199.63536 351.88467zM183.07909 354.51843L154.73128 338.9667L195.85043 350.79575L183.07909 354.51843zM203.4156 350.78265L246.76094 338.14804L216.74225 354.61633L203.4156 350.78265zM92.67604 307.32376L100.233444 321.09946L84.38264 316.53958L79.606415 300.15375L92.67604 307.32376zM78.77334 297.29572L69.24927 264.6214L90.79164 303.88904L78.77334 297.29572zM96.11072 309.20822L137.13907 331.71652L103.08442 321.91965L96.11072 309.20822zM48.22117 200L44.04945 214.31178L36.19819 200.00052L44.04971 185.68872L48.22117 200zM45.4811 183.0796L61.851067 153.24072L49.317146 196.24005L45.4811 183.0796zM49.31721 203.76021L61.85126 246.76056L45.480972 216.92117L49.31721 203.76021zM92.67611 92.67624L79.60736 99.84574L84.175064 84.17557L99.84555 79.607735L92.67611 92.67624zM102.70379 78.77468L135.37662 69.250885L96.11097 90.79177L102.70379 78.77468zM90.79183 96.11097L69.25037 135.37682L78.77425 102.70378L90.79183 96.11097zM199.99974 48.22169L185.68848 44.049973L200 36.1987L214.31134 44.04997L199.99974 48.22169zM216.9206 45.4813L246.76082 61.851982L203.75989 49.317543L216.9206 45.4813zM196.23961 49.31754L153.23958 61.85172L183.07915 45.48156L196.23961 49.31754zM307.32306 92.67572L300.154 79.60774L315.82495 84.175575L320.39246 99.84549L307.32306 92.67572zM321.2256 102.70379L330.7497 135.3786L309.2074 96.11046L321.2256 102.70379zM303.88904 90.79177L264.62473 69.25139L297.29648 78.77468L303.88904 90.79177zM350.6819 203.76071L354.518 216.92117L338.1484 246.75978L350.6819 203.76071zM351.77792 200.00052L355.94952 185.68898L363.80078 200.00052L355.94946 214.31178L351.77792 200.00052zM350.68195 196.24031L338.1483 153.24048L354.51807 183.0796L350.68195 196.24031zM335.42703 143.9047L323.83508 104.135376L352.17532 119.683014L359.90225 133.76746L364.397 149.18768L355.35086 180.22234L335.42703 143.9047zM295.86496 76.16531L256.09863 64.573875L219.77838 44.648506L250.81206 35.602486L266.23056 40.096596L280.31744 47.824814L295.86496 76.16531zM149.18794 35.60274L180.22188 44.64875L143.90283 64.573364L104.135376 76.165054L119.683525 47.824043L133.76785 40.097363L149.18794 35.60274zM76.16473 104.13538L64.57297 143.90291L44.64811 180.22183L35.602287 149.18822L40.097298 133.76747L47.82385 119.68354L76.16473 104.13538zM44.64811 219.77818L64.57272 256.09683L76.164345 295.86438L47.823463 280.31647L40.097614 266.23383L35.602226 250.81155L44.64811 219.77818zM104.51055 324.5193L145.52985 336.31955L180.2213 355.3515L149.18742 364.39752L133.7685 359.9029L119.683334 352.17596L104.51055 324.5193zM219.61263 355.4422L256.09756 335.4264L295.86456 323.83496L280.31668 352.17545L266.23056 359.9034L250.77777 364.40753L219.61263 355.4422zM323.83514 295.86462L335.42664 256.09735L355.35098 219.7792L364.39682 250.81284L359.9019 266.23383L352.17572 280.317L323.83514 295.86462zM366.58908 149.18768L367.2042 147.07716L385.11685 179.72809L380.30396 196.23979L366.58908 149.18768zM365.77274 144.46803L365.4931 145.42747L364.57938 142.29279L365.77274 144.46803zM355.6098 121.56722L356.4862 122.047844L357.1807 124.43066L355.6098 121.56722zM344.39874 80.57926L328.26907 71.730286L319.4203 55.600815L338.7612 61.238297L344.39874 80.57926zM277.95215 43.51334L278.4331 44.39007L275.5685 42.81848L277.95215 43.51334zM254.57227 34.50637L255.53107 34.22689L257.705 35.41932L254.57227 34.50637zM252.92188 32.7953L250.81226 33.41027L182.33832 13.451241L200 3.762L252.92188 32.7953zM179.72905 14.88283L196.24043 19.695469L142.29343 35.42009L179.72905 14.88283zM121.56773 44.38956L122.04842 43.51335L124.430725 42.819L121.56773 44.38956zM61.2388 61.23829L80.57849 55.60107L71.72989 71.730545L55.601257 80.57876L61.2388 61.23829zM43.51334 122.0481L44.38911 121.56773L42.819252 124.429115L43.51334 122.0481zM34.50618 145.428L34.22657 144.46855L35.41997 142.29329L34.50618 145.428zM13.45098 182.3385L18.59911 200L13.450789 217.66202L3.7614899 200.00052L13.45098 182.3385zM34.22631 255.53171L34.506123 254.57175L35.420353 257.70798L34.22631 255.53171zM44.38905 278.43225L43.51335 277.9519L42.81932 275.5709L44.38905 278.43225zM55.60126 319.42126L71.72989 328.26947L80.57849 344.39893L61.2388 338.76172L55.60126 319.42126zM122.04836 356.4869L121.56768 355.6107L124.43041 357.181L122.04836 356.4869zM145.42715 365.49362L144.46829 365.7731L142.29419 364.58017L145.42715 365.49362zM182.33832 386.54877L200 381.40063L217.66156 386.54877L200 396.238L182.33832 386.54877zM255.52882 365.77438L254.56276 365.49646L257.705 364.5807L255.52882 365.77438zM278.43253 355.60992L277.95145 356.4869L275.5676 357.18176L278.43253 355.60992zM338.7612 338.76172L319.4203 344.3992L328.26935 328.26947L344.39874 319.42075L338.7612 338.76172zM356.4862 277.95215L355.6105 278.43253L357.1801 275.5714L356.4862 277.95215zM365.49286 254.57329L365.77258 255.53273L364.579 257.7085L365.49286 254.57329zM386.5485 217.66304L381.4 200L386.5483 182.33748L396.23853 200.00052L386.5485 217.66304z" stroke="none" fill="#E0AAFF" fill-rule="nonzero" />
			</g>
		</g>
		<g>
			<g transform="matrix(1.024 0 -0 -1.024 0 0)">
                <path d="M761 597L887 194L1022 580C 1038 624.6667 1046 658 1046 680C 1046 700.6667 1038.6667 714 1024 720C 1010 726.6667 988 730 958 730L958 730L958 770L1242 770L1242 730C 1216.6667 730 1193.6667 723.6667 1173 711C 1153 699 1137.6667 678.3334 1127 649L1127 649L886 -10L797 -10L623 518L425 -10L342 -10L130 574C 117.333336 608 105.66667 635.3334 95 656C 84.333336 676.6667 73 692.3334 61 703C 49 713.6667 36 720.6667 22 724C 8 727.3334 -8.666667 729 -28 729L-28 729L-28 770L350 770L350 729C 316 729 292.6667 725.6667 280 719C 267.33334 713 261 702.6667 261 688C 261 682.6667 261.33334 677.3334 262 672C 262.6667 667.3334 264 661.6667 266 655C 268 649 270.33334 641.3334 273 632C 276.33334 622.6667 280.6667 611 286 597L286 597L426 194L588 636C 581.3334 654 574.6667 668.6667 568 680C 561.3334 691.3334 553.3334 700.3334 544 707C 535.3334 713.6667 525.3334 718.3334 514 721C 502.6667 724.3334 489 727 473 729L473 729L473 770L826 770L826 729C 798 729 777.3334 725.3334 764 718C 750.6667 711.3334 744 698 744 678C 744 668 745.3334 656.3334 748 643C 751.3334 629.6667 755.6667 614.3334 761 597zM1739 128L1767 93C 1706.3334 24.333332 1630.6667 -10 1540 -10C 1498.6667 -10 1461 -3.666667 1427 9C 1393.6667 22.333334 1365 40.666668 1341 64C 1317 88.00001 1298.3334 116.33334 1285 149C 1271.6667 181.66667 1265 218 1265 258C 1265 299.33334 1272 337 1286 371C 1300 405.6667 1319.6667 435.33334 1345 460C 1371 485.33334 1401.3334 505 1436 519C 1471.3334 533 1510 540 1552 540C 1622.6667 540 1677.6667 521 1717 483C 1756.3334 445 1776 391.6667 1776 323C 1776 312.33334 1774.3334 305.6667 1771 303C 1767.6667 301 1758.3334 300 1743 300L1743 300L1421 300C 1418.3334 294 1417 283 1417 267C 1417 201.66667 1431 150 1459 112C 1487.6667 74 1526.3334 55 1575 55C 1603 55 1630.6667 61.333336 1658 74C 1686 86.66667 1713 104.66667 1739 128zM1428 356L1573 356C 1599.6667 356 1616.6667 357.33334 1624 360C 1632.0001 363.33334 1636.0001 370.6667 1636 382C 1636.0001 411.33334 1627.6667 435.33334 1611 454C 1594.3334 472.6667 1573.3334 482 1548 482C 1519.3334 482 1493.6667 470 1471 446C 1449 422.6667 1434.6667 392.6667 1428 356zM2037 282L2037 219C 2037 194.33334 2040.3334 171.33334 2047 150C 2054.3335 129.33334 2064 111.333336 2076 96C 2088 80.66667 2102.3335 68.66667 2119 60C 2135.6667 51.333336 2154 47 2174 47C 2214 47 2244.3335 65.333336 2265 102C 2285.6667 138.66667 2296 192.66667 2296 264C 2296 333.33334 2285.6667 386 2265 422C 2245 458.6667 2214.6667 477 2174 477C 2150 477 2127.6667 470.33334 2107 457C 2087 444.33334 2071.3335 426.33334 2060 403C 2044.6667 371 2037 330.6667 2037 282zM2035 830L2035 461L2039 461C 2056.3335 486.33337 2078.6667 505.6667 2106 519C 2133.3335 533 2164.3335 540 2199 540C 2234.3335 540 2267 532.6667 2297 518C 2327.6667 504 2354 484.6667 2376 460C 2398.6667 435.33334 2416.3335 406.33334 2429 373C 2441.6667 339.6667 2448 304 2448 266C 2448 226.00002 2441 189.00002 2427 155C 2413.6667 121.66667 2395 92.66667 2371 68C 2347.6667 43.333336 2320 24.000002 2288 10C 2256.6667 -4 2223.3335 -11 2188 -11C 2151.3335 -11 2116.6667 -4 2084 10C 2052 24.666668 2026.3334 43.666668 2007 67L2007 67L1931 0L1897 0L1897 595C 1897.0001 657.6667 1892.6667 700.6667 1884 724C 1882 728.6667 1879.6667 732.6667 1877 736C 1874.3335 739.3334 1870.3335 742 1865 744C 1860.3335 746.6667 1853.6667 748.6667 1845 750C 1836.3334 752 1825 754 1811 756L1811 756L1811 790L2035 830zM3170 0L2785 0L2785 40C 2807.6667 40.666668 2825.6667 42.666668 2839 46C 2853 49.333336 2863.6667 55 2871 63C 2879 71 2884.3335 82.333336 2887 97C 2889.6667 111.66667 2891 130.66667 2891 154L2891 154L2891 616C 2891 639.3334 2890 658 2888 672C 2886 686.6667 2881.6667 698 2875 706C 2869 714.6667 2860.3335 720.3334 2849 723C 2838.3335 726.3334 2824 728.6667 2806 730L2806 730L2806 770L3127 770C 3227.667 770.00006 3305.0002 753.66675 3359 721C 3413.6667 689 3441 643 3441 583C 3441 503.6667 3384 447.6667 3270 415L3270 415L3270 411C 3306.6667 411 3339.6667 405.6667 3369 395C 3399 385 3424.3335 370.6667 3445 352C 3465.667 333.33334 3481.667 311.33334 3493 286C 3504.3335 260.6667 3510 233.00002 3510 203C 3510 169 3501.6667 139.33334 3485 114C 3469.0002 88.66667 3445.667 67.333336 3415 50C 3355.667 16.666668 3274.0002 0 3170 0zM3177 61C 3284.3335 61 3338.0002 109.33334 3338 206C 3338.0002 265.33334 3318.667 308.6667 3280 336C 3260 350 3234 360 3202 366C 3170.667 372 3132.0002 375 3086 375L3086 375L3038 375L3038 175C 3038 133.66667 3048.6667 104.333336 3070 87C 3091.3335 69.66667 3127 61 3177 61zM3038 435L3097 435C 3127 435 3153 437.6667 3175 443C 3197 449 3215.6667 457.33334 3231 468C 3263 490 3279 524.3334 3279 571C 3279 619.6667 3267 654.6667 3243 676C 3219 698 3180.3335 709 3127 709L3127 709L3056 709C 3044 709 3038 703.3334 3038 692L3038 692L3038 435zM3806 540L3806 164C 3806.0002 137.33334 3807.0002 116.00001 3809 100C 3811.0002 84 3815.0002 71.66667 3821 63C 3827.0002 54.333336 3835.667 48.333336 3847 45C 3858.3335 42.333336 3873.6667 40.666668 3893 40L3893 40L3893 0L3578 0L3578 40C 3596.6667 40.666668 3611.6667 42.666668 3623 46C 3635.0002 50 3644.0002 56 3650 64C 3656.6667 72.66667 3661 84.333336 3663 99C 3665.6667 114.333336 3667 133.66667 3667 157L3667 157L3667 280C 3667 318.6667 3666.3335 350.33334 3665 375C 3663.6667 400.33334 3662 417.6667 3660 427C 3656.6667 443.6667 3649 454.6667 3637 460C 3625.667 465.33334 3604.667 468 3574 468L3574 468L3574 502L3806 540zM3659 752C 3659.0002 774.00006 3666.3335 792.3334 3681 807C 3696.3335 822.3334 3714.667 830.00006 3736 830C 3758 830.00006 3776.3335 822.3334 3791 807C 3806.3335 792.3334 3814 774.00006 3814 752C 3814 730.6667 3806.3335 712.3334 3791 697C 3776.3335 682.3334 3758 675 3736 675C 3714.667 675 3696.3335 682.3334 3681 697C 3666.3335 712.3334 3659.0002 730.6667 3659 752zM4167 301L4167 163C 4167 135.66667 4167.667 114 4169 98C 4171 82.66667 4174.667 70.66667 4180 62C 4186 54.000004 4194.667 48.66667 4206 46C 4218 43.333336 4234 41.333336 4254 40L4254 40L4254 0L3939 0L3939 40C 3958.3335 41.333336 3973.667 43.333336 3985 46C 3997 48.66667 4006 54.000004 4012 62C 4018.667 70 4023.0002 81.333336 4025 96C 4027.0002 110.66667 4028.0002 130.66667 4028 156L4028 156L4028 281C 4028.0002 320.33334 4027.3335 352 4026 376C 4024.6667 400.6667 4023 417.33334 4021 426C 4019 434.6667 4016.3335 441.6667 4013 447C 4009.6667 453 4004.6667 457.33334 3998 460C 3991.3335 463.33334 3983 465.33334 3973 466C 3963 467.33334 3950.3335 468 3935 468L3935 468L3935 502L4128 540L4141 452L4145 452C 4167 480 4193 501.6667 4223 517C 4253 532.3334 4286 540 4322 540C 4364.667 540 4399 534 4425 522C 4451.667 510.6667 4475.3335 491.33337 4496 464C 4507.3335 448.6667 4517.3335 428.6667 4526 404C 4534.667 380 4539 346.6667 4539 304L4539 304L4539 163C 4539 135.66667 4539.667 114 4541 98C 4543 82.66667 4546.667 70.66667 4552 62C 4558 54.000004 4566.667 48.66667 4578 46C 4589.3335 43.333336 4604.667 41.333336 4624 40L4624 40L4624 0L4311 0L4311 40C 4331 40.666668 4346.667 42.333336 4358 45C 4370 48.333336 4379 54.000004 4385 62C 4391 70 4395 81.333336 4397 96C 4399 111.333336 4400 131.33334 4400 156L4400 156L4400 292C 4400 326 4398 354.6667 4394 378C 4390 401.33334 4383.3335 420 4374 434C 4365.3335 448.6667 4353.667 459 4339 465C 4324.3335 471.6667 4306 475.00003 4284 475C 4262.667 475.00003 4244.3335 469.00003 4229 457C 4213.667 445.00003 4200.3335 428.33337 4189 407C 4183 395 4177.667 379.33334 4173 360C 4169 341.33334 4167 321.6667 4167 301zM4865 108C 4883 106.66667 4898.667 105.33334 4912 104C 4926 102.66667 4939 101 4951 99C 4963.667 97.66667 4976 96.00001 4988 94C 5000.667 92.66667 5014 91 5028 89C 5080 81.66667 5120.667 62 5150 30C 5180 -1.333334 5195 -40.333336 5195 -87C 5195 -143.66667 5171.667 -186.66667 5125 -216C 5078.3335 -245.33334 5009.667 -260 4919 -260C 4835.667 -260 4771.3335 -248.00002 4726 -224C 4681.3335 -199.33334 4659 -164.66667 4659 -120C 4659 -85.333336 4668 -59.333336 4686 -42C 4704 -24 4726.667 -15 4754 -15C 4771.3335 -15 4788 -18.666668 4804 -26C 4820.667 -32.666668 4834.667 -42.666668 4846 -56C 4828.667 -59.333336 4814.3335 -67.333336 4803 -80C 4792.3335 -92 4787 -106.333336 4787 -123C 4787 -149.66667 4798.667 -170.33334 4822 -185C 4846 -199.00002 4881 -206.00002 4927 -206C 5027 -206.00002 5077 -174.33334 5077 -111C 5077 -88.333336 5069.3335 -69 5054 -53C 5039.3335 -36.333336 5018 -26.333336 4990 -23L4990 -23L4815 1C 4741 11 4704 44.000004 4704 100C 4704 127.333336 4712.667 149.66667 4730 167C 4748 184.33334 4773.3335 196.33334 4806 203L4806 203L4806 207C 4790.667 213 4776.667 221.33334 4764 232C 4752 242.66669 4741.3335 255.00002 4732 269C 4722.667 283 4715.3335 298 4710 314C 4705.3335 330.6667 4703 347.6667 4703 365C 4703 389.6667 4708 412.6667 4718 434C 4728.667 456 4743 474.6667 4761 490C 4779.667 505.33334 4801.3335 517.3334 4826 526C 4851.3335 535.3334 4878.667 540 4908 540C 4936.667 540 4964.667 535.6667 4992 527C 5019.3335 518.3334 5042.667 506.33337 5062 491C 5077.3335 500.33337 5090.667 508.00003 5102 514C 5113.3335 520.6667 5123.667 525.6667 5133 529C 5143 533 5152 535.6667 5160 537C 5168 539 5176 540 5184 540C 5209.3335 540 5229.667 534.3334 5245 523C 5261 511.6667 5269 496.6667 5269 478C 5269 464.00003 5264.667 452.33337 5256 443C 5247.3335 434.33337 5236 430.00003 5222 430C 5212 430.00003 5204 432.00003 5198 436C 5192 440.6667 5186 445.6667 5180 451C 5174.667 457.00003 5169 462.00003 5163 466C 5157 470.6667 5149 473 5139 473C 5125 473 5111.667 464 5099 446C 5105.667 434.6667 5110.3335 422.33334 5113 409C 5115.667 396.33334 5117 381.33334 5117 364C 5117 338.6667 5113 315.33334 5105 294C 5097 272.6667 5084.3335 253.66667 5067 237C 5050.3335 221 5028.667 207.33334 5002 196C 4975.3335 184.66667 4943 177 4905 173C 4873 169.66667 4850.667 165.33334 4838 160C 4826 154.66667 4820 146.66667 4820 136C 4820 120.00001 4835 110.66667 4865 108zM4913 230C 4934.3335 230.00002 4951 241.33334 4963 264C 4975 286.6667 4981 318.33334 4981 359C 4981 400.33337 4975 432.00003 4963 454C 4951 476.6667 4934 488 4912 488C 4889.3335 488 4871.3335 476.6667 4858 454C 4844.667 431.33334 4838 400.33334 4838 361C 4838 321 4844.667 289 4858 265C 4872 241.66669 4890.3335 230.00002 4913 230zM5759 128L5787 93C 5726.3335 24.333332 5650.667 -10 5560 -10C 5518.667 -10 5481 -3.666667 5447 9C 5413.667 22.333334 5385 40.666668 5361 64C 5337 88.00001 5318.3335 116.33334 5305 149C 5291.667 181.66667 5285 218 5285 258C 5285 299.33334 5292 337 5306 371C 5320 405.6667 5339.667 435.33334 5365 460C 5391 485.33334 5421.3335 505 5456 519C 5491.3335 533 5530 540 5572 540C 5642.667 540 5697.667 521 5737 483C 5776.3335 445 5796 391.6667 5796 323C 5796 312.33334 5794.3335 305.6667 5791 303C 5787.667 301 5778.3335 300 5763 300L5763 300L5441 300C 5438.3335 294 5437 283 5437 267C 5437 201.66667 5451 150 5479 112C 5507.667 74 5546.3335 55 5595 55C 5623 55 5650.667 61.333336 5678 74C 5706 86.66667 5733 104.66667 5759 128zM5448 356L5593 356C 5619.667 356 5636.667 357.33334 5644 360C 5652 363.33334 5656 370.6667 5656 382C 5656 411.33334 5647.667 435.33334 5631 454C 5614.3335 472.6667 5593.3335 482 5568 482C 5539.3335 482 5513.667 470 5491 446C 5469 422.6667 5454.667 392.6667 5448 356z" stroke="none" fill="#000000" fill-rule="nonzero" />
			</g>
		</g>
		<g transform="matrix(2 0 0 2 949.2479 -1177.6)">
			<g transform="matrix(1.024 0 -0 -1.024 0 0)">
                <path d="M761 597L887 194L1022 580C 1038 624.6667 1046 658 1046 680C 1046 700.6667 1038.6667 714 1024 720C 1010 726.6667 988 730 958 730L958 730L958 770L1242 770L1242 730C 1216.6667 730 1193.6667 723.6667 1173 711C 1153 699 1137.6667 678.3334 1127 649L1127 649L886 -10L797 -10L623 518L425 -10L342 -10L130 574C 117.333336 608 105.66667 635.3334 95 656C 84.333336 676.6667 73 692.3334 61 703C 49 713.6667 36 720.6667 22 724C 8 727.3334 -8.666667 729 -28 729L-28 729L-28 770L350 770L350 729C 316 729 292.6667 725.6667 280 719C 267.33334 713 261 702.6667 261 688C 261 682.6667 261.33334 677.3334 262 672C 262.6667 667.3334 264 661.6667 266 655C 268 649 270.33334 641.3334 273 632C 276.33334 622.6667 280.6667 611 286 597L286 597L426 194L588 636C 581.3334 654 574.6667 668.6667 568 680C 561.3334 691.3334 553.3334 700.3334 544 707C 535.3334 713.6667 525.3334 718.3334 514 721C 502.6667 724.3334 489 727 473 729L473 729L473 770L826 770L826 729C 798 729 777.3334 725.3334 764 718C 750.6667 711.3334 744 698 744 678C 744 668 745.3334 656.3334 748 643C 751.3334 629.6667 755.6667 614.3334 761 597zM1645 0L1260 0L1260 40C 1282.6667 40.666668 1300.6667 42.666668 1314 46C 1328 49.333336 1338.6667 55 1346 63C 1354 71 1359.3334 82.333336 1362 97C 1364.6667 111.66667 1366 130.66667 1366 154L1366 154L1366 616C 1366 639.3334 1365 658 1363 672C 1361 686.6667 1356.6667 698 1350 706C 1344 714.6667 1335.3334 720.3334 1324 723C 1313.3334 726.3334 1299 728.6667 1281 730L1281 730L1281 770L1602 770C 1702.6667 770.00006 1780.0001 753.66675 1834 721C 1888.6667 689 1916 643 1916 583C 1916 503.6667 1859 447.6667 1745 415L1745 415L1745 411C 1781.6667 411 1814.6667 405.6667 1844 395C 1874 385 1899.3334 370.6667 1920 352C 1940.6667 333.33334 1956.6667 311.33334 1968 286C 1979.3334 260.6667 1985 233.00002 1985 203C 1985 169 1976.6667 139.33334 1960 114C 1944.0001 88.66667 1920.6667 67.333336 1890 50C 1830.6667 16.666668 1749.0001 0 1645 0zM1652 61C 1759.3335 61 1813.0001 109.33334 1813 206C 1813.0001 265.33334 1793.6667 308.6667 1755 336C 1735 350 1709 360 1677 366C 1645.6667 372 1607.0001 375 1561 375L1561 375L1513 375L1513 175C 1513 133.66667 1523.6667 104.333336 1545 87C 1566.3334 69.66667 1602 61 1652 61zM1513 435L1572 435C 1602 435 1628 437.6667 1650 443C 1672 449 1690.6667 457.33334 1706 468C 1738 490 1754 524.3334 1754 571C 1754 619.6667 1742 654.6667 1718 676C 1694 698 1655.3334 709 1602 709L1602 709L1531 709C 1519 709 1513 703.3334 1513 692L1513 692L1513 435z" stroke="none" fill="#000000" fill-rule="nonzero" />
			</g>
		</g>
	</g>
</g>
</svg>